<svg width="51" height="49" viewBox="0 0 51 49" fill="none" xmlns="http://www.w3.org/2000/svg">
<path d="M35.3142 4.58209H24.2851V1.28299C24.2851 0.942717 24.1499 0.616384 23.9093 0.375778C23.6687 0.135171 23.3424 0 23.0021 0H20.986C20.6457 0 20.3194 0.135171 20.0788 0.375778C19.8382 0.616384 19.703 0.942717 19.703 1.28299V4.58209H8.6739C6.37381 4.58331 4.16828 5.49755 2.54187 7.12396C0.915459 8.75037 0.00121409 10.9559 0 13.256V18.4246C0 24.1107 2.25881 29.564 6.27952 33.5847C10.3002 37.6054 15.7535 39.8642 21.4396 39.8642H23.0021C23.3424 39.8642 23.6687 39.729 23.9093 39.4884C24.1499 39.2478 24.2851 38.9215 24.2851 38.5812V36.5651C24.2851 36.2248 24.1499 35.8985 23.9093 35.6579C23.6687 35.4173 23.3424 35.2821 23.0021 35.2821H21.4396C16.9687 35.2821 12.6809 33.5061 9.51954 30.3447C6.35815 27.1833 4.58209 22.8955 4.58209 18.4246V13.256C4.58209 12.1708 5.01319 11.13 5.78055 10.3626C6.54792 9.59528 7.58868 9.16418 8.6739 9.16418H35.3142C36.3994 9.16418 37.4402 9.59528 38.2075 10.3626C38.9749 11.13 39.406 12.1708 39.406 13.256V18.7866C39.4031 20.0437 39.2493 21.2959 38.9478 22.5164C38.8679 22.8309 38.9105 23.1639 39.0671 23.4481C39.2236 23.7323 39.4824 23.9463 39.7909 24.0468L41.7154 24.6746C41.8816 24.7297 42.0574 24.7501 42.2318 24.7345C42.4063 24.7189 42.5757 24.6677 42.7295 24.5839C42.8833 24.5001 43.0183 24.3856 43.126 24.2475C43.2337 24.1094 43.3119 23.9506 43.3558 23.7811C43.7724 22.1488 43.9848 20.4712 43.9881 18.7866V13.256C43.9869 10.9559 43.0726 8.75037 41.4462 7.12396C39.8198 5.49755 37.6143 4.58331 35.3142 4.58209Z" fill="#E00000"/>
<path d="M14.6618 23.8274C16.6863 23.8274 18.3274 22.1863 18.3274 20.1618C18.3274 18.1373 16.6863 16.4961 14.6618 16.4961C12.6373 16.4961 10.9961 18.1373 10.9961 20.1618C10.9961 22.1863 12.6373 23.8274 14.6618 23.8274Z" fill="#E00000"/>
<path d="M29.3258 23.8274C31.3503 23.8274 32.9915 22.1863 32.9915 20.1618C32.9915 18.1373 31.3503 16.4961 29.3258 16.4961C27.3013 16.4961 25.6602 18.1373 25.6602 20.1618C25.6602 22.1863 27.3013 23.8274 29.3258 23.8274Z" fill="#E00000"/>
<path d="M45.826 37.0237L49.9774 38.6595C50.0628 38.6933 50.1362 38.752 50.1878 38.828C50.2395 38.904 50.2671 38.9937 50.2671 39.0856C50.2671 39.1775 50.2395 39.2673 50.1878 39.3433C50.1362 39.4193 50.0628 39.478 49.9774 39.5118L45.826 41.1476C45.0911 41.4382 44.4236 41.8764 43.8648 42.4352C43.3061 42.9939 42.8678 43.6614 42.5773 44.3963L40.9415 48.5202C40.9077 48.6056 40.849 48.679 40.773 48.7306C40.697 48.7823 40.6072 48.81 40.5153 48.81C40.4234 48.81 40.3337 48.7823 40.2577 48.7306C40.1817 48.679 40.123 48.6056 40.0892 48.5202L38.4534 44.3963C38.1635 43.661 37.7256 42.9932 37.1667 42.4343C36.6078 41.8754 35.94 41.4374 35.2047 41.1476L31.0808 39.5118C30.9953 39.478 30.922 39.4193 30.8703 39.3433C30.8187 39.2673 30.791 39.1775 30.791 39.0856C30.791 38.9937 30.8187 38.904 30.8703 38.828C30.922 38.752 30.9953 38.6933 31.0808 38.6595L35.2047 37.0237C35.94 36.7339 36.6078 36.2959 37.1667 35.737C37.7256 35.1781 38.1635 34.5103 38.4534 33.775L40.0892 29.6511C40.123 29.5657 40.1817 29.4923 40.2577 29.4406C40.3337 29.389 40.4234 29.3613 40.5153 29.3613C40.6072 29.3613 40.697 29.389 40.773 29.4406C40.849 29.4923 40.9077 29.5657 40.9415 29.6511L42.5773 33.775C42.8678 34.5099 43.3061 35.1773 43.8648 35.7361C44.4236 36.2949 45.0911 36.7331 45.826 37.0237Z" fill="white" fill-opacity="0.12"/>
<path d="M43.865 37.0237L48.0164 38.6595C48.1019 38.6933 48.1752 38.752 48.2269 38.828C48.2786 38.904 48.3062 38.9937 48.3062 39.0856C48.3062 39.1775 48.2786 39.2673 48.2269 39.3433C48.1752 39.4193 48.1019 39.478 48.0164 39.5118L43.865 41.1476C43.1302 41.4382 42.4627 41.8764 41.9039 42.4352C41.3451 42.9939 40.9069 43.6614 40.6163 44.3963L38.9805 48.5202C38.9468 48.6056 38.8881 48.679 38.8121 48.7306C38.7361 48.7823 38.6463 48.81 38.5544 48.81C38.4625 48.81 38.3727 48.7823 38.2967 48.7306C38.2207 48.679 38.162 48.6056 38.1283 48.5202L36.4925 44.3963C36.2026 43.661 35.7646 42.9932 35.2058 42.4343C34.6469 41.8754 33.9791 41.4374 33.2438 41.1476L29.1199 39.5118C29.0344 39.478 28.9611 39.4193 28.9094 39.3433C28.8577 39.2673 28.8301 39.1775 28.8301 39.0856C28.8301 38.9937 28.8577 38.904 28.9094 38.828C28.9611 38.752 29.0344 38.6933 29.1199 38.6595L33.2438 37.0237C33.9791 36.7339 34.6469 36.2959 35.2058 35.737C35.7646 35.1781 36.2026 34.5103 36.4925 33.775L38.1283 29.6511C38.162 29.5657 38.2207 29.4923 38.2967 29.4406C38.3727 29.389 38.4625 29.3613 38.5544 29.3613C38.6463 29.3613 38.7361 29.389 38.8121 29.4406C38.8881 29.4923 38.9468 29.5657 38.9805 29.6511L40.6163 33.775C40.9069 34.5099 41.3451 35.1773 41.9039 35.7361C42.4627 36.2949 43.1302 36.7331 43.865 37.0237Z" fill="#E00000"/>
</svg>
