<svg width="50" height="48" viewBox="0 0 50 48" fill="none" xmlns="http://www.w3.org/2000/svg">
<mask id="mask0_3156_1041" style="mask-type:alpha" maskUnits="userSpaceOnUse" x="2" y="0" width="48" height="48">
<path d="M48.662 20.577L43.034 19.641C42.6217 18.0233 41.9797 16.473 41.1275 15.0375L44.4455 10.395C44.6654 10.0868 44.7689 9.71052 44.7376 9.33317C44.7063 8.95582 44.5422 8.60179 44.2745 8.334L41.666 5.724C41.398 5.45653 41.0439 5.29273 40.6665 5.2617C40.2892 5.23067 39.9131 5.33441 39.605 5.5545L34.9625 8.8725C33.5269 8.02084 31.9766 7.37932 30.359 6.9675L29.423 1.3365C29.3605 0.963075 29.1677 0.623881 28.8788 0.379185C28.5899 0.134488 28.2236 0.000136416 27.845 0L24.155 0C23.375 0 22.706 0.5655 22.577 1.338L21.641 6.966C20.0015 7.386 18.4565 8.031 17.0375 8.8725L12.395 5.5545C12.0868 5.3346 11.7105 5.23111 11.3332 5.26242C10.9558 5.29373 10.6018 5.45781 10.334 5.7255L7.7255 8.334C7.172 8.886 7.1 9.759 7.5545 10.395L10.8725 15.0375C10.0208 16.4731 9.37932 18.0234 8.9675 19.641L3.338 20.577C2.5655 20.706 2 21.375 2 22.155V25.845C2 26.625 2.5655 27.294 3.338 27.423L8.966 28.359C9.386 29.9985 10.031 31.5435 10.8725 32.9625L7.5545 37.605C7.33431 37.9131 7.23064 38.2894 7.26195 38.6669C7.29327 39.0443 7.45754 39.3984 7.7255 39.666L10.334 42.2745C10.8875 42.828 11.759 42.9 12.395 42.4455L17.0375 39.1275C18.4565 39.9705 20.0015 40.6155 21.641 41.0325L22.577 46.662C22.706 47.4345 23.3735 48 24.1565 48H27.845C28.6265 48 29.294 47.4345 29.423 46.662L30.359 41.034C31.9772 40.6219 33.528 39.9798 34.964 39.1275L39.605 42.4455C39.9132 42.6654 40.2895 42.7689 40.6668 42.7376C41.0442 42.7063 41.3982 42.5422 41.666 42.2745L44.276 39.666C44.828 39.1125 44.9 38.241 44.4455 37.605L41.1275 32.9625C41.9705 31.5435 42.6155 29.9985 43.0325 28.359L48.662 27.423C49.4345 27.294 50 26.6265 50 25.8435V22.155C50 21.3735 49.433 20.706 48.662 20.577ZM35.6 22.3995C36.0245 22.3995 36.4316 22.5681 36.7317 22.8683C37.0319 23.1684 37.2005 23.5755 37.2005 24C37.2005 24.4245 37.0319 24.8316 36.7317 25.1317C36.4316 25.4319 36.0245 25.6005 35.6 25.6005H33.9995V27.1995H35.6C36.0245 27.1995 36.4316 27.3681 36.7317 27.6683C37.0319 27.9684 37.2005 28.3755 37.2005 28.8C37.2005 29.2245 37.0319 29.6316 36.7317 29.9317C36.4316 30.2319 36.0245 30.4005 35.6 30.4005H33.9995C33.9995 31.2855 33.284 32.001 32.4005 32.001V33.6C32.4005 34.0245 32.2319 34.4316 31.9317 34.7317C31.6316 35.0319 31.2245 35.2005 30.8 35.2005C30.3755 35.2005 29.9684 35.0319 29.6683 34.7317C29.3681 34.4316 29.1995 34.0245 29.1995 33.6V32.001H27.599V33.6C27.599 34.0243 27.4305 34.4312 27.1304 34.7312C26.8304 35.0312 26.4235 35.1997 25.9993 35.1997C25.575 35.1997 25.1681 35.0312 24.8681 34.7312C24.568 34.4312 24.3995 34.0243 24.3995 33.6V32.001H22.799V33.6C22.799 34.0243 22.6305 34.4312 22.3304 34.7312C22.0304 35.0312 21.6235 35.1997 21.1993 35.1997C20.775 35.1997 20.3681 35.0312 20.0681 34.7312C19.768 34.4312 19.5995 34.0243 19.5995 33.6V32.001C18.7145 32.001 17.999 31.284 17.999 30.4005H16.4C15.9755 30.4005 15.5684 30.2319 15.2683 29.9317C14.9681 29.6316 14.7995 29.2245 14.7995 28.8C14.7995 28.3755 14.9681 27.9684 15.2683 27.6683C15.5684 27.3681 15.9755 27.1995 16.4 27.1995H17.999V25.6005H16.4C15.9755 25.6005 15.5684 25.4319 15.2683 25.1317C14.9681 24.8316 14.7995 24.4245 14.7995 24C14.7995 23.5755 14.9681 23.1684 15.2683 22.8683C15.5684 22.5681 15.9755 22.3995 16.4 22.3995H17.999V20.8005H16.4C15.9755 20.8005 15.5684 20.6319 15.2683 20.3317C14.9681 20.0316 14.7995 19.6245 14.7995 19.2C14.7995 18.7755 14.9681 18.3684 15.2683 18.0683C15.5684 17.7681 15.9755 17.5995 16.4 17.5995H17.999C17.999 16.7145 18.716 15.999 19.5995 15.999V14.4C19.5995 13.9757 19.768 13.5688 20.0681 13.2688C20.3681 12.9688 20.775 12.8002 21.1993 12.8002C21.6235 12.8002 22.0304 12.9688 22.3304 13.2688C22.6305 13.5688 22.799 13.9757 22.799 14.4V15.999H24.3995V14.4C24.3995 13.9757 24.568 13.5688 24.8681 13.2688C25.1681 12.9688 25.575 12.8002 25.9993 12.8002C26.4235 12.8002 26.8304 12.9688 27.1304 13.2688C27.4305 13.5688 27.599 13.9757 27.599 14.4V15.999H29.1995V14.4C29.1995 13.9755 29.3681 13.5684 29.6683 13.2683C29.9684 12.9681 30.3755 12.7995 30.8 12.7995C31.2245 12.7995 31.6316 12.9681 31.9317 13.2683C32.2319 13.5684 32.4005 13.9755 32.4005 14.4V15.999C33.284 15.999 33.9995 16.716 33.9995 17.5995H35.6C36.0245 17.5995 36.4316 17.7681 36.7317 18.0683C37.0319 18.3684 37.2005 18.7755 37.2005 19.2C37.2005 19.6245 37.0319 20.0316 36.7317 20.3317C36.4316 20.6319 36.0245 20.8005 35.6 20.8005H33.9995V22.3995H35.6Z" fill="white"/>
</mask>
<g mask="url(#mask0_3156_1041)">
<rect x="34" y="-2" width="17" height="54" fill="white" fill-opacity="0.12"/>
</g>
<path d="M46.662 20.577L41.034 19.641C40.6217 18.0233 39.9797 16.473 39.1275 15.0375L42.4455 10.395C42.6654 10.0868 42.7689 9.71052 42.7376 9.33317C42.7063 8.95582 42.5422 8.60179 42.2745 8.334L39.666 5.724C39.398 5.45653 39.0439 5.29273 38.6665 5.2617C38.2892 5.23067 37.9131 5.33441 37.605 5.5545L32.9625 8.8725C31.5269 8.02084 29.9766 7.37932 28.359 6.9675L27.423 1.3365C27.3605 0.963075 27.1677 0.623881 26.8788 0.379185C26.5899 0.134488 26.2236 0.000136416 25.845 0L22.155 0C21.375 0 20.706 0.5655 20.577 1.338L19.641 6.966C18.0015 7.386 16.4565 8.031 15.0375 8.8725L10.395 5.5545C10.0868 5.3346 9.71052 5.23111 9.33317 5.26242C8.95582 5.29373 8.60179 5.45781 8.334 5.7255L5.7255 8.334C5.172 8.886 5.1 9.759 5.5545 10.395L8.8725 15.0375C8.02084 16.4731 7.37932 18.0234 6.9675 19.641L1.338 20.577C0.5655 20.706 0 21.375 0 22.155V25.845C0 26.625 0.5655 27.294 1.338 27.423L6.966 28.359C7.386 29.9985 8.031 31.5435 8.8725 32.9625L5.5545 37.605C5.33431 37.9131 5.23064 38.2894 5.26195 38.6669C5.29327 39.0443 5.45754 39.3984 5.7255 39.666L8.334 42.2745C8.8875 42.828 9.759 42.9 10.395 42.4455L15.0375 39.1275C16.4565 39.9705 18.0015 40.6155 19.641 41.0325L20.577 46.662C20.706 47.4345 21.3735 48 22.1565 48H25.845C26.6265 48 27.294 47.4345 27.423 46.662L28.359 41.034C29.9772 40.6219 31.528 39.9798 32.964 39.1275L37.605 42.4455C37.9132 42.6654 38.2895 42.7689 38.6668 42.7376C39.0442 42.7063 39.3982 42.5422 39.666 42.2745L42.276 39.666C42.828 39.1125 42.9 38.241 42.4455 37.605L39.1275 32.9625C39.9705 31.5435 40.6155 29.9985 41.0325 28.359L46.662 27.423C47.4345 27.294 48 26.6265 48 25.8435V22.155C48 21.3735 47.433 20.706 46.662 20.577ZM33.6 22.3995C34.0245 22.3995 34.4316 22.5681 34.7317 22.8683C35.0319 23.1684 35.2005 23.5755 35.2005 24C35.2005 24.4245 35.0319 24.8316 34.7317 25.1317C34.4316 25.4319 34.0245 25.6005 33.6 25.6005H31.9995V27.1995H33.6C34.0245 27.1995 34.4316 27.3681 34.7317 27.6683C35.0319 27.9684 35.2005 28.3755 35.2005 28.8C35.2005 29.2245 35.0319 29.6316 34.7317 29.9317C34.4316 30.2319 34.0245 30.4005 33.6 30.4005H31.9995C31.9995 31.2855 31.284 32.001 30.4005 32.001V33.6C30.4005 34.0245 30.2319 34.4316 29.9317 34.7317C29.6316 35.0319 29.2245 35.2005 28.8 35.2005C28.3755 35.2005 27.9684 35.0319 27.6683 34.7317C27.3681 34.4316 27.1995 34.0245 27.1995 33.6V32.001H25.599V33.6C25.599 34.0243 25.4305 34.4312 25.1304 34.7312C24.8304 35.0312 24.4235 35.1997 23.9993 35.1997C23.575 35.1997 23.1681 35.0312 22.8681 34.7312C22.568 34.4312 22.3995 34.0243 22.3995 33.6V32.001H20.799V33.6C20.799 34.0243 20.6305 34.4312 20.3304 34.7312C20.0304 35.0312 19.6235 35.1997 19.1993 35.1997C18.775 35.1997 18.3681 35.0312 18.0681 34.7312C17.768 34.4312 17.5995 34.0243 17.5995 33.6V32.001C16.7145 32.001 15.999 31.284 15.999 30.4005H14.4C13.9755 30.4005 13.5684 30.2319 13.2683 29.9317C12.9681 29.6316 12.7995 29.2245 12.7995 28.8C12.7995 28.3755 12.9681 27.9684 13.2683 27.6683C13.5684 27.3681 13.9755 27.1995 14.4 27.1995H15.999V25.6005H14.4C13.9755 25.6005 13.5684 25.4319 13.2683 25.1317C12.9681 24.8316 12.7995 24.4245 12.7995 24C12.7995 23.5755 12.9681 23.1684 13.2683 22.8683C13.5684 22.5681 13.9755 22.3995 14.4 22.3995H15.999V20.8005H14.4C13.9755 20.8005 13.5684 20.6319 13.2683 20.3317C12.9681 20.0316 12.7995 19.6245 12.7995 19.2C12.7995 18.7755 12.9681 18.3684 13.2683 18.0683C13.5684 17.7681 13.9755 17.5995 14.4 17.5995H15.999C15.999 16.7145 16.716 15.999 17.5995 15.999V14.4C17.5995 13.9757 17.768 13.5688 18.0681 13.2688C18.3681 12.9688 18.775 12.8002 19.1993 12.8002C19.6235 12.8002 20.0304 12.9688 20.3304 13.2688C20.6305 13.5688 20.799 13.9757 20.799 14.4V15.999H22.3995V14.4C22.3995 13.9757 22.568 13.5688 22.8681 13.2688C23.1681 12.9688 23.575 12.8002 23.9993 12.8002C24.4235 12.8002 24.8304 12.9688 25.1304 13.2688C25.4305 13.5688 25.599 13.9757 25.599 14.4V15.999H27.1995V14.4C27.1995 13.9755 27.3681 13.5684 27.6683 13.2683C27.9684 12.9681 28.3755 12.7995 28.8 12.7995C29.2245 12.7995 29.6316 12.9681 29.9317 13.2683C30.2319 13.5684 30.4005 13.9755 30.4005 14.4V15.999C31.284 15.999 31.9995 16.716 31.9995 17.5995H33.6C34.0245 17.5995 34.4316 17.7681 34.7317 18.0683C35.0319 18.3684 35.2005 18.7755 35.2005 19.2C35.2005 19.6245 35.0319 20.0316 34.7317 20.3317C34.4316 20.6319 34.0245 20.8005 33.6 20.8005H31.9995V22.3995H33.6Z" fill="#E00000"/>
<path d="M28.5996 28.7998H19V19.2002H28.5996V28.7998ZM20 23.4102V23.9893L23.1904 25.4004V24.5967L21.0156 23.6992L23.1904 22.8027V22L20 23.4102ZM24.0283 22.8027L26.2021 23.6992L24.0283 24.5967V25.4004L27.2188 23.9893V23.4102L24.0283 22V22.8027Z" fill="#E00000"/>
</svg>
