<svg width="590" height="84" viewBox="0 0 590 84" fill="none" xmlns="http://www.w3.org/2000/svg">
<path d="M147.984 33.1946C146.591 29.325 144.501 25.9972 141.87 23.2112C139.161 20.5025 135.988 18.413 132.119 16.9425C128.327 15.5495 123.993 14.7756 119.194 14.7756C114.319 14.7756 109.908 15.5495 105.961 17.1747C102.014 18.7999 98.686 20.9669 95.8225 23.8303C93.0365 26.6164 90.8695 29.9442 89.3217 33.7363C87.7739 37.5284 87 41.6301 87 46.1188C87 50.5301 87.8513 54.6317 89.4765 58.4239C91.1017 62.216 93.2686 65.5438 96.0547 68.4073C98.8408 71.2707 102.014 73.4377 105.729 75.0629C109.443 76.6881 113.39 77.462 117.492 77.462C122.987 77.462 127.785 76.2237 131.887 73.8246C135.988 71.4255 139.239 68.1751 141.638 64.0734V74.4437C141.638 75.295 142.334 75.9916 143.186 75.9916H148.526C149.377 75.9916 150.073 75.295 150.073 74.4437V46.4283C150.151 41.4754 149.377 37.0641 147.984 33.1946ZM139.935 55.2509C138.774 58.1143 137.149 60.5134 135.137 62.6804C133.047 64.7699 130.648 66.4725 127.862 67.6334C125.076 68.7942 122.058 69.4134 118.808 69.4134C115.557 69.4134 112.462 68.7942 109.675 67.6334C106.812 66.4725 104.413 64.7699 102.323 62.6804C100.234 60.5908 98.6086 58.1143 97.4477 55.2509C96.2869 52.4648 95.6678 49.3692 95.6678 46.1188C95.6678 42.8684 96.2869 39.7728 97.4477 36.9093C98.6086 34.0459 100.234 31.5694 102.323 29.4798C104.413 27.3903 106.812 25.7651 109.675 24.6042C112.462 23.4433 115.557 22.8242 118.808 22.8242C125.927 22.8242 131.5 24.8364 135.601 28.8607C139.703 32.885 141.793 38.6119 141.793 46.1188C141.638 49.3692 141.019 52.3874 139.935 55.2509Z" fill="black"/>
<path d="M175.921 2.70259C174.761 1.54173 173.367 1 171.742 1C170.04 1 168.647 1.61913 167.486 2.70259C166.325 3.86345 165.783 5.25648 165.783 6.80429C165.783 8.50689 166.325 9.89992 167.486 11.0608C168.647 12.2216 170.04 12.7634 171.742 12.7634C173.367 12.7634 174.761 12.2216 175.921 11.0608C177.082 9.89992 177.701 8.50689 177.701 6.80429C177.701 5.25648 177.16 3.86345 175.921 2.70259ZM167.563 20.425V74.4437C167.563 75.295 168.26 75.9915 169.111 75.9915H174.296C175.147 75.9915 175.844 75.295 175.844 74.4437V20.425C175.844 18.1033 173.987 16.2459 171.665 16.2459C169.421 16.2459 167.563 18.1033 167.563 20.425Z" fill="black"/>
<path d="M253.699 33.7363C252.074 29.9442 249.907 26.6164 247.121 23.8303C244.335 20.9669 241.007 18.7999 237.292 17.1747C233.5 15.5495 229.398 14.7756 225.064 14.7756C220.498 14.7756 216.319 15.6269 212.45 17.2521C208.58 18.9547 205.252 21.199 202.312 24.1399C199.448 27.0807 197.204 30.5633 195.656 34.5876C194.031 38.6893 193.257 43.1006 193.257 47.8214V80.9445C193.257 81.7958 193.953 82.4924 194.805 82.4924H199.99C200.841 82.4924 201.538 81.7958 201.538 80.9445V63.7638C203.859 67.9429 207.032 71.1933 211.134 73.6698C215.236 76.1463 220.034 77.3846 225.529 77.3846C229.785 77.3846 233.732 76.6107 237.447 74.9855C241.162 73.3603 244.335 71.1933 247.121 68.3299C249.829 65.4664 251.996 62.1386 253.622 58.3465C255.247 54.5544 256.021 50.4527 256.021 46.0414C256.098 41.6301 255.324 37.5284 253.699 33.7363ZM245.96 55.2509C244.799 58.1143 243.096 60.5134 241.084 62.6804C238.995 64.7699 236.596 66.4725 233.81 67.6334C231.023 68.7942 228.005 69.4134 224.755 69.4134C221.504 69.4134 218.486 68.7942 215.7 67.6334C212.914 66.4725 210.515 64.7699 208.425 62.6804C206.336 60.5908 204.711 58.1143 203.55 55.2509C202.389 52.4648 201.77 49.3692 201.77 46.1188C201.77 42.8684 202.389 39.7728 203.55 36.9093C204.711 34.0459 206.413 31.5694 208.425 29.4798C210.515 27.3903 212.914 25.7651 215.7 24.6042C218.486 23.4433 221.504 22.8242 224.755 22.8242C228.005 22.8242 231.023 23.4433 233.81 24.6042C236.596 25.7651 238.995 27.4677 241.084 29.4798C243.174 31.5694 244.799 34.0459 245.96 36.9093C247.121 39.7728 247.74 42.8684 247.74 46.1188C247.74 49.3692 247.121 52.3874 245.96 55.2509Z" fill="black"/>
<path d="M292.781 45.2674L312.98 18.7225C313.753 17.7164 313.057 16.1686 311.741 16.1686H305.782C305.318 16.1686 304.854 16.4008 304.544 16.7877L287.75 38.5345L271.189 16.8651C270.879 16.4781 270.415 16.246 269.95 16.246H263.991C262.676 16.246 261.979 17.7164 262.753 18.7999L282.952 45.4222L261.437 73.515C260.663 74.5211 261.36 76.0689 262.676 76.0689H268.712C269.176 76.0689 269.641 75.8367 269.95 75.4497L287.75 52.0778L305.705 75.4497C306.014 75.8367 306.479 76.0689 306.943 76.0689H312.902C314.218 76.0689 314.914 74.5984 314.14 73.515L292.781 45.2674Z" fill="black"/>
<path d="M387.662 33.7363C386.037 29.9442 383.87 26.6164 381.084 23.8303C378.298 20.9669 374.97 18.7999 371.255 17.1747C367.541 15.5495 363.362 14.7756 359.028 14.7756C354.462 14.7756 350.283 15.6269 346.413 17.2521C342.544 18.9547 339.216 21.199 336.275 24.1399C333.411 27.0807 331.167 30.5633 329.619 34.5876C327.994 38.6893 327.22 43.1006 327.22 47.8214V80.9445C327.22 81.7958 327.917 82.4924 328.768 82.4924H333.953C334.805 82.4924 335.501 81.7958 335.501 80.9445V63.7638C337.823 67.9429 340.996 71.1933 345.097 73.6698C349.199 76.1463 353.997 77.3846 359.492 77.3846C363.749 77.3846 367.696 76.6107 371.41 74.9855C375.125 73.3603 378.298 71.1933 381.084 68.3299C383.793 65.4664 385.96 62.1386 387.585 58.3465C389.21 54.5544 389.984 50.4527 389.984 46.0414C390.061 41.6301 389.287 37.5284 387.662 33.7363ZM379.923 55.2509C378.762 58.1143 377.06 60.5134 375.048 62.6804C372.958 64.7699 370.559 66.4725 367.773 67.6334C364.987 68.7942 361.969 69.4134 358.718 69.4134C355.468 69.4134 352.45 68.7942 349.663 67.6334C346.877 66.4725 344.478 64.7699 342.389 62.6804C340.299 60.5908 338.674 58.1143 337.513 55.2509C336.352 52.4648 335.733 49.3692 335.733 46.1188C335.733 42.8684 336.352 39.7728 337.513 36.9093C338.674 34.0459 340.377 31.5694 342.389 29.4798C344.478 27.3903 346.877 25.7651 349.663 24.6042C352.45 23.4433 355.468 22.8242 358.718 22.8242C361.969 22.8242 364.987 23.4433 367.773 24.6042C370.559 25.7651 372.958 27.4677 375.048 29.4798C377.137 31.5694 378.762 34.0459 379.923 36.9093C381.084 39.7728 381.703 42.8684 381.703 46.1188C381.703 49.3692 381.084 52.3874 379.923 55.2509Z" fill="black"/>
<path d="M458.63 34.3553C457.237 30.5632 455.225 27.2354 452.671 24.2946C450.117 21.4311 446.944 19.1094 443.384 17.4068C439.747 15.7042 435.645 14.8529 431.157 14.8529C426.513 14.8529 422.334 15.7042 418.465 17.3294C414.672 18.9546 411.345 21.1989 408.636 23.985C405.927 26.7711 403.76 30.0988 402.213 33.891C400.665 37.6831 399.968 41.7848 399.968 46.1961C399.968 50.7621 400.742 54.9412 402.29 58.7334C403.838 62.5255 406.005 65.8533 408.791 68.6394C411.577 71.4254 414.905 73.5924 418.852 75.1402C422.721 76.688 427.055 77.4619 431.776 77.4619C434.717 77.4619 437.58 77.0749 440.366 76.301C443.152 75.5271 445.783 74.4436 448.183 73.0506C450.582 71.6576 452.749 69.8776 454.683 67.7881C456.076 66.3176 457.237 64.615 458.243 62.8351C458.785 61.829 458.089 60.5907 457.005 60.5133L451.588 60.049C450.969 59.9716 450.427 60.2812 450.117 60.8229C448.57 63.222 446.325 65.2342 443.384 66.8594C440.134 68.6394 436.342 69.568 431.853 69.568C425.739 69.568 420.554 67.8655 416.298 64.3829C412.041 60.9003 409.565 56.1795 408.791 50.143H460.565C460.642 49.5239 460.72 48.9048 460.72 48.2856C460.797 47.6665 460.797 47.0474 460.797 46.4283C460.72 42.0944 459.946 38.0701 458.63 34.3553ZM408.559 42.6361C408.868 39.6953 409.642 36.9866 410.88 34.5101C412.119 32.0336 413.744 29.9441 415.679 28.1641C417.613 26.3841 419.935 25.0685 422.489 24.0624C425.043 23.0563 427.906 22.592 431.002 22.592C433.633 22.592 436.11 23.0563 438.509 23.9076C440.908 24.7589 443.075 26.0745 444.932 27.6997C446.867 29.4023 448.415 31.4919 449.73 33.9684C450.969 36.4449 451.82 39.3857 452.13 42.6361H408.559Z" fill="black"/>
<path d="M536.872 27.4675V22.5145C536.872 21.6632 536.175 20.9667 535.324 20.9667H521.703V13.305C521.703 12.4537 521.007 11.7572 520.155 11.7572H514.815C513.964 11.7572 513.268 12.4537 513.268 13.305V64.3828C513.268 67.9428 513.732 70.8062 514.738 72.9732C515.744 75.1401 517.292 76.7653 519.304 77.9262C521.394 79.087 525.727 80.4027 529.52 80.1705C530.371 80.2479 531.067 79.6288 531.067 78.7775V74.134C531.067 73.4375 530.603 72.8958 529.907 72.741C529.133 72.5862 526.269 72.5088 525.495 72.1219C524.257 71.5028 523.174 70.7288 522.554 69.4906C521.935 68.3297 521.626 66.5498 521.626 64.228V29.0927H535.246C536.175 29.0927 536.872 28.3188 536.872 27.4675Z" fill="black"/>
<path d="M589.033 61.6742C589.033 62.1385 589.033 62.6029 588.955 63.0672C588.723 65.002 588.259 66.7046 587.408 68.4072C586.324 70.5741 584.854 72.5089 582.842 74.1341C580.907 75.7593 578.585 76.9975 575.954 77.9262C573.323 78.8549 570.382 79.3193 567.286 79.3193C564.81 79.3193 562.333 78.9323 559.779 78.2358C557.225 77.4619 554.904 76.3784 552.814 74.9854C550.724 73.5924 548.867 71.8898 547.397 69.8002C546.313 68.3298 545.539 66.7046 545.075 65.002C544.843 63.9959 545.462 62.9898 546.545 62.9898L551.653 62.7577C552.35 62.7577 552.969 63.1446 553.201 63.8411C553.588 64.9246 554.13 65.8533 554.826 66.6272C555.755 67.7107 556.916 68.562 558.231 69.3359C559.547 70.0324 561.017 70.5741 562.565 70.8063C564.113 71.1158 565.738 71.2706 567.286 71.2706C570.846 71.2706 573.864 70.4193 576.418 68.6394C578.43 67.2463 579.591 65.4663 580.055 63.1446C580.133 62.6803 580.133 62.2159 580.133 61.7516C580.133 59.2751 579.204 57.3403 577.424 55.9473C575.644 54.5543 573.4 53.4708 570.691 52.6195C567.983 51.7682 565.042 50.9169 561.946 50.143C558.773 49.3691 555.91 48.2856 553.201 47.0474C550.492 45.7317 548.248 44.0292 546.468 41.8622C544.688 39.6953 543.759 36.7544 543.759 33.0397C543.759 30.4084 544.301 27.9319 545.385 25.765C546.468 23.598 547.938 21.6633 549.951 20.0381C551.885 18.4129 554.207 17.1746 556.838 16.2459C559.47 15.3172 562.41 14.8529 565.506 14.8529C567.983 14.8529 570.459 15.2399 573.013 15.9364C575.567 16.7103 577.889 17.7937 579.978 19.1868C582.068 20.5798 583.925 22.2824 585.395 24.3719C586.479 25.8424 587.253 27.4676 587.717 29.1702C587.949 30.1762 587.33 31.1823 586.247 31.1823L581.139 31.4145C580.442 31.4145 579.823 31.0275 579.591 30.331C579.204 29.2476 578.662 28.3189 577.966 27.545C577.037 26.4615 575.876 25.6102 574.561 24.8363C573.245 24.1398 571.775 23.598 570.227 23.3659C568.679 23.0563 567.054 22.9015 565.506 22.9015C561.946 22.9015 558.928 23.7528 556.374 25.5328C553.82 27.3128 552.582 29.7893 552.582 32.9623C552.582 35.3614 553.511 37.2188 555.29 38.5344C557.07 39.8501 559.315 40.9335 562.023 41.8622C564.732 42.7135 567.596 43.5648 570.769 44.2613C573.942 45.0352 576.882 46.0413 579.514 47.2796C582.222 48.5952 584.467 50.2978 586.247 52.5421C588.181 54.8638 589.033 57.8821 589.033 61.6742Z" fill="black"/>
<path d="M506.767 17.2521V22.2051C506.767 23.0564 506.148 23.7529 505.297 23.7529C501.969 23.9851 499.183 24.4495 496.938 25.0686C493.456 26.0747 490.747 27.5451 488.89 29.6346C487.032 31.6468 485.872 34.2781 485.33 37.3737C484.788 40.5467 484.479 44.3388 484.479 48.8275V81.4863C484.479 82.3376 483.782 83.0341 482.931 83.0341H477.746C476.894 83.0341 476.198 82.3376 476.198 81.4863V52.4648V14.0017C476.198 13.1504 476.894 12.4539 477.746 12.4539H482.776C483.627 12.4539 484.324 13.1504 484.324 14.0017V22.5921C486.8 20.4251 490.051 18.7226 493.998 17.5617C497.171 16.633 500.808 16.0139 505.064 15.7043C505.993 15.6269 506.767 16.3234 506.767 17.2521Z" fill="black"/>
<mask id="mask0_2469_4698" style="mask-type:luminance" maskUnits="userSpaceOnUse" x="60" y="1" width="11" height="13">
<path d="M70.2555 5.73021C71.9017 4.08403 69.4324 2.35554 67.9508 1.69707C66.3047 0.956285 64.0823 1.45014 62.5184 3.01401C61.2015 4.33095 60.3784 6.14175 60.3784 8.19948C60.3784 10.2572 61.2015 12.1503 62.6008 13.4673C61.86 11.9034 61.7777 10.4218 62.5184 8.77564C63.0123 7.54101 63.8354 7.04715 64.8231 6.47099C65.3993 5.40097 66.5516 4.7425 67.7862 4.7425C68.7739 4.7425 69.6793 5.15404 70.2555 5.73021Z" fill="white"/>
</mask>
<g mask="url(#mask0_2469_4698)">
<path d="M76.866 8.30002L67.9941 -3.36349L55.4142 6.2054L64.286 17.8689L76.866 8.30002Z" fill="url(#paint0_linear_2469_4698)"/>
</g>
<mask id="mask1_2469_4698" style="mask-type:luminance" maskUnits="userSpaceOnUse" x="61" y="5" width="13" height="11">
<path d="M65.1501 5.97693C63.6686 6.14155 62.2693 7.12926 61.6931 8.61082C60.9524 10.257 61.3639 12.1501 62.5985 13.467C63.9155 14.784 65.7263 15.6071 67.784 15.6071C69.8417 15.6071 71.7348 14.784 73.0518 13.3847C70.9941 13.7963 70.0063 13.3024 68.3602 12.5616C67.2902 12.0678 67.2902 11.9855 66.714 11.4916C65.3147 11.0801 64.2447 9.76314 64.2447 8.19927C64.4093 7.37618 64.6563 6.6354 65.1501 5.97693Z" fill="white"/>
</mask>
<g mask="url(#mask1_2469_4698)">
<path d="M74.5731 13.2354L67.6704 3.00293L59.1433 8.75519L66.046 18.9877L74.5731 13.2354Z" fill="url(#paint1_linear_2469_4698)"/>
</g>
<mask id="mask2_2469_4698" style="mask-type:luminance" maskUnits="userSpaceOnUse" x="65" y="2" width="11" height="13">
<path d="M65.6455 10.8332C65.8101 12.3147 66.7978 13.714 68.2794 14.2902C69.9256 15.0309 71.8187 14.6194 73.1356 13.3848C74.4526 12.0678 75.2757 10.257 75.2757 8.19929C75.2757 6.14157 74.4526 4.24846 73.0533 2.93152C73.3825 4.74232 73.3002 5.97695 72.5595 7.62313C72.0656 8.69315 71.7364 8.69315 71.1602 9.26931C70.7487 10.6686 69.4317 11.6563 67.8678 11.6563C66.9624 11.6563 66.2217 11.327 65.6455 10.8332Z" fill="white"/>
</mask>
<g mask="url(#mask2_2469_4698)">
<path d="M76.1155 2.76654H65.8296V15.1096H76.1155V2.76654Z" fill="url(#paint2_linear_2469_4698)"/>
</g>
<mask id="mask3_2469_4698" style="mask-type:luminance" maskUnits="userSpaceOnUse" x="62" y="0" width="13" height="11">
<path d="M70.4983 10.3394C71.9799 10.1748 73.3792 9.18706 73.9553 7.70549C74.6961 6.05931 74.2846 4.16621 73.0499 2.84926C71.733 1.53232 69.9222 0.709229 67.8645 0.709229C65.8067 0.709229 63.9136 1.53232 62.5967 2.93157C63.8313 1.69694 65.8067 1.28539 67.4529 2.02617C68.8522 2.60234 69.8399 4.00159 70.0868 5.48315C70.8276 6.14162 71.3214 7.04702 71.3214 8.11704C71.2391 9.02244 70.9922 9.76322 70.4983 10.3394Z" fill="white"/>
</mask>
<g mask="url(#mask3_2469_4698)">
<path d="M59.537 6.1006L72.4785 13.6788L78.0911 4.09397L65.1496 -3.4842L59.537 6.1006Z" fill="url(#paint3_linear_2469_4698)"/>
</g>
<path opacity="0.3" fill-rule="evenodd" clip-rule="evenodd" d="M65.149 5.97693C63.6675 6.14155 62.2682 7.12926 61.692 8.61082C61.0336 10.1747 61.3628 11.9855 62.4328 13.3024C61.692 12.2324 61.6097 10.8332 62.1859 9.68083C62.2682 9.59852 62.2682 9.43391 62.3505 9.3516C62.8444 8.61082 63.5028 8.11696 64.3259 7.78773C64.4905 7.12926 64.7375 6.55309 65.149 5.97693Z" fill="#005C01"/>
<path opacity="0.3" fill-rule="evenodd" clip-rule="evenodd" d="M72.3108 8.03479C71.9816 8.28172 71.57 8.44634 71.2408 8.61096C71.1585 9.26943 70.9115 9.9279 70.5 10.4218C71.9816 10.2571 73.3808 9.26943 73.957 7.78787C74.6154 6.22399 74.2862 4.4132 73.2162 3.09625C74.0393 4.33089 74.0393 5.81245 73.2985 7.04708C72.9693 7.45863 72.64 7.70556 72.3108 8.03479Z" fill="#300C50"/>
<path opacity="0.3" fill-rule="evenodd" clip-rule="evenodd" d="M67.7032 12.2325C67.6209 12.0679 67.5386 11.821 67.4563 11.574C66.7978 11.4917 66.1394 11.2448 65.6455 10.8333C65.8101 12.3148 66.7978 13.7141 68.2794 14.2902C69.8433 14.9487 71.6541 14.6195 72.971 13.5494C71.7364 14.3725 70.2548 14.3725 69.0202 13.6318C68.444 13.2202 68.0325 12.8087 67.7032 12.2325Z" fill="#300C50"/>
<path fill-rule="evenodd" clip-rule="evenodd" d="M73.959 7.7879C73.3828 9.18716 71.9835 10.1749 70.502 10.4218C69.8435 11.1626 68.9381 11.6564 67.8681 11.6564C67.7035 11.6564 67.6212 11.6564 67.4565 11.6564C67.5389 11.9034 67.6212 12.068 67.7035 12.3149C67.9504 12.8088 68.3619 13.2203 68.8558 13.5495C69.2673 13.5495 69.7612 13.4672 70.1727 13.3026C71.9835 12.8088 73.4651 11.4095 74.2059 9.68101C75.029 7.70559 74.782 5.48325 73.6297 3.67245C74.3705 4.82478 74.5351 6.38865 73.959 7.7879Z" fill="#E00000"/>
<path fill-rule="evenodd" clip-rule="evenodd" d="M68.2763 14.2901C66.877 13.714 65.8893 12.3147 65.6424 10.8332C64.9016 10.1747 64.4078 9.26928 64.4078 8.19926C64.4078 8.03465 64.4078 7.95234 64.4078 7.78772C64.1608 7.87003 63.9962 7.95234 63.7493 8.03465C63.2554 8.28157 62.8439 8.69312 62.5146 9.18697C62.5146 9.59852 62.597 10.0924 62.7616 10.5039C63.2554 12.3147 64.6547 13.7963 66.3832 14.5371C68.3586 15.3601 70.5809 15.1132 72.3917 13.9609C71.1571 14.784 69.5932 14.8663 68.2763 14.2901Z" fill="#E00000"/>
<path fill-rule="evenodd" clip-rule="evenodd" d="M61.693 8.6109C62.2692 7.21165 63.6684 6.22394 65.15 5.97701C65.8085 5.23623 66.7139 4.74238 67.7839 4.74238C67.9485 4.74238 68.0308 4.74238 68.1954 4.74238C68.1131 4.49545 68.0308 4.33084 67.9485 4.08391C67.7016 3.59005 67.29 3.17851 66.7962 2.84927C66.3846 2.84927 65.8908 2.93158 65.4792 3.0962C63.6684 3.59005 62.1869 4.98931 61.4461 6.7178C60.623 8.69321 60.8699 10.9156 62.0223 12.7264C61.2815 11.4917 61.1169 10.0102 61.693 8.6109Z" fill="#E00000"/>
<path d="M40.6228 12.644L44.3267 16.0187L79.555 75.4458C80.7896 77.4212 79.308 79.9728 76.9211 79.9728H68.6902C67.6202 79.9728 66.6325 79.3966 66.0563 78.4912L30.9927 18.3234L40.6228 12.644Z" fill="url(#paint4_linear_2469_4698)"/>
<path d="M31.7329 62.1942L37.9884 66.2273C39.3877 67.1327 39.7992 68.8612 38.9761 70.2604L38.7292 70.7543C36.8361 73.9643 34.4491 76.8452 31.4037 79.0675C19.0574 88.0392 8.68642 79.3144 8.68642 79.3144C-5.47072 69.1081 1.93709 53.7986 1.93709 53.7986L23.5843 17.0065C25.4774 13.8788 28.5229 11.5741 32.1445 10.9157C41.4454 9.26948 44.7377 16.8419 44.9024 17.3358C39.7992 14.8665 36.8361 19.7227 36.8361 19.7227L15.1888 57.5849C10.6618 64.5811 16.2588 68.1204 16.2588 68.1204C22.1851 72.3182 26.5475 64.828 26.5475 64.828L27.4529 63.2642C28.3583 61.7826 30.2514 61.2888 31.7329 62.1942Z" fill="url(#paint5_linear_2469_4698)"/>
<path d="M64.4093 26.1428L45.7252 58.6549C44.9021 60.1364 42.9267 60.6303 41.4451 59.7249L35.1897 55.6917C33.7904 54.7864 33.3789 53.0579 34.2019 51.6586L50.5814 23.3443C54.2853 15.6073 58.4831 15.6896 58.4831 15.6896C62.3516 15.278 65.2324 18.5704 65.644 20.9574C65.8086 22.7682 65.3147 24.579 64.4093 26.1428Z" fill="url(#paint6_linear_2469_4698)"/>
<path opacity="0.3" d="M44.4097 16.3481C44.4097 16.3481 36.0965 12.3149 33.3803 16.1835L15.1901 44.7447L9.51074 40.7939L24.3264 15.9365C24.3264 15.9365 29.7587 7.95256 39.4712 11.7388C41.282 12.3973 43.0105 14.0434 44.4097 16.3481Z" fill="url(#paint7_linear_2469_4698)"/>
<path opacity="0.3" d="M62.5173 17.3357C62.5173 17.3357 67.3735 19.0642 64.7396 25.4843L45.2578 59.339L42.7062 57.6105C41.3892 56.7051 41.06 54.9766 41.8008 53.6597L62.5173 17.3357Z" fill="url(#paint8_linear_2469_4698)"/>
<defs>
<linearGradient id="paint0_linear_2469_4698" x1="61.7736" y1="7.26807" x2="75.8578" y2="4.13859" gradientUnits="userSpaceOnUse">
<stop stop-color="#E00000"/>
<stop offset="1"/>
</linearGradient>
<linearGradient id="paint1_linear_2469_4698" x1="63.7388" y1="10.4262" x2="73.1713" y2="8.00191" gradientUnits="userSpaceOnUse">
<stop stop-color="#E00000"/>
<stop offset="1"/>
</linearGradient>
<linearGradient id="paint2_linear_2469_4698" x1="69.1256" y1="11.6594" x2="74.1604" y2="1.83467" gradientUnits="userSpaceOnUse">
<stop stop-color="#E00000"/>
<stop offset="1"/>
</linearGradient>
<linearGradient id="paint3_linear_2469_4698" x1="72.3752" y1="4.34485" x2="64.4779" y2="11.4798" gradientUnits="userSpaceOnUse">
<stop stop-color="#E00000"/>
<stop offset="1"/>
</linearGradient>
<linearGradient id="paint4_linear_2469_4698" x1="65.7476" y1="75.7776" x2="42.9417" y2="12.8915" gradientUnits="userSpaceOnUse">
<stop stop-color="#E00000"/>
<stop offset="1"/>
</linearGradient>
<linearGradient id="paint5_linear_2469_4698" x1="18.8094" y1="64.5633" x2="49.316" y2="13.3915" gradientUnits="userSpaceOnUse">
<stop stop-color="#E00000"/>
<stop offset="1"/>
</linearGradient>
<linearGradient id="paint6_linear_2469_4698" x1="44.0011" y1="47.7333" x2="63.6827" y2="14.7193" gradientUnits="userSpaceOnUse">
<stop stop-color="#E00000"/>
<stop offset="1"/>
</linearGradient>
<linearGradient id="paint7_linear_2469_4698" x1="14.4765" y1="35.2658" x2="39.6441" y2="11.0934" gradientUnits="userSpaceOnUse">
<stop stop-color="#E00000" stop-opacity="0"/>
<stop offset="0.6089" stop-color="#070707"/>
</linearGradient>
<linearGradient id="paint8_linear_2469_4698" x1="39.1094" y1="40.4466" x2="65.541" y2="40.4466" gradientUnits="userSpaceOnUse">
<stop stop-color="#E00000" stop-opacity="0"/>
<stop offset="0.6089" stop-color="#070707"/>
</linearGradient>
</defs>
</svg>
