<svg width="134" height="48" viewBox="0 0 134 48" fill="none" xmlns="http://www.w3.org/2000/svg">
<rect width="134" height="48" rx="6" fill="#F9EBEA"/>
<path d="M46.496 30L51.04 18.896H52.128L56.656 30H55.024L51.296 20.608H51.856L48.096 30H46.496ZM48.656 27.488V26.176H54.496V27.488H48.656ZM63.7326 30V25.568C63.7326 24.992 63.5513 24.5173 63.1886 24.144C62.826 23.7707 62.3566 23.584 61.7806 23.584C61.3966 23.584 61.0553 23.6693 60.7566 23.84C60.458 24.0107 60.2233 24.2453 60.0526 24.544C59.882 24.8427 59.7966 25.184 59.7966 25.568L59.2046 25.232C59.2046 24.656 59.3326 24.144 59.5886 23.696C59.8446 23.248 60.202 22.896 60.6606 22.64C61.1193 22.3733 61.6366 22.24 62.2126 22.24C62.7886 22.24 63.2953 22.384 63.7326 22.672C64.1806 22.96 64.5326 23.3387 64.7886 23.808C65.0446 24.2667 65.1726 24.7573 65.1726 25.28V30H63.7326ZM58.3566 30V22.4H59.7966V30H58.3566ZM70.4342 33.344C69.6556 33.344 68.9622 33.2 68.3542 32.912C67.7569 32.624 67.2769 32.2187 66.9142 31.696L67.8422 30.752C68.1516 31.1467 68.5196 31.4453 68.9462 31.648C69.3729 31.8613 69.8796 31.968 70.4662 31.968C71.2449 31.968 71.8583 31.76 72.3063 31.344C72.7649 30.9387 72.9942 30.3893 72.9942 29.696V27.808L73.2502 26.096L72.9942 24.4V22.4H74.4342V29.696C74.4342 30.4213 74.2636 31.056 73.9223 31.6C73.5916 32.144 73.1222 32.5707 72.5142 32.88C71.9169 33.1893 71.2236 33.344 70.4342 33.344ZM70.4342 29.872C69.7409 29.872 69.1169 29.7067 68.5622 29.376C68.0182 29.0453 67.5862 28.592 67.2662 28.016C66.9462 27.4293 66.7862 26.7733 66.7862 26.048C66.7862 25.3227 66.9462 24.6773 67.2662 24.112C67.5862 23.536 68.0182 23.0827 68.5622 22.752C69.1169 22.4107 69.7409 22.24 70.4342 22.24C71.0316 22.24 71.5596 22.3573 72.0182 22.592C72.4769 22.8267 72.8396 23.1573 73.1062 23.584C73.3836 24 73.5329 24.4907 73.5543 25.056V27.072C73.5223 27.6267 73.3676 28.1173 73.0903 28.544C72.8236 28.96 72.4609 29.2853 72.0023 29.52C71.5436 29.7547 71.0209 29.872 70.4342 29.872ZM70.7222 28.512C71.1916 28.512 71.6022 28.4107 71.9542 28.208C72.3169 28.0053 72.5943 27.7227 72.7863 27.36C72.9783 26.9867 73.0743 26.5547 73.0743 26.064C73.0743 25.5733 72.9729 25.1467 72.7702 24.784C72.5783 24.4107 72.3063 24.1227 71.9542 23.92C71.6022 23.7067 71.1862 23.6 70.7062 23.6C70.2262 23.6 69.8049 23.7067 69.4422 23.92C69.0796 24.1227 68.7916 24.4107 68.5782 24.784C68.3756 25.1467 68.2742 25.568 68.2742 26.048C68.2742 26.528 68.3756 26.9547 68.5782 27.328C68.7916 27.7013 69.0796 27.9947 69.4422 28.208C69.8156 28.4107 70.2422 28.512 70.7222 28.512ZM79.7799 30.16C79.1505 30.16 78.5852 30.0213 78.0839 29.744C77.5932 29.456 77.2092 29.0613 76.9319 28.56C76.6545 28.0587 76.5159 27.4773 76.5159 26.816V22.4H77.9559V26.752C77.9559 27.168 78.0252 27.5307 78.1639 27.84C78.3132 28.1387 78.5265 28.368 78.8039 28.528C79.0812 28.688 79.4065 28.768 79.7799 28.768C80.3452 28.768 80.7879 28.592 81.1079 28.24C81.4279 27.8773 81.5879 27.3813 81.5879 26.752V22.4H83.0279V26.816C83.0279 27.4773 82.8892 28.0587 82.6119 28.56C82.3345 29.0613 81.9505 29.456 81.4599 29.744C80.9799 30.0213 80.4199 30.16 79.7799 30.16ZM85.1179 30V18.576H86.5579V30H85.1179ZM92.0567 30.16C91.3634 30.16 90.7341 29.9893 90.1687 29.648C89.6034 29.296 89.1554 28.8213 88.8247 28.224C88.5047 27.6267 88.3447 26.9547 88.3447 26.208C88.3447 25.4613 88.5047 24.7893 88.8247 24.192C89.1554 23.5947 89.5981 23.12 90.1527 22.768C90.7181 22.416 91.3527 22.24 92.0567 22.24C92.6327 22.24 93.1447 22.3627 93.5927 22.608C94.0514 22.8427 94.4194 23.1733 94.6967 23.6C94.9741 24.016 95.1287 24.5013 95.1607 25.056V27.344C95.1287 27.888 94.9741 28.3733 94.6967 28.8C94.4301 29.2267 94.0674 29.5627 93.6087 29.808C93.1607 30.0427 92.6434 30.16 92.0567 30.16ZM92.2967 28.8C93.0114 28.8 93.5874 28.56 94.0247 28.08C94.4621 27.5893 94.6807 26.9653 94.6807 26.208C94.6807 25.6853 94.5794 25.232 94.3767 24.848C94.1847 24.4533 93.9074 24.1493 93.5447 23.936C93.1821 23.712 92.7607 23.6 92.2807 23.6C91.8007 23.6 91.3741 23.712 91.0007 23.936C90.6381 24.16 90.3501 24.4693 90.1367 24.864C89.9341 25.248 89.8327 25.6907 89.8327 26.192C89.8327 26.704 89.9341 27.1573 90.1367 27.552C90.3501 27.936 90.6434 28.24 91.0167 28.464C91.3901 28.688 91.8167 28.8 92.2967 28.8ZM94.5847 30V27.952L94.8567 26.096L94.5847 24.256V22.4H96.0407V30H94.5847ZM98.2972 30V22.4H99.7372V30H98.2972ZM99.7372 25.664L99.1932 25.424C99.1932 24.4533 99.4172 23.68 99.8652 23.104C100.313 22.528 100.959 22.24 101.801 22.24C102.185 22.24 102.532 22.3093 102.841 22.448C103.151 22.576 103.439 22.7947 103.705 23.104L102.761 24.08C102.601 23.9093 102.425 23.7867 102.233 23.712C102.041 23.6373 101.817 23.6 101.561 23.6C101.028 23.6 100.591 23.7707 100.249 24.112C99.9079 24.4533 99.7372 24.9707 99.7372 25.664ZM105.19 30.16C104.891 30.16 104.641 30.0587 104.438 29.856C104.246 29.6427 104.15 29.392 104.15 29.104C104.15 28.8053 104.246 28.56 104.438 28.368C104.641 28.1653 104.891 28.064 105.19 28.064C105.489 28.064 105.734 28.1653 105.926 28.368C106.129 28.56 106.23 28.8053 106.23 29.104C106.23 29.392 106.129 29.6427 105.926 29.856C105.734 30.0587 105.489 30.16 105.19 30.16ZM108.345 33.344C107.854 33.344 107.443 33.264 107.113 33.104C106.771 32.944 106.467 32.7147 106.201 32.416L107.129 31.472C107.278 31.6533 107.443 31.7867 107.625 31.872C107.795 31.9573 108.003 32 108.249 32C108.569 32 108.846 31.8987 109.081 31.696C109.315 31.504 109.433 31.2107 109.433 30.816V22.4H110.873V30.8C110.873 31.3547 110.755 31.8187 110.521 32.192C110.286 32.5653 109.977 32.848 109.593 33.04C109.209 33.2427 108.793 33.344 108.345 33.344ZM110.169 20.88C109.913 20.88 109.699 20.7947 109.529 20.624C109.358 20.4427 109.273 20.2187 109.273 19.952C109.273 19.696 109.358 19.4827 109.529 19.312C109.699 19.1307 109.913 19.04 110.169 19.04C110.435 19.04 110.654 19.1307 110.825 19.312C110.995 19.4827 111.081 19.696 111.081 19.952C111.081 20.2187 110.995 20.4427 110.825 20.624C110.654 20.7947 110.435 20.88 110.169 20.88ZM115.568 30.16C115.142 30.16 114.736 30.1067 114.352 30C113.979 29.8827 113.632 29.7227 113.312 29.52C112.992 29.3067 112.715 29.056 112.48 28.768L113.408 27.84C113.686 28.1813 114.006 28.4373 114.368 28.608C114.731 28.768 115.136 28.848 115.584 28.848C116.032 28.848 116.379 28.7733 116.624 28.624C116.87 28.464 116.992 28.2453 116.992 27.968C116.992 27.6907 116.891 27.4773 116.688 27.328C116.496 27.168 116.246 27.04 115.936 26.944C115.627 26.8373 115.296 26.736 114.944 26.64C114.603 26.5333 114.278 26.4 113.968 26.24C113.659 26.08 113.403 25.8613 113.2 25.584C113.008 25.3067 112.912 24.9387 112.912 24.48C112.912 24.0213 113.024 23.6267 113.248 23.296C113.472 22.9547 113.782 22.6933 114.176 22.512C114.582 22.3307 115.067 22.24 115.632 22.24C116.23 22.24 116.758 22.3467 117.216 22.56C117.686 22.7627 118.07 23.072 118.368 23.488L117.44 24.416C117.227 24.1387 116.96 23.9253 116.64 23.776C116.331 23.6267 115.979 23.552 115.584 23.552C115.168 23.552 114.848 23.6267 114.624 23.776C114.411 23.9147 114.304 24.112 114.304 24.368C114.304 24.624 114.4 24.8213 114.592 24.96C114.784 25.0987 115.035 25.216 115.344 25.312C115.664 25.408 115.995 25.5093 116.336 25.616C116.678 25.712 117.003 25.8453 117.312 26.016C117.622 26.1867 117.872 26.416 118.064 26.704C118.267 26.992 118.368 27.3707 118.368 27.84C118.368 28.5547 118.112 29.12 117.6 29.536C117.099 29.952 116.422 30.16 115.568 30.16Z" fill="black"/>
<path d="M12 16.0227L23.7606 12L35.8379 15.9511L33.8824 30.8886L23.7606 36.27L13.7972 30.9601L12 16.0227Z" fill="#E23237"/>
<path d="M35.839 15.9511L23.7617 12V36.27L33.8835 30.8975L35.839 15.9511Z" fill="#B52E31"/>
<path d="M23.7774 14.8335L16.4492 30.4861L19.1868 30.4414L20.6581 26.9103H27.2321L28.8431 30.4861L31.4596 30.5308L23.7774 14.8335ZM23.7961 19.8484L26.273 24.8186H21.6171L23.7961 19.8484Z" fill="white"/>
</svg>
