<svg width="91" height="48" viewBox="0 0 91 48" fill="none" xmlns="http://www.w3.org/2000/svg">
<rect width="91" height="48" rx="6" fill="#F3F3F3"/>
<path d="M46.496 30L51.04 18.896H52.128L56.656 30H55.024L51.296 20.608H51.856L48.096 30H46.496ZM48.656 27.488V26.176H54.496V27.488H48.656ZM60.0852 30L56.4532 18.896H57.9572L60.8373 27.952H60.4053L63.2373 18.896H64.3253L67.1573 27.952H66.7413L69.6213 18.896H71.1093L67.4933 30H66.4213L63.5733 20.96H63.9893L61.1572 30H60.0852ZM75.6731 30.16C74.7985 30.16 74.0518 30 73.4331 29.68C72.8145 29.36 72.2651 28.896 71.7851 28.288L72.8091 27.264C73.1611 27.7547 73.5665 28.128 74.0251 28.384C74.4838 28.6293 75.0491 28.752 75.7211 28.752C76.3825 28.752 76.9105 28.608 77.3051 28.32C77.7105 28.032 77.9131 27.6373 77.9131 27.136C77.9131 26.72 77.8171 26.384 77.6251 26.128C77.4331 25.872 77.1718 25.664 76.8411 25.504C76.5211 25.3333 76.1691 25.184 75.7851 25.056C75.4011 24.9173 75.0171 24.7733 74.6331 24.624C74.2491 24.464 73.8971 24.272 73.5771 24.048C73.2571 23.8133 72.9958 23.5093 72.7931 23.136C72.6011 22.7627 72.5051 22.2933 72.5051 21.728C72.5051 21.0987 72.6545 20.5653 72.9531 20.128C73.2625 19.68 73.6785 19.3387 74.2011 19.104C74.7345 18.8587 75.3318 18.736 75.9931 18.736C76.7185 18.736 77.3691 18.88 77.9451 19.168C78.5211 19.4453 78.9905 19.8133 79.3531 20.272L78.3291 21.296C77.9985 20.912 77.6411 20.624 77.2571 20.432C76.8838 20.24 76.4518 20.144 75.9611 20.144C75.3638 20.144 74.8891 20.2773 74.5371 20.544C74.1851 20.8 74.0091 21.1627 74.0091 21.632C74.0091 22.0053 74.1051 22.3093 74.2971 22.544C74.4998 22.768 74.7611 22.96 75.0811 23.12C75.4011 23.28 75.7531 23.4293 76.1371 23.568C76.5318 23.696 76.9211 23.84 77.3051 24C77.6891 24.16 78.0411 24.3627 78.3611 24.608C78.6811 24.8533 78.9371 25.1733 79.1291 25.568C79.3318 25.952 79.4331 26.4373 79.4331 27.024C79.4331 28.0053 79.0918 28.7733 78.4091 29.328C77.7371 29.8827 76.8251 30.16 75.6731 30.16Z" fill="black"/>
<path d="M18.5584 22.0555C18.5584 22.3419 18.5893 22.5742 18.6435 22.7445C18.7055 22.9148 18.7829 23.1007 18.8913 23.3019C18.93 23.3639 18.9455 23.4258 18.9455 23.48C18.9455 23.5574 18.899 23.6349 18.7984 23.7123L18.3106 24.0374C18.2409 24.0839 18.1713 24.1071 18.1093 24.1071C18.0319 24.1071 17.9545 24.0684 17.8771 23.9987C17.7687 23.8826 17.6758 23.7587 17.5984 23.6349C17.5209 23.5032 17.4435 23.3561 17.3584 23.1781C16.7545 23.8903 15.9958 24.2465 15.0822 24.2465C14.4319 24.2465 13.9132 24.0607 13.5338 23.689C13.1545 23.3174 12.9609 22.8219 12.9609 22.2026C12.9609 21.5445 13.1932 21.0103 13.6655 20.6077C14.1377 20.2052 14.7648 20.0039 15.5622 20.0039C15.8255 20.0039 16.0964 20.0271 16.3829 20.0658C16.6693 20.1045 16.9635 20.1665 17.2732 20.2361V19.671C17.2732 19.0826 17.1493 18.6723 16.9093 18.4323C16.6616 18.1923 16.2435 18.0761 15.6474 18.0761C15.3764 18.0761 15.0977 18.1071 14.8113 18.1768C14.5248 18.2465 14.2461 18.3316 13.9751 18.44C13.8513 18.4942 13.7584 18.5252 13.7042 18.5406C13.65 18.5561 13.6113 18.5639 13.5803 18.5639C13.4719 18.5639 13.4177 18.4865 13.4177 18.3239V17.9445C13.4177 17.8206 13.4332 17.7277 13.4719 17.6735C13.5106 17.6194 13.5803 17.5652 13.6887 17.511C13.9596 17.3716 14.2848 17.2555 14.6642 17.1626C15.0435 17.0619 15.4461 17.0155 15.8719 17.0155C16.7932 17.0155 17.4668 17.2245 17.9003 17.6426C18.3261 18.0606 18.5429 18.6955 18.5429 19.5471V22.0555H18.5584ZM15.4151 23.2323C15.6706 23.2323 15.9338 23.1858 16.2126 23.0929C16.4913 23 16.739 22.8297 16.948 22.5974C17.0719 22.4503 17.1648 22.2878 17.2113 22.1019C17.2577 21.9161 17.2887 21.6916 17.2887 21.4284V21.1032C17.0642 21.049 16.8242 21.0026 16.5764 20.9716C16.3287 20.9407 16.0887 20.9252 15.8487 20.9252C15.33 20.9252 14.9506 21.0258 14.6951 21.2348C14.4396 21.4439 14.3158 21.7381 14.3158 22.1252C14.3158 22.489 14.4087 22.76 14.6022 22.9458C14.788 23.1394 15.059 23.2323 15.4151 23.2323ZM21.6319 24.0684C21.4926 24.0684 21.3997 24.0452 21.3377 23.991C21.2758 23.9445 21.2216 23.8361 21.1751 23.689L19.3558 17.7045C19.3093 17.5497 19.2861 17.449 19.2861 17.3948C19.2861 17.271 19.348 17.2013 19.4719 17.2013H20.2306C20.3777 17.2013 20.4784 17.2245 20.5326 17.2787C20.5945 17.3252 20.641 17.4335 20.6874 17.5806L21.9881 22.7058L23.1958 17.5806C23.2345 17.4258 23.281 17.3252 23.3429 17.2787C23.4048 17.2323 23.5132 17.2013 23.6526 17.2013H24.2719C24.419 17.2013 24.5197 17.2245 24.5816 17.2787C24.6435 17.3252 24.6977 17.4335 24.7287 17.5806L25.9519 22.7678L27.2913 17.5806C27.3377 17.4258 27.3919 17.3252 27.4461 17.2787C27.5081 17.2323 27.6087 17.2013 27.7481 17.2013H28.4681C28.5919 17.2013 28.6616 17.2632 28.6616 17.3948C28.6616 17.4335 28.6539 17.4723 28.6461 17.5187C28.6384 17.5652 28.6229 17.6271 28.5919 17.7123L26.7261 23.6968C26.6797 23.8516 26.6255 23.9523 26.5635 23.9987C26.5016 24.0452 26.401 24.0761 26.2693 24.0761H25.6035C25.4564 24.0761 25.3558 24.0529 25.2939 23.9987C25.2319 23.9445 25.1777 23.8439 25.1468 23.689L23.9468 18.6955L22.7545 23.6813C22.7158 23.8361 22.6693 23.9368 22.6074 23.991C22.5455 24.0452 22.4371 24.0684 22.2977 24.0684H21.6319ZM31.5803 24.2774C31.1777 24.2774 30.7752 24.231 30.3881 24.1381C30.001 24.0452 29.699 23.9445 29.4977 23.8284C29.3739 23.7587 29.2887 23.6813 29.2577 23.6116C29.2268 23.5419 29.2113 23.4645 29.2113 23.3948V23C29.2113 22.8374 29.2732 22.76 29.3894 22.76C29.4358 22.76 29.4823 22.7678 29.5287 22.7832C29.5752 22.7987 29.6448 22.8297 29.7223 22.8607C29.9855 22.9768 30.2719 23.0697 30.5739 23.1316C30.8836 23.1936 31.1855 23.2245 31.4952 23.2245C31.9829 23.2245 32.3623 23.1394 32.6255 22.969C32.8887 22.7987 33.0281 22.551 33.0281 22.2336C33.0281 22.0168 32.9584 21.8387 32.819 21.6916C32.6797 21.5445 32.4165 21.4129 32.0371 21.289L30.9145 20.9407C30.3494 20.7626 29.9313 20.4994 29.6758 20.151C29.4203 19.8103 29.2887 19.431 29.2887 19.0284C29.2887 18.7032 29.3584 18.4168 29.4977 18.169C29.6371 17.9213 29.8229 17.7045 30.0552 17.5342C30.2874 17.3561 30.5506 17.2245 30.8603 17.1316C31.17 17.0387 31.4952 17 31.8358 17C32.0061 17 32.1842 17.0077 32.3545 17.031C32.5326 17.0542 32.6952 17.0852 32.8577 17.1161C33.0126 17.1548 33.1597 17.1935 33.299 17.24C33.4384 17.2865 33.5468 17.3329 33.6242 17.3794C33.7326 17.4413 33.81 17.5032 33.8565 17.5729C33.9029 17.6348 33.9261 17.72 33.9261 17.8284V18.1923C33.9261 18.3548 33.8642 18.44 33.7481 18.44C33.6861 18.44 33.5855 18.409 33.4539 18.3471C33.0126 18.1458 32.5171 18.0452 31.9674 18.0452C31.5261 18.0452 31.1777 18.1148 30.9377 18.2619C30.6977 18.409 30.5739 18.6336 30.5739 18.951C30.5739 19.1677 30.6513 19.3536 30.8061 19.5006C30.961 19.6477 31.2474 19.7948 31.6577 19.9265L32.7571 20.2748C33.3145 20.4529 33.7171 20.7007 33.9571 21.0181C34.1971 21.3355 34.3132 21.6994 34.3132 22.1019C34.3132 22.4348 34.2436 22.7368 34.1119 23C33.9726 23.2632 33.7868 23.4955 33.5468 23.6813C33.3068 23.8749 33.0203 24.0142 32.6874 24.1149C32.339 24.2232 31.9752 24.2774 31.5803 24.2774Z" fill="#252F3E"/>
<path fill-rule="evenodd" clip-rule="evenodd" d="M33.0451 28.0401C30.498 29.9214 26.7973 30.9201 23.6154 30.9201C19.156 30.9201 15.138 29.2711 12.1031 26.5304C11.8631 26.3137 12.0799 26.0195 12.3664 26.1898C15.6489 28.0943 19.698 29.2479 23.8864 29.2479C26.7122 29.2479 29.8167 28.6595 32.6735 27.4517C33.0993 27.2582 33.4632 27.7304 33.0451 28.0401Z" fill="#FF9900"/>
<path fill-rule="evenodd" clip-rule="evenodd" d="M34.1087 26.8321C33.7835 26.4141 31.9564 26.6308 31.128 26.7315C30.8803 26.7625 30.8416 26.5457 31.0661 26.3831C32.5216 25.3612 34.9139 25.6554 35.1926 25.996C35.4713 26.3444 35.1151 28.7366 33.7526 29.8825C33.5435 30.0605 33.3422 29.9676 33.4351 29.7354C33.7448 28.9689 34.4339 27.2425 34.1087 26.8321Z" fill="#FF9900"/>
</svg>
