<svg width="170" height="48" viewBox="0 0 170 48" fill="none" xmlns="http://www.w3.org/2000/svg">
<rect width="170" height="48" rx="6" fill="#EDF7FF"/>
<path d="M47.312 30V18.896H48.368L53.072 26.624H52.352L57.056 18.896H58.112V30H56.608V21.536L56.96 21.632L53.248 27.728H52.192L48.48 21.632L48.816 21.536V30H47.312ZM60.6539 30V22.4H62.0939V30H60.6539ZM61.3739 20.88C61.1072 20.88 60.8885 20.7947 60.7179 20.624C60.5472 20.4427 60.4619 20.2187 60.4619 19.952C60.4619 19.696 60.5472 19.4827 60.7179 19.312C60.8885 19.1307 61.1072 19.04 61.3739 19.04C61.6405 19.04 61.8592 19.1307 62.0299 19.312C62.2005 19.4827 62.2859 19.696 62.2859 19.952C62.2859 20.2187 62.2005 20.4427 62.0299 20.624C61.8592 20.7947 61.6405 20.88 61.3739 20.88ZM67.848 30.16C67.1013 30.16 66.424 29.984 65.816 29.632C65.2187 29.28 64.744 28.8053 64.392 28.208C64.0507 27.6 63.88 26.928 63.88 26.192C63.88 25.4453 64.0507 24.7733 64.392 24.176C64.744 23.5787 65.2187 23.1093 65.816 22.768C66.424 22.416 67.1013 22.24 67.848 22.24C68.4347 22.24 68.9787 22.352 69.48 22.576C69.9813 22.7893 70.4133 23.104 70.776 23.52L69.816 24.48C69.5813 24.2027 69.2933 23.9947 68.952 23.856C68.6213 23.7067 68.2533 23.632 67.848 23.632C67.368 23.632 66.9413 23.744 66.568 23.968C66.1947 24.1813 65.9013 24.48 65.688 24.864C65.4747 25.248 65.368 25.6907 65.368 26.192C65.368 26.6933 65.4747 27.136 65.688 27.52C65.9013 27.904 66.1947 28.208 66.568 28.432C66.9413 28.656 67.368 28.768 67.848 28.768C68.2533 28.768 68.6213 28.6987 68.952 28.56C69.2933 28.4107 69.5867 28.1973 69.832 27.92L70.776 28.88C70.424 29.2853 69.992 29.6 69.48 29.824C68.9787 30.048 68.4347 30.16 67.848 30.16ZM72.3641 30V22.4H73.8041V30H72.3641ZM73.8041 25.664L73.2601 25.424C73.2601 24.4533 73.4841 23.68 73.9321 23.104C74.3801 22.528 75.0255 22.24 75.8681 22.24C76.2521 22.24 76.5988 22.3093 76.9081 22.448C77.2175 22.576 77.5055 22.7947 77.7721 23.104L76.8281 24.08C76.6681 23.9093 76.4921 23.7867 76.3001 23.712C76.1081 23.6373 75.8841 23.6 75.6281 23.6C75.0948 23.6 74.6575 23.7707 74.3161 24.112C73.9748 24.4533 73.8041 24.9707 73.8041 25.664ZM82.168 30.16C81.4213 30.16 80.7493 29.984 80.152 29.632C79.5547 29.28 79.08 28.8053 78.728 28.208C78.376 27.6 78.2 26.9227 78.2 26.176C78.2 25.44 78.376 24.7787 78.728 24.192C79.08 23.5947 79.5547 23.12 80.152 22.768C80.7493 22.416 81.4213 22.24 82.168 22.24C82.904 22.24 83.5707 22.416 84.168 22.768C84.776 23.1093 85.256 23.5787 85.608 24.176C85.96 24.7733 86.136 25.44 86.136 26.176C86.136 26.9227 85.96 27.6 85.608 28.208C85.256 28.8053 84.776 29.28 84.168 29.632C83.5707 29.984 82.904 30.16 82.168 30.16ZM82.168 28.768C82.648 28.768 83.0747 28.656 83.448 28.432C83.8213 28.208 84.1147 27.904 84.328 27.52C84.5413 27.1253 84.648 26.6773 84.648 26.176C84.648 25.6853 84.536 25.248 84.312 24.864C84.0987 24.48 83.8053 24.1813 83.432 23.968C83.0693 23.744 82.648 23.632 82.168 23.632C81.688 23.632 81.2613 23.744 80.888 23.968C80.5147 24.1813 80.2213 24.48 80.008 24.864C79.7947 25.248 79.688 25.6853 79.688 26.176C79.688 26.6773 79.7947 27.1253 80.008 27.52C80.2213 27.904 80.5147 28.208 80.888 28.432C81.2613 28.656 81.688 28.768 82.168 28.768ZM90.3345 30.16C89.9078 30.16 89.5025 30.1067 89.1185 30C88.7452 29.8827 88.3985 29.7227 88.0785 29.52C87.7585 29.3067 87.4812 29.056 87.2465 28.768L88.1745 27.84C88.4518 28.1813 88.7718 28.4373 89.1345 28.608C89.4972 28.768 89.9025 28.848 90.3505 28.848C90.7985 28.848 91.1452 28.7733 91.3905 28.624C91.6358 28.464 91.7585 28.2453 91.7585 27.968C91.7585 27.6907 91.6572 27.4773 91.4545 27.328C91.2625 27.168 91.0118 27.04 90.7025 26.944C90.3932 26.8373 90.0625 26.736 89.7105 26.64C89.3692 26.5333 89.0438 26.4 88.7345 26.24C88.4252 26.08 88.1692 25.8613 87.9665 25.584C87.7745 25.3067 87.6785 24.9387 87.6785 24.48C87.6785 24.0213 87.7905 23.6267 88.0145 23.296C88.2385 22.9547 88.5478 22.6933 88.9425 22.512C89.3478 22.3307 89.8332 22.24 90.3985 22.24C90.9958 22.24 91.5238 22.3467 91.9825 22.56C92.4518 22.7627 92.8358 23.072 93.1345 23.488L92.2065 24.416C91.9932 24.1387 91.7265 23.9253 91.4065 23.776C91.0972 23.6267 90.7452 23.552 90.3505 23.552C89.9345 23.552 89.6145 23.6267 89.3905 23.776C89.1772 23.9147 89.0705 24.112 89.0705 24.368C89.0705 24.624 89.1665 24.8213 89.3585 24.96C89.5505 25.0987 89.8012 25.216 90.1105 25.312C90.4305 25.408 90.7612 25.5093 91.1025 25.616C91.4438 25.712 91.7692 25.8453 92.0785 26.016C92.3878 26.1867 92.6385 26.416 92.8305 26.704C93.0332 26.992 93.1345 27.3707 93.1345 27.84C93.1345 28.5547 92.8785 29.12 92.3665 29.536C91.8652 29.952 91.1878 30.16 90.3345 30.16ZM98.3786 30.16C97.632 30.16 96.96 29.984 96.3626 29.632C95.7653 29.28 95.2906 28.8053 94.9386 28.208C94.5866 27.6 94.4106 26.9227 94.4106 26.176C94.4106 25.44 94.5866 24.7787 94.9386 24.192C95.2906 23.5947 95.7653 23.12 96.3626 22.768C96.96 22.416 97.632 22.24 98.3786 22.24C99.1146 22.24 99.7813 22.416 100.379 22.768C100.987 23.1093 101.467 23.5787 101.819 24.176C102.171 24.7733 102.347 25.44 102.347 26.176C102.347 26.9227 102.171 27.6 101.819 28.208C101.467 28.8053 100.987 29.28 100.379 29.632C99.7813 29.984 99.1146 30.16 98.3786 30.16ZM98.3786 28.768C98.8586 28.768 99.2853 28.656 99.6586 28.432C100.032 28.208 100.325 27.904 100.539 27.52C100.752 27.1253 100.859 26.6773 100.859 26.176C100.859 25.6853 100.747 25.248 100.523 24.864C100.309 24.48 100.016 24.1813 99.6426 23.968C99.28 23.744 98.8586 23.632 98.3786 23.632C97.8986 23.632 97.472 23.744 97.0986 23.968C96.7253 24.1813 96.432 24.48 96.2186 24.864C96.0053 25.248 95.8986 25.6853 95.8986 26.176C95.8986 26.6773 96.0053 27.1253 96.2186 27.52C96.432 27.904 96.7253 28.208 97.0986 28.432C97.472 28.656 97.8986 28.768 98.3786 28.768ZM104.983 30V21.264C104.983 20.6987 105.105 20.208 105.351 19.792C105.596 19.3653 105.932 19.0293 106.359 18.784C106.796 18.5387 107.303 18.416 107.879 18.416C108.316 18.416 108.695 18.4907 109.015 18.64C109.335 18.7893 109.628 19.008 109.895 19.296L108.951 20.224C108.812 20.0747 108.657 19.9627 108.487 19.888C108.316 19.8027 108.108 19.76 107.863 19.76C107.404 19.76 107.047 19.8933 106.791 20.16C106.545 20.4267 106.423 20.7947 106.423 21.264V30H104.983ZM103.111 23.712V22.4H108.839V23.712H103.111ZM111.16 30V19.216H112.6V30H111.16ZM109.288 23.712V22.4H114.472V23.712H109.288ZM118.518 30L123.062 18.896H124.15L128.678 30H127.046L123.318 20.608H123.878L120.118 30H118.518ZM120.678 27.488V26.176H126.518V27.488H120.678ZM129.771 29.216L134.283 23.184H135.979L131.467 29.216H129.771ZM129.771 30V29.216L131.051 28.688H135.883V30H129.771ZM130.043 23.712V22.4H135.979V23.184L134.651 23.712H130.043ZM140.767 30.16C140.137 30.16 139.572 30.0213 139.071 29.744C138.58 29.456 138.196 29.0613 137.919 28.56C137.641 28.0587 137.503 27.4773 137.503 26.816V22.4H138.943V26.752C138.943 27.168 139.012 27.5307 139.151 27.84C139.3 28.1387 139.513 28.368 139.791 28.528C140.068 28.688 140.393 28.768 140.767 28.768C141.332 28.768 141.775 28.592 142.095 28.24C142.415 27.8773 142.575 27.3813 142.575 26.752V22.4H144.015V26.816C144.015 27.4773 143.876 28.0587 143.599 28.56C143.321 29.0613 142.937 29.456 142.447 29.744C141.967 30.0213 141.407 30.16 140.767 30.16ZM146.105 30V22.4H147.545V30H146.105ZM147.545 25.664L147.001 25.424C147.001 24.4533 147.225 23.68 147.673 23.104C148.121 22.528 148.766 22.24 149.609 22.24C149.993 22.24 150.339 22.3093 150.649 22.448C150.958 22.576 151.246 22.7947 151.513 23.104L150.569 24.08C150.409 23.9093 150.233 23.7867 150.041 23.712C149.849 23.6373 149.625 23.6 149.369 23.6C148.835 23.6 148.398 23.7707 148.057 24.112C147.715 24.4533 147.545 24.9707 147.545 25.664ZM155.957 30.16C155.199 30.16 154.517 29.9893 153.909 29.648C153.301 29.296 152.821 28.8213 152.469 28.224C152.117 27.6267 151.941 26.9493 151.941 26.192C151.941 25.4453 152.111 24.7733 152.453 24.176C152.805 23.5787 153.274 23.1093 153.861 22.768C154.458 22.416 155.125 22.24 155.861 22.24C156.565 22.24 157.183 22.4 157.717 22.72C158.261 23.04 158.682 23.4827 158.981 24.048C159.29 24.6133 159.445 25.2533 159.445 25.968C159.445 26.0747 159.439 26.192 159.429 26.32C159.418 26.4373 159.397 26.576 159.365 26.736H152.949V25.536H158.597L158.069 26C158.069 25.488 157.978 25.056 157.797 24.704C157.615 24.3413 157.359 24.064 157.029 23.872C156.698 23.6693 156.298 23.568 155.829 23.568C155.338 23.568 154.906 23.6747 154.533 23.888C154.159 24.1013 153.871 24.4 153.669 24.784C153.466 25.168 153.365 25.6213 153.365 26.144C153.365 26.6773 153.471 27.1467 153.685 27.552C153.898 27.9467 154.202 28.256 154.597 28.48C154.991 28.6933 155.445 28.8 155.957 28.8C156.383 28.8 156.773 28.7253 157.125 28.576C157.487 28.4267 157.797 28.2027 158.053 27.904L158.981 28.848C158.618 29.2747 158.17 29.6 157.637 29.824C157.114 30.048 156.554 30.16 155.957 30.16Z" fill="black"/>
<path d="M25.3591 14L18.1496 20.2507L12 31.2912H17.5458L25.3591 14ZM26.3179 15.4623L23.2414 24.1329L29.1397 31.5438L17.6956 33.51H36.4508L26.3179 15.4623Z" fill="#0072C6"/>
</svg>
