<svg width="109" height="48" viewBox="0 0 109 48" fill="none" xmlns="http://www.w3.org/2000/svg">
<rect width="109" height="48" rx="6" fill="#F0FAFF"/>
<path d="M48.304 30V28.624H51.392C52.2133 28.624 52.9333 28.448 53.552 28.096C54.1707 27.7333 54.6507 27.2373 54.992 26.608C55.344 25.9787 55.52 25.2533 55.52 24.432C55.52 23.6213 55.344 22.9013 54.992 22.272C54.64 21.6427 54.1547 21.152 53.536 20.8C52.9173 20.448 52.2027 20.272 51.392 20.272H48.32V18.896H51.424C52.2347 18.896 52.9813 19.0347 53.664 19.312C54.3573 19.5893 54.9547 19.9787 55.456 20.48C55.968 20.9813 56.3627 21.568 56.64 22.24C56.928 22.912 57.072 23.648 57.072 24.448C57.072 25.2373 56.928 25.9733 56.64 26.656C56.3627 27.328 55.9733 27.9147 55.472 28.416C54.9707 28.9173 54.3733 29.3067 53.68 29.584C52.9973 29.8613 52.256 30 51.456 30H48.304ZM47.312 30V18.896H48.816V30H47.312ZM62.5318 30.16C61.7851 30.16 61.1131 29.984 60.5157 29.632C59.9184 29.28 59.4437 28.8053 59.0917 28.208C58.7397 27.6 58.5637 26.9227 58.5637 26.176C58.5637 25.44 58.7397 24.7787 59.0917 24.192C59.4437 23.5947 59.9184 23.12 60.5157 22.768C61.1131 22.416 61.7851 22.24 62.5318 22.24C63.2678 22.24 63.9344 22.416 64.5318 22.768C65.1398 23.1093 65.6198 23.5787 65.9718 24.176C66.3238 24.7733 66.4998 25.44 66.4998 26.176C66.4998 26.9227 66.3238 27.6 65.9718 28.208C65.6198 28.8053 65.1398 29.28 64.5318 29.632C63.9344 29.984 63.2678 30.16 62.5318 30.16ZM62.5318 28.768C63.0118 28.768 63.4384 28.656 63.8117 28.432C64.1851 28.208 64.4784 27.904 64.6918 27.52C64.9051 27.1253 65.0118 26.6773 65.0118 26.176C65.0118 25.6853 64.8998 25.248 64.6758 24.864C64.4624 24.48 64.1691 24.1813 63.7958 23.968C63.4331 23.744 63.0118 23.632 62.5318 23.632C62.0518 23.632 61.6251 23.744 61.2517 23.968C60.8784 24.1813 60.5851 24.48 60.3717 24.864C60.1584 25.248 60.0517 25.6853 60.0517 26.176C60.0517 26.6773 60.1584 27.1253 60.3717 27.52C60.5851 27.904 60.8784 28.208 61.2517 28.432C61.6251 28.656 62.0518 28.768 62.5318 28.768ZM71.7543 30.16C71.0076 30.16 70.3302 29.984 69.7222 29.632C69.1249 29.28 68.6502 28.8053 68.2982 28.208C67.9569 27.6 67.7862 26.928 67.7862 26.192C67.7862 25.4453 67.9569 24.7733 68.2982 24.176C68.6502 23.5787 69.1249 23.1093 69.7222 22.768C70.3302 22.416 71.0076 22.24 71.7543 22.24C72.3409 22.24 72.8849 22.352 73.3863 22.576C73.8876 22.7893 74.3196 23.104 74.6823 23.52L73.7222 24.48C73.4876 24.2027 73.1996 23.9947 72.8583 23.856C72.5276 23.7067 72.1596 23.632 71.7543 23.632C71.2742 23.632 70.8476 23.744 70.4742 23.968C70.1009 24.1813 69.8076 24.48 69.5942 24.864C69.3809 25.248 69.2742 25.6907 69.2742 26.192C69.2742 26.6933 69.3809 27.136 69.5942 27.52C69.8076 27.904 70.1009 28.208 70.4742 28.432C70.8476 28.656 71.2742 28.768 71.7543 28.768C72.1596 28.768 72.5276 28.6987 72.8583 28.56C73.1996 28.4107 73.4929 28.1973 73.7382 27.92L74.6823 28.88C74.3303 29.2853 73.8983 29.6 73.3863 29.824C72.8849 30.048 72.3409 30.16 71.7543 30.16ZM81.1344 30L77.5824 26.112L81.1024 22.4H82.8464L78.9264 26.496L78.9904 25.664L82.9904 30H81.1344ZM76.2704 30V18.576H77.7104V30H76.2704ZM87.4816 30.16C86.7243 30.16 86.0416 29.9893 85.4336 29.648C84.8256 29.296 84.3456 28.8213 83.9936 28.224C83.6416 27.6267 83.4656 26.9493 83.4656 26.192C83.4656 25.4453 83.6363 24.7733 83.9776 24.176C84.3296 23.5787 84.799 23.1093 85.3856 22.768C85.983 22.416 86.6496 22.24 87.3856 22.24C88.0896 22.24 88.7083 22.4 89.2416 22.72C89.7856 23.04 90.207 23.4827 90.5056 24.048C90.815 24.6133 90.9696 25.2533 90.9696 25.968C90.9696 26.0747 90.9643 26.192 90.9536 26.32C90.943 26.4373 90.9216 26.576 90.8896 26.736H84.4736V25.536H90.1216L89.5936 26C89.5936 25.488 89.503 25.056 89.3216 24.704C89.1403 24.3413 88.8843 24.064 88.5536 23.872C88.223 23.6693 87.823 23.568 87.3536 23.568C86.863 23.568 86.431 23.6747 86.0576 23.888C85.6843 24.1013 85.3963 24.4 85.1936 24.784C84.991 25.168 84.8896 25.6213 84.8896 26.144C84.8896 26.6773 84.9963 27.1467 85.2096 27.552C85.423 27.9467 85.727 28.256 86.1216 28.48C86.5163 28.6933 86.9696 28.8 87.4816 28.8C87.9083 28.8 88.2976 28.7253 88.6496 28.576C89.0123 28.4267 89.3216 28.2027 89.5776 27.904L90.5056 28.848C90.143 29.2747 89.695 29.6 89.1616 29.824C88.639 30.048 88.079 30.16 87.4816 30.16ZM92.6997 30V22.4H94.1397V30H92.6997ZM94.1397 25.664L93.5957 25.424C93.5957 24.4533 93.8197 23.68 94.2677 23.104C94.7157 22.528 95.3611 22.24 96.2037 22.24C96.5877 22.24 96.9344 22.3093 97.2437 22.448C97.5531 22.576 97.8411 22.7947 98.1077 23.104L97.1637 24.08C97.0037 23.9093 96.8277 23.7867 96.6357 23.712C96.4437 23.6373 96.2197 23.6 95.9637 23.6C95.4304 23.6 94.9931 23.7707 94.6517 24.112C94.3104 24.4533 94.1397 24.9707 94.1397 25.664Z" fill="black"/>
<path d="M36.2399 21.5573C36.1718 21.5012 35.5587 21.0417 34.2418 21.0417C33.9012 21.0417 33.5492 21.0753 33.2087 21.1314C32.9589 19.4164 31.5171 18.5869 31.4603 18.5421L31.1084 18.3403L30.8813 18.6654C30.5975 19.1026 30.3818 19.5958 30.2569 20.1002C30.0185 21.0753 30.1661 21.9944 30.6656 22.779C30.0639 23.1153 29.0876 23.1938 28.8832 23.205H12.7621C12.3421 23.205 12.0015 23.5413 12.0015 23.956C11.9788 25.3459 12.2172 26.7357 12.7054 28.0472C13.2616 29.4819 14.0904 30.5467 15.1576 31.1969C16.361 31.9254 18.325 32.3401 20.5388 32.3401C21.5379 32.3401 22.5369 32.2505 23.5247 32.0711C24.8983 31.8245 26.2153 31.3538 27.43 30.67C28.4256 30.1002 29.3226 29.3735 30.0866 28.518C31.3695 27.0944 32.1301 25.5028 32.6864 24.0905H32.9134C34.3099 24.0905 35.1727 23.5413 35.6495 23.0705C35.9674 22.779 36.2058 22.4204 36.3761 22.0169L36.4783 21.7254L36.2399 21.5573Z" fill="#0091E2"/>
<path d="M14.2633 22.7453H16.4203C16.5225 22.7453 16.6134 22.6668 16.6134 22.5548V20.6493C16.6134 20.5484 16.5339 20.4587 16.4203 20.4587H14.2633C14.1611 20.4587 14.0703 20.5371 14.0703 20.6493V22.5548C14.0817 22.6668 14.1611 22.7453 14.2633 22.7453V22.7453ZM17.2377 22.7453H19.3948C19.497 22.7453 19.5878 22.6668 19.5878 22.5548V20.6493C19.5878 20.5484 19.5083 20.4587 19.3948 20.4587H17.2377C17.1355 20.4587 17.0447 20.5371 17.0447 20.6493V22.5548C17.0561 22.6668 17.1356 22.7453 17.2377 22.7453M20.2689 22.7453H22.426C22.5281 22.7453 22.619 22.6668 22.619 22.5548V20.6493C22.619 20.5484 22.5395 20.4587 22.426 20.4587H20.2689C20.1667 20.4587 20.0759 20.5371 20.0759 20.6493V22.5548C20.0759 22.6668 20.1554 22.7453 20.2689 22.7453ZM23.2547 22.7453H25.4118C25.514 22.7453 25.6048 22.6668 25.6048 22.5548V20.6493C25.6048 20.5484 25.5253 20.4587 25.4118 20.4587H23.2547C23.1526 20.4587 23.0617 20.5371 23.0617 20.6493V22.5548C23.0617 22.6668 23.1526 22.7453 23.2547 22.7453ZM17.2377 20.0216H19.3948C19.4969 20.0216 19.5878 19.9319 19.5878 19.831V17.9255C19.5878 17.8246 19.5083 17.7349 19.3948 17.7349H17.2377C17.1355 17.7349 17.0447 17.8134 17.0447 17.9255V19.831C17.0561 19.9319 17.1356 20.0216 17.2377 20.0216ZM20.2689 20.0216H22.426C22.5281 20.0216 22.619 19.9319 22.619 19.831V17.9255C22.619 17.8246 22.5395 17.7349 22.426 17.7349H20.2689C20.1667 17.7349 20.0759 17.8134 20.0759 17.9255V19.831C20.0759 19.9319 20.1554 20.0216 20.2689 20.0216ZM23.2547 20.0216H25.4118C25.514 20.0216 25.6048 19.9319 25.6048 19.831V17.9255C25.6048 17.8246 25.5139 17.7349 25.4118 17.7349H23.2547C23.1526 17.7349 23.0617 17.8134 23.0617 17.9255V19.831C23.0617 19.9319 23.1526 20.0216 23.2547 20.0216ZM23.2547 17.2866H25.4118C25.514 17.2866 25.6048 17.2082 25.6048 17.0961V15.1906C25.6048 15.0897 25.5139 15 25.4118 15H23.2547C23.1526 15 23.0617 15.0785 23.0617 15.1906V17.0961C23.0617 17.1969 23.1526 17.2866 23.2547 17.2866ZM26.2632 22.7453H28.4203C28.5224 22.7453 28.6133 22.6668 28.6133 22.5548V20.6493C28.6133 20.5484 28.5338 20.4587 28.4203 20.4587H26.2633C26.161 20.4587 26.0702 20.5371 26.0702 20.6493V22.5548C26.0816 22.6668 26.1611 22.7453 26.2633 22.7453" fill="#0091E2"/>
</svg>
