<svg width="175" height="25" viewBox="0 0 175 25" fill="none" xmlns="http://www.w3.org/2000/svg">
<path d="M44.1753 9.48962C43.7685 8.35942 43.1582 7.38745 42.3897 6.5737C41.5986 5.78256 40.6719 5.17225 39.5418 4.74278C38.4343 4.3359 37.1686 4.10986 35.7672 4.10986C34.3433 4.10986 33.0549 4.3359 31.9022 4.81059C30.7495 5.28527 29.7776 5.91818 28.9413 6.75453C28.1276 7.56828 27.4947 8.54025 27.0427 9.64785C26.5906 10.7554 26.3646 11.9535 26.3646 13.2645C26.3646 14.5529 26.6133 15.7509 27.0879 16.8585C27.5626 17.9661 28.1954 18.9381 29.0091 19.7744C29.8228 20.6108 30.7495 21.2437 31.8344 21.7184C32.9193 22.1931 34.072 22.4191 35.27 22.4191C36.8747 22.4191 38.2761 22.0575 39.474 21.3567C40.6719 20.656 41.6212 19.7066 42.3219 18.5086V21.5376C42.3219 21.7862 42.5253 21.9896 42.774 21.9896H44.3335C44.5821 21.9896 44.7856 21.7862 44.7856 21.5376V13.3549C44.8082 11.9082 44.5821 10.6198 44.1753 9.48962ZM41.8247 15.9318C41.4856 16.7681 41.011 17.4688 40.4233 18.1017C39.813 18.7121 39.1124 19.2093 38.2987 19.5484C37.485 19.8875 36.6035 20.0683 35.6542 20.0683C34.7049 20.0683 33.8008 19.8875 32.9871 19.5484C32.1508 19.2093 31.4502 18.7121 30.8399 18.1017C30.2296 17.4914 29.755 16.7681 29.4159 15.9318C29.0769 15.118 28.8961 14.2139 28.8961 13.2645C28.8961 12.3151 29.0769 11.411 29.4159 10.5746C29.755 9.73826 30.2296 9.01494 30.8399 8.40463C31.4502 7.79432 32.1508 7.31963 32.9871 6.98057C33.8008 6.64151 34.7049 6.46068 35.6542 6.46068C37.7336 6.46068 39.361 7.04839 40.5589 8.22379C41.7568 9.3992 42.3671 11.0719 42.3671 13.2645C42.3219 14.2139 42.1411 15.0954 41.8247 15.9318Z" fill="white"/>
<path d="M50.917 0.584691C50.5779 0.245631 50.1711 0.0874023 49.6964 0.0874023C49.1992 0.0874023 48.7923 0.268235 48.4533 0.584691C48.1143 0.923751 47.9561 1.33062 47.9561 1.7827C47.9561 2.27999 48.1143 2.68686 48.4533 3.02592C48.7923 3.36498 49.1992 3.52321 49.6964 3.52321C50.1711 3.52321 50.5779 3.36498 50.917 3.02592C51.256 2.68686 51.4368 2.27999 51.4368 1.7827C51.4368 1.33062 51.2786 0.923751 50.917 0.584691ZM48.4759 5.76101V21.5386C48.4759 21.7873 48.6793 21.9907 48.928 21.9907H50.4423C50.6909 21.9907 50.8944 21.7873 50.8944 21.5386V5.76101C50.8944 5.08289 50.3519 4.54039 49.6738 4.54039C49.0184 4.54039 48.4759 5.08289 48.4759 5.76101Z" fill="white"/>
<path d="M72.6085 9.64785C72.1339 8.54025 71.501 7.56828 70.6873 6.75453C69.8736 5.91818 68.9017 5.28527 67.8168 4.81059C66.7093 4.3359 65.5114 4.10986 64.2456 4.10986C62.9121 4.10986 61.6916 4.35851 60.5615 4.83319C59.4313 5.33048 58.4594 5.986 57.6005 6.84495C56.7642 7.7039 56.1088 8.72108 55.6567 9.89649C55.1821 11.0945 54.9561 12.3829 54.9561 13.7618V23.4363C54.9561 23.6849 55.1595 23.8884 55.4081 23.8884H56.9225C57.1711 23.8884 57.3745 23.6849 57.3745 23.4363V18.4182C58.0526 19.6388 58.9793 20.5882 60.1772 21.3115C61.3751 22.0349 62.7765 22.3965 64.3813 22.3965C65.6244 22.3965 66.7771 22.1705 67.862 21.6958C68.9469 21.2211 69.8736 20.5882 70.6873 19.7518C71.4784 18.9155 72.1113 17.9435 72.5859 16.8359C73.0606 15.7283 73.2866 14.5303 73.2866 13.2419C73.3092 11.9535 73.0832 10.7554 72.6085 9.64785ZM70.3483 15.9318C70.0092 16.7681 69.512 17.4688 68.9243 18.1018C68.3141 18.7121 67.6134 19.2093 66.7997 19.5484C65.986 19.8875 65.1045 20.0683 64.1552 20.0683C63.2059 20.0683 62.3244 19.8875 61.5107 19.5484C60.6971 19.2093 59.9964 18.7121 59.3861 18.1018C58.7759 17.4914 58.3012 16.7681 57.9622 15.9318C57.6231 15.118 57.4423 14.2139 57.4423 13.2645C57.4423 12.3151 57.6231 11.411 57.9622 10.5746C58.3012 9.73826 58.7985 9.01494 59.3861 8.40463C59.9964 7.79432 60.6971 7.31963 61.5107 6.98057C62.3244 6.64151 63.2059 6.46068 64.1552 6.46068C65.1045 6.46068 65.986 6.64151 66.7997 6.98057C67.6134 7.31963 68.3141 7.81692 68.9243 8.40463C69.5346 9.01494 70.0092 9.73826 70.3483 10.5746C70.6873 11.411 70.8681 12.3151 70.8681 13.2645C70.8681 14.2139 70.6873 15.0954 70.3483 15.9318Z" fill="white"/>
<path d="M86.2044 13.0142L92.1036 5.26107C92.3296 4.96722 92.1262 4.51514 91.742 4.51514H90.0016C89.866 4.51514 89.7304 4.58295 89.64 4.69597L84.7352 11.0477L79.8983 4.71857C79.8079 4.60555 79.6723 4.53774 79.5367 4.53774H77.7963C77.4121 4.53774 77.2086 4.96722 77.4347 5.28367L83.3339 13.0595L77.0504 21.2647C76.8244 21.5586 77.0278 22.0106 77.4121 22.0106H79.175C79.3107 22.0106 79.4463 21.9428 79.5367 21.8298L84.7352 15.0034L89.979 21.8298C90.0694 21.9428 90.205 22.0106 90.3406 22.0106H92.081C92.4652 22.0106 92.6687 21.5812 92.4426 21.2647L86.2044 13.0142Z" fill="white"/>
<path d="M113.609 9.64785C113.134 8.54025 112.501 7.56828 111.687 6.75453C110.874 5.91818 109.902 5.28527 108.817 4.81059C107.732 4.3359 106.511 4.10986 105.246 4.10986C103.912 4.10986 102.692 4.35851 101.561 4.83319C100.431 5.33048 99.4594 5.986 98.6005 6.84495C97.7642 7.7039 97.1088 8.72108 96.6567 9.89649C96.1821 11.0945 95.9561 12.3829 95.9561 13.7618V23.4363C95.9561 23.6849 96.1595 23.8884 96.4081 23.8884H97.9225C98.1711 23.8884 98.3745 23.6849 98.3745 23.4363V18.4182C99.0526 19.6388 99.9793 20.5882 101.177 21.3115C102.375 22.0349 103.776 22.3965 105.381 22.3965C106.624 22.3965 107.777 22.1705 108.862 21.6958C109.947 21.2211 110.874 20.5882 111.687 19.7518C112.478 18.9155 113.111 17.9435 113.586 16.8359C114.061 15.7283 114.287 14.5303 114.287 13.2419C114.309 11.9535 114.083 10.7554 113.609 9.64785ZM111.348 15.9318C111.009 16.7681 110.512 17.4688 109.924 18.1018C109.314 18.7121 108.613 19.2093 107.8 19.5484C106.986 19.8875 106.105 20.0683 105.155 20.0683C104.206 20.0683 103.324 19.8875 102.511 19.5484C101.697 19.2093 100.996 18.7121 100.386 18.1018C99.7759 17.4914 99.3012 16.7681 98.9622 15.9318C98.6231 15.118 98.4423 14.2139 98.4423 13.2645C98.4423 12.3151 98.6231 11.411 98.9622 10.5746C99.3012 9.73826 99.7985 9.01494 100.386 8.40463C100.996 7.79432 101.697 7.31963 102.511 6.98057C103.324 6.64151 104.206 6.46068 105.155 6.46068C106.105 6.46068 106.986 6.64151 107.8 6.98057C108.613 7.31963 109.314 7.81692 109.924 8.40463C110.535 9.01494 111.009 9.73826 111.348 10.5746C111.687 11.411 111.868 12.3151 111.868 13.2645C111.868 14.2139 111.687 15.0954 111.348 15.9318Z" fill="white"/>
<path d="M135.089 9.82414C134.682 8.71655 134.094 7.74457 133.348 6.88562C132.602 6.04927 131.676 5.37115 130.636 4.87386C129.574 4.37657 128.376 4.12793 127.065 4.12793C125.709 4.12793 124.488 4.37657 123.358 4.85126C122.251 5.32594 121.279 5.98146 120.488 6.7952C119.696 7.60895 119.064 8.58092 118.612 9.68852C118.159 10.7961 117.956 11.9941 117.956 13.2826C117.956 14.6162 118.182 15.8368 118.634 16.9444C119.086 18.052 119.719 19.024 120.533 19.8377C121.346 20.6515 122.318 21.2844 123.471 21.7365C124.601 22.1885 125.867 22.4146 127.246 22.4146C128.105 22.4146 128.941 22.3016 129.754 22.0755C130.568 21.8495 131.337 21.533 132.037 21.1262C132.738 20.7193 133.371 20.1994 133.936 19.5891C134.343 19.1596 134.682 18.6623 134.976 18.1424C135.134 17.8486 134.93 17.4869 134.614 17.4643L133.032 17.3287C132.851 17.3061 132.693 17.3965 132.602 17.5547C132.15 18.2554 131.495 18.8431 130.636 19.3178C129.687 19.8377 128.579 20.109 127.268 20.109C125.483 20.109 123.968 19.6117 122.725 18.5945C121.482 17.5773 120.759 16.1985 120.533 14.4354H135.654C135.676 14.2545 135.699 14.0737 135.699 13.8929C135.722 13.712 135.722 13.5312 135.722 13.3504C135.699 12.0845 135.473 10.9091 135.089 9.82414ZM120.465 12.2428C120.555 11.3838 120.781 10.5927 121.143 9.86935C121.505 9.14602 121.979 8.53571 122.544 8.01582C123.109 7.49593 123.787 7.11166 124.533 6.81781C125.279 6.52396 126.116 6.38833 127.02 6.38833C127.788 6.38833 128.511 6.52396 129.212 6.7726C129.913 7.02124 130.546 7.40551 131.088 7.8802C131.653 8.37749 132.105 8.98779 132.489 9.71112C132.851 10.4345 133.1 11.2934 133.19 12.2428H120.465Z" fill="white"/>
<path d="M157.85 7.81811V6.37145C157.85 6.12281 157.646 5.91937 157.398 5.91937H153.42V3.68157C153.42 3.43293 153.216 3.22949 152.968 3.22949H151.408C151.159 3.22949 150.956 3.43293 150.956 3.68157V18.6002C150.956 19.64 151.092 20.4764 151.385 21.1093C151.679 21.7422 152.131 22.2169 152.719 22.5559C153.329 22.895 154.595 23.2793 155.703 23.2114C155.951 23.2341 156.155 23.0532 156.155 22.8046V21.4483C156.155 21.2449 156.019 21.0867 155.816 21.0415C155.59 20.9963 154.753 20.9736 154.527 20.8606C154.166 20.6798 153.849 20.4538 153.668 20.0921C153.488 19.753 153.397 19.2331 153.397 18.555V8.29279H157.375C157.646 8.29279 157.85 8.06675 157.85 7.81811Z" fill="white"/>
<path d="M174.178 17.8034C174.178 17.939 174.178 18.0746 174.156 18.2102C174.088 18.7753 173.952 19.2726 173.704 19.7699C173.387 20.4028 172.958 20.9679 172.37 21.4426C171.805 21.9173 171.127 22.2789 170.359 22.5502C169.59 22.8214 168.731 22.9571 167.827 22.9571C167.104 22.9571 166.381 22.8441 165.635 22.6406C164.889 22.4146 164.211 22.0981 163.601 21.6912C162.99 21.2844 162.448 20.7871 162.018 20.1768C161.702 19.7473 161.476 19.2726 161.34 18.7753C161.272 18.4815 161.453 18.1876 161.77 18.1876L163.261 18.1198C163.465 18.1198 163.646 18.2328 163.714 18.4363C163.827 18.7527 163.985 19.024 164.188 19.25C164.459 19.5665 164.798 19.8151 165.183 20.0412C165.567 20.2446 165.996 20.4028 166.448 20.4706C166.9 20.561 167.375 20.6063 167.827 20.6063C168.867 20.6063 169.748 20.3576 170.494 19.8377C171.082 19.4308 171.421 18.911 171.557 18.2328C171.579 18.0972 171.579 17.9616 171.579 17.826C171.579 17.1026 171.308 16.5375 170.788 16.1307C170.268 15.7238 169.613 15.4073 168.822 15.1587C168.031 14.91 167.172 14.6614 166.268 14.4354C165.341 14.2093 164.505 13.8929 163.714 13.5312C162.922 13.1469 162.267 12.6496 161.747 12.0167C161.227 11.3838 160.956 10.5249 160.956 9.43987C160.956 8.67134 161.114 7.94801 161.431 7.31509C161.747 6.68218 162.177 6.11708 162.764 5.6424C163.329 5.16771 164.007 4.80605 164.776 4.5348C165.544 4.26355 166.403 4.12793 167.307 4.12793C168.031 4.12793 168.754 4.24095 169.5 4.44439C170.246 4.67043 170.924 4.98688 171.534 5.39375C172.144 5.80063 172.687 6.29791 173.116 6.90822C173.433 7.3377 173.659 7.81238 173.794 8.30967C173.862 8.60352 173.681 8.89738 173.365 8.89738L171.873 8.96519C171.67 8.96519 171.489 8.85217 171.421 8.64873C171.308 8.33228 171.15 8.06103 170.946 7.83499C170.675 7.51853 170.336 7.26989 169.952 7.04385C169.568 6.84041 169.138 6.68218 168.686 6.61437C168.234 6.52395 167.759 6.47875 167.307 6.47875C166.268 6.47875 165.386 6.72739 164.64 7.24728C163.894 7.76718 163.533 8.4905 163.533 9.41727C163.533 10.118 163.804 10.6605 164.324 11.0448C164.844 11.429 165.499 11.7455 166.29 12.0167C167.081 12.2654 167.918 12.514 168.844 12.7175C169.771 12.9435 170.63 13.2373 171.398 13.599C172.189 13.9833 172.845 14.4806 173.365 15.1361C173.93 15.8142 174.178 16.6958 174.178 17.8034Z" fill="white"/>
<path d="M147.884 4.83309V6.27975C147.884 6.52839 147.703 6.73183 147.455 6.73183C146.483 6.79964 145.669 6.93526 145.013 7.1161C143.996 7.40995 143.205 7.83942 142.663 8.44973C142.12 9.03744 141.781 9.80597 141.623 10.7101C141.465 11.6369 141.375 12.7445 141.375 14.0555V23.5944C141.375 23.8431 141.171 24.0465 140.922 24.0465H139.408C139.159 24.0465 138.956 23.8431 138.956 23.5944V15.1179V3.88372C138.956 3.63508 139.159 3.43164 139.408 3.43164H140.877C141.126 3.43164 141.329 3.63508 141.329 3.88372V6.39277C142.053 5.75986 143.002 5.26257 144.155 4.92351C145.081 4.65226 146.144 4.47143 147.387 4.38101C147.658 4.35841 147.884 4.56184 147.884 4.83309Z" fill="white"/>
<mask id="mask0_2736_77" style="mask-type:luminance" maskUnits="userSpaceOnUse" x="17" y="0" width="4" height="4">
<path d="M20.5193 1.46517C21.0001 0.984357 20.2789 0.479504 19.8462 0.28718C19.3654 0.0708144 18.7164 0.215058 18.2597 0.671829C17.875 1.05648 17.6346 1.58537 17.6346 2.18639C17.6346 2.7874 17.875 3.34033 18.2837 3.72498C18.0673 3.26821 18.0433 2.83548 18.2597 2.35467C18.4039 1.99406 18.6443 1.84982 18.9327 1.68153C19.101 1.36901 19.4376 1.17668 19.7981 1.17668C20.0866 1.17668 20.351 1.29688 20.5193 1.46517Z" fill="white"/>
</mask>
<g mask="url(#mask0_2736_77)">
<path d="M22.4496 2.21817L19.8585 -1.18848L16.1845 1.60638L18.7755 5.01303L22.4496 2.21817Z" fill="url(#paint0_linear_2736_77)"/>
</g>
<mask id="mask1_2736_77" style="mask-type:luminance" maskUnits="userSpaceOnUse" x="17" y="1" width="5" height="4">
<path d="M19.027 1.54102C18.5943 1.5891 18.1857 1.87758 18.0174 2.31031C17.8011 2.79113 17.9213 3.34406 18.2818 3.72871C18.6665 4.11336 19.1953 4.35376 19.7963 4.35376C20.3973 4.35376 20.9502 4.11336 21.3348 3.70467C20.7338 3.82487 20.4453 3.68063 19.9646 3.46426C19.6521 3.32002 19.6521 3.29598 19.4838 3.15173C19.0751 3.03153 18.7626 2.64688 18.7626 2.19011C18.8107 1.94971 18.8828 1.73334 19.027 1.54102Z" fill="white"/>
</mask>
<g mask="url(#mask1_2736_77)">
<path d="M21.78 3.65616L19.764 0.66748L17.2736 2.34759L19.2896 5.33627L21.78 3.65616Z" fill="url(#paint1_linear_2736_77)"/>
</g>
<mask id="mask2_2736_77" style="mask-type:luminance" maskUnits="userSpaceOnUse" x="19" y="0" width="3" height="5">
<path d="M19.1716 2.95829C19.2197 3.39102 19.5082 3.79971 19.9409 3.96799C20.4216 4.18436 20.9745 4.06415 21.3592 3.70354C21.7438 3.31889 21.9842 2.79 21.9842 2.18899C21.9842 1.58797 21.7438 1.03504 21.3351 0.650391C21.4313 1.17928 21.4072 1.53989 21.1909 2.0207C21.0467 2.33323 20.9505 2.33323 20.7822 2.50151C20.662 2.9102 20.2774 3.19869 19.8207 3.19869C19.5563 3.19869 19.3399 3.10253 19.1716 2.95829Z" fill="white"/>
</mask>
<g mask="url(#mask2_2736_77)">
<path d="M22.2304 0.601074H19.2263V4.20621H22.2304V0.601074Z" fill="url(#paint2_linear_2736_77)"/>
</g>
<mask id="mask3_2736_77" style="mask-type:luminance" maskUnits="userSpaceOnUse" x="18" y="0" width="4" height="3">
<path d="M20.5892 2.81275C21.0219 2.76467 21.4306 2.47618 21.5989 2.04345C21.8152 1.56264 21.695 1.0097 21.3344 0.625055C20.9498 0.240406 20.4209 0 19.82 0C19.219 0 18.6661 0.240406 18.2815 0.649096C18.6421 0.288487 19.219 0.168284 19.6998 0.384649C20.1084 0.552933 20.3969 0.961623 20.469 1.39435C20.6854 1.58668 20.8296 1.85112 20.8296 2.16365C20.8056 2.4281 20.7335 2.64446 20.5892 2.81275Z" fill="white"/>
</mask>
<g mask="url(#mask3_2736_77)">
<path d="M17.388 1.57321L21.1676 3.78662L22.8068 0.987121L19.0271 -1.22629L17.388 1.57321Z" fill="url(#paint3_linear_2736_77)"/>
</g>
<path opacity="0.3" fill-rule="evenodd" clip-rule="evenodd" d="M19.0269 1.54102C18.5942 1.5891 18.1855 1.87758 18.0172 2.31031C17.8249 2.76709 17.9211 3.29598 18.2336 3.68063C18.0172 3.3681 17.9932 2.95941 18.1615 2.62284C18.1855 2.5988 18.1855 2.55072 18.2095 2.52668C18.3538 2.31031 18.5461 2.16607 18.7865 2.06991C18.8345 1.87758 18.9067 1.7093 19.0269 1.54102Z" fill="#005C01"/>
<path opacity="0.3" fill-rule="evenodd" clip-rule="evenodd" d="M21.1181 2.13921C21.0219 2.21133 20.9017 2.25942 20.8056 2.3075C20.7815 2.49982 20.7094 2.69215 20.5892 2.83639C21.0219 2.78831 21.4306 2.49982 21.5989 2.06709C21.7912 1.61032 21.695 1.08143 21.3825 0.696777C21.6229 1.05739 21.6229 1.49012 21.4066 1.85072C21.3104 1.97093 21.2142 2.04305 21.1181 2.13921Z" fill="#300C50"/>
<path opacity="0.3" fill-rule="evenodd" clip-rule="evenodd" d="M19.7726 3.36523C19.7486 3.31715 19.7245 3.24503 19.7005 3.17291C19.5082 3.14887 19.3159 3.07675 19.1716 2.95654C19.2197 3.38927 19.5082 3.79796 19.9409 3.96625C20.3976 4.15857 20.9265 4.06241 21.3111 3.74988C20.9505 3.99029 20.5178 3.99029 20.1572 3.77392C19.989 3.65372 19.8688 3.53352 19.7726 3.36523Z" fill="#300C50"/>
<path fill-rule="evenodd" clip-rule="evenodd" d="M21.5999 2.06775C21.4316 2.47644 21.0229 2.76493 20.5902 2.83705C20.3979 3.05342 20.1335 3.19766 19.821 3.19766C19.7729 3.19766 19.7489 3.19766 19.7008 3.19766C19.7248 3.26978 19.7489 3.31786 19.7729 3.38998C19.845 3.53423 19.9652 3.65443 20.1095 3.75059C20.2297 3.75059 20.3739 3.72655 20.4941 3.67847C21.0229 3.53423 21.4556 3.12554 21.672 2.62068C21.9124 2.04371 21.8403 1.39462 21.5037 0.865723C21.7201 1.20229 21.7681 1.65906 21.5999 2.06775Z" fill="#E00000"/>
<path fill-rule="evenodd" clip-rule="evenodd" d="M19.9409 3.96903C19.5322 3.80075 19.2438 3.39206 19.1717 2.95933C18.9553 2.767 18.8111 2.50255 18.8111 2.19003C18.8111 2.14195 18.8111 2.11791 18.8111 2.06982C18.739 2.09386 18.6909 2.11791 18.6188 2.14195C18.4745 2.21407 18.3543 2.33427 18.2582 2.47851C18.2582 2.59872 18.2822 2.74296 18.3303 2.86316C18.4745 3.39206 18.8832 3.82479 19.388 4.04115C19.9649 4.28156 20.614 4.20943 21.1428 3.87287C20.7823 4.11327 20.3255 4.13731 19.9409 3.96903Z" fill="#E00000"/>
<path fill-rule="evenodd" clip-rule="evenodd" d="M18.0184 2.30784C18.1866 1.89915 18.5953 1.61066 19.028 1.53854C19.2203 1.32218 19.4847 1.17793 19.7972 1.17793C19.8453 1.17793 19.8693 1.17793 19.9174 1.17793C19.8934 1.10581 19.8693 1.05773 19.8453 0.985609C19.7732 0.841365 19.653 0.721162 19.5088 0.625C19.3886 0.625 19.2443 0.64904 19.1241 0.697122C18.5953 0.841365 18.1626 1.25006 17.9462 1.75491C17.7058 2.33188 17.778 2.98098 18.1145 3.50987C17.8982 3.14926 17.8501 2.71653 18.0184 2.30784Z" fill="#E00000"/>
<path d="M11.8644 3.48486L12.9462 4.47053L23.2348 21.8278C23.5954 22.4048 23.1627 23.15 22.4655 23.15H20.0617C19.7492 23.15 19.4607 22.9818 19.2924 22.7173L9.05188 5.14366L11.8644 3.48486Z" fill="url(#paint4_linear_2736_77)"/>
<path d="M9.26779 17.9562L11.0947 19.1342C11.5034 19.3986 11.6236 19.9035 11.3832 20.3122L11.3111 20.4564C10.7582 21.394 10.0611 22.2354 9.17164 22.8845C5.56581 25.5049 2.53692 22.9566 2.53692 22.9566C-1.59776 19.9756 0.565738 15.504 0.565738 15.504L6.88795 4.75791C7.44084 3.84437 8.33028 3.17123 9.38798 2.97891C12.1044 2.49809 13.0659 4.70983 13.114 4.85407C11.6236 4.13285 10.7582 5.55125 10.7582 5.55125L4.43599 16.6099C3.11385 18.6534 4.74849 19.6871 4.74849 19.6871C6.47929 20.9132 7.75335 18.7255 7.75335 18.7255L8.01777 18.2687C8.2822 17.836 8.83509 17.6917 9.26779 17.9562Z" fill="url(#paint5_linear_2736_77)"/>
<path d="M18.8116 7.4267L13.3548 16.9227C13.1144 17.3555 12.5375 17.4997 12.1048 17.2353L10.2778 16.0573C9.86915 15.7928 9.74895 15.288 9.98934 14.8793L14.7731 6.60932C15.8548 4.3495 17.0808 4.37354 17.0808 4.37354C18.2106 4.25334 19.052 5.21496 19.1722 5.91214C19.2202 6.44103 19.076 6.96992 18.8116 7.4267Z" fill="url(#paint6_linear_2736_77)"/>
<path opacity="0.3" d="M12.9696 4.56919C12.9696 4.56919 10.5416 3.3912 9.74836 4.52111L4.43578 12.8632L2.7771 11.7092L7.10409 4.44899C7.10409 4.44899 8.69065 2.11705 11.5272 3.22292C12.0561 3.41524 12.5609 3.89605 12.9696 4.56919Z" fill="url(#paint7_linear_2736_77)"/>
<path opacity="0.3" d="M18.3995 4.75879C18.3995 4.75879 19.7137 5.48898 18.9075 7.23685L13.2177 17.125L12.4725 16.6202C12.0879 16.3557 11.9917 15.8509 12.2081 15.4662L18.3995 4.75879Z" fill="url(#paint8_linear_2736_77)"/>
<defs>
<linearGradient id="paint0_linear_2736_77" x1="18.0418" y1="1.91676" x2="22.1552" y2="1.00284" gradientUnits="userSpaceOnUse">
<stop stop-color="#E00000"/>
<stop offset="1"/>
</linearGradient>
<linearGradient id="paint1_linear_2736_77" x1="18.6158" y1="2.83564" x2="21.3706" y2="2.12767" gradientUnits="userSpaceOnUse">
<stop stop-color="#E00000"/>
<stop offset="1"/>
</linearGradient>
<linearGradient id="paint2_linear_2736_77" x1="20.1889" y1="3.19847" x2="21.6595" y2="0.328983" gradientUnits="userSpaceOnUse">
<stop stop-color="#E00000"/>
<stop offset="1"/>
</linearGradient>
<linearGradient id="paint3_linear_2736_77" x1="21.1374" y1="1.0604" x2="18.8308" y2="3.14418" gradientUnits="userSpaceOnUse">
<stop stop-color="#E00000"/>
<stop offset="1"/>
</linearGradient>
<linearGradient id="paint4_linear_2736_77" x1="19.2023" y1="21.9247" x2="12.5408" y2="3.55746" gradientUnits="userSpaceOnUse">
<stop stop-color="white"/>
<stop offset="1" stop-color="#D2D4D9"/>
</linearGradient>
<linearGradient id="paint5_linear_2736_77" x1="5.49341" y1="18.6482" x2="14.404" y2="3.70262" gradientUnits="userSpaceOnUse">
<stop stop-color="white"/>
<stop offset="1" stop-color="#DAE1F1"/>
</linearGradient>
<linearGradient id="paint6_linear_2736_77" x1="12.8512" y1="13.7328" x2="18.6" y2="4.0905" gradientUnits="userSpaceOnUse">
<stop stop-color="white"/>
<stop offset="1" stop-color="#DBDFE9"/>
</linearGradient>
<linearGradient id="paint7_linear_2736_77" x1="4.22739" y1="10.0946" x2="11.5782" y2="3.03495" gradientUnits="userSpaceOnUse">
<stop stop-color="#DBDFE9" stop-opacity="0"/>
<stop offset="0.6089" stop-color="#9A9A9A"/>
</linearGradient>
<linearGradient id="paint8_linear_2736_77" x1="13.0967" y1="13.7073" x2="20.671" y2="9.63639" gradientUnits="userSpaceOnUse">
<stop stop-color="#DBDFE9" stop-opacity="0"/>
<stop offset="0.6089" stop-color="#9A9A9A"/>
</linearGradient>
</defs>
</svg>
