<svg width="53" height="44" viewBox="0 0 53 44" fill="none" xmlns="http://www.w3.org/2000/svg">
<path d="M30.9068 19.9614H2.2894C1.03023 19.9614 0 20.9917 0 22.2508V41.7107C0 42.9699 1.03023 44.0001 2.2894 44.0001H30.9068C32.166 44.0001 33.1962 42.9699 33.1962 41.7107V22.2508C33.1962 20.9917 32.166 19.9614 30.9068 19.9614ZM14.5949 37.1319L14.0912 34.8425H11.0921L10.5885 37.1319H8.24182L10.3366 27.7225C10.4511 27.1959 10.9204 26.8296 11.4584 26.8296H13.7478C14.2858 26.8296 14.7437 27.2074 14.8696 27.7225L16.9644 37.1319H14.6178H14.5949ZM24.9544 29.119H23.2374V34.8425H24.9544V37.1319H19.2309V34.8425H20.948V29.119H19.2309V26.8296H24.9544V29.119Z" fill="#E00000"/>
<path d="M12.361 29.1187L11.6055 32.5527H13.5743L12.8188 29.1187H12.361Z" fill="#E00000"/>
<path d="M50.5801 0C51.8391 0 52.869 1.03005 52.8691 2.28906V27.4727C52.8691 28.7318 51.8392 29.7617 50.5801 29.7617H36.8438L46.1445 16.6338C50.9736 5.90227 34.7944 3.14746 32.2646 3.14746H9.37109V2.28906C9.37128 1.03016 10.4013 0.000181557 11.6602 0H50.5801Z" fill="white" fill-opacity="0.12"/>
<path d="M49.5098 1.07324C50.7688 1.07324 51.7986 2.10329 51.7988 3.3623V28.5459C51.7988 29.8051 50.7689 30.835 49.5098 30.835H35.7734V21.6777C35.7734 19.148 33.7241 17.0986 31.1943 17.0986H8.30078V3.3623C8.30096 2.1034 9.33094 1.07342 10.5898 1.07324H49.5098ZM21.6855 8.58887V10.0713L29.8564 13.6836V11.6279L24.2871 9.33008L29.8564 7.0332V4.97656L21.6855 8.58887ZM33.9238 7.03223L39.4932 9.3291L33.9238 11.627V13.6836L42.0947 10.0713V8.58887L33.9238 4.97656V7.03223Z" fill="#E00000"/>
</svg>
