<svg width="82" height="48" viewBox="0 0 82 48" fill="none" xmlns="http://www.w3.org/2000/svg">
<rect width="82" height="48" rx="6" fill="#F0FDFF"/>
<path d="M52.336 30.16C51.5573 30.16 50.8267 30.016 50.144 29.728C49.472 29.4293 48.88 29.0187 48.368 28.496C47.8667 27.9733 47.472 27.3653 47.184 26.672C46.896 25.9787 46.752 25.232 46.752 24.432C46.752 23.632 46.896 22.8907 47.184 22.208C47.472 21.5147 47.872 20.9067 48.384 20.384C48.896 19.8613 49.4933 19.456 50.176 19.168C50.8693 18.88 51.6213 18.736 52.432 18.736C53.3173 18.736 54.1333 18.9067 54.88 19.248C55.6267 19.5893 56.2507 20.08 56.752 20.72L55.712 21.76C55.36 21.248 54.896 20.8587 54.32 20.592C53.744 20.3147 53.1147 20.176 52.432 20.176C51.6213 20.176 50.9013 20.3573 50.272 20.72C49.6533 21.0827 49.168 21.584 48.816 22.224C48.4747 22.864 48.304 23.6 48.304 24.432C48.304 25.2747 48.48 26.016 48.832 26.656C49.184 27.296 49.6587 27.7973 50.256 28.16C50.8533 28.5227 51.536 28.704 52.304 28.704C53.0827 28.704 53.7547 28.5547 54.32 28.256C54.896 27.9573 55.3387 27.52 55.648 26.944C55.9573 26.3573 56.112 25.6427 56.112 24.8L57.024 25.456H52.224V24.08H57.664V24.304C57.664 25.5947 57.4347 26.6773 56.976 27.552C56.528 28.416 55.8987 29.0667 55.088 29.504C54.288 29.9413 53.3707 30.16 52.336 30.16ZM64.9968 30.16C64.2074 30.16 63.4714 30.016 62.7888 29.728C62.1061 29.4293 61.5087 29.0187 60.9967 28.496C60.4847 27.9627 60.0847 27.3493 59.7967 26.656C59.5194 25.9627 59.3807 25.2213 59.3807 24.432C59.3807 23.632 59.5194 22.8907 59.7967 22.208C60.0847 21.5147 60.4794 20.9067 60.9807 20.384C61.4927 19.8613 62.0848 19.456 62.7568 19.168C63.4394 18.88 64.1754 18.736 64.9648 18.736C65.7541 18.736 66.4848 18.88 67.1568 19.168C67.8394 19.456 68.4368 19.8613 68.9488 20.384C69.4608 20.9067 69.8608 21.5147 70.1488 22.208C70.4368 22.9013 70.5808 23.648 70.5808 24.448C70.5808 25.2373 70.4368 25.9787 70.1488 26.672C69.8608 27.3653 69.4608 27.9733 68.9488 28.496C68.4474 29.0187 67.8554 29.4293 67.1728 29.728C66.5008 30.016 65.7754 30.16 64.9968 30.16ZM64.9648 28.72C65.7648 28.72 66.4634 28.5387 67.0608 28.176C67.6688 27.8027 68.1488 27.296 68.5008 26.656C68.8528 26.0053 69.0288 25.264 69.0288 24.432C69.0288 23.8133 68.9274 23.248 68.7248 22.736C68.5221 22.2133 68.2394 21.76 67.8767 21.376C67.5141 20.992 67.0874 20.6987 66.5968 20.496C66.1061 20.2827 65.5621 20.176 64.9648 20.176C64.1754 20.176 63.4768 20.3573 62.8688 20.72C62.2714 21.0827 61.7967 21.584 61.4448 22.224C61.1034 22.864 60.9327 23.6 60.9327 24.432C60.9327 25.0507 61.0287 25.6267 61.2207 26.16C61.4234 26.6827 61.7008 27.136 62.0528 27.52C62.4154 27.8933 62.8421 28.1867 63.3327 28.4C63.8341 28.6133 64.3781 28.72 64.9648 28.72Z" fill="black"/>
<path d="M13.8018 22.7347C13.7687 22.7347 13.7356 22.7015 13.7687 22.6684L14.0005 22.3373C14.0336 22.3041 14.0667 22.271 14.1329 22.271H18.3051C18.3382 22.271 18.3713 22.3041 18.3382 22.3373L18.1395 22.6353C18.1064 22.6684 18.0733 22.7015 18.0071 22.7015L13.8018 22.7347ZM12.0468 23.7944C12.0137 23.7944 11.9806 23.7612 12.0137 23.7281L12.2455 23.397C12.2786 23.3639 12.3117 23.3307 12.378 23.3307H17.709C17.7422 23.3307 17.7753 23.3639 17.7753 23.397L17.6759 23.7281C17.6759 23.7612 17.6097 23.7944 17.5766 23.7944H12.0468ZM14.8614 24.8872C14.8283 24.8872 14.7952 24.8541 14.8283 24.821L14.9938 24.5229C15.0269 24.4898 15.0601 24.4567 15.1263 24.4567H17.4441C17.4773 24.4567 17.5104 24.4898 17.5104 24.5229L17.4773 24.7878C17.4773 24.821 17.4441 24.8541 17.411 24.8541L14.8614 24.8872ZM26.9805 22.5028L25.0269 22.9996C24.8613 23.0327 24.8282 23.0658 24.6957 22.8671C24.5302 22.6684 24.3977 22.536 24.1328 22.4366C23.4044 22.0723 22.6759 22.1717 22.0136 22.6022C21.219 23.0989 20.8216 23.8606 20.8216 24.821C20.8216 25.7482 21.4839 26.5099 22.411 26.6423C23.2057 26.7417 23.8679 26.4768 24.3977 25.8807C24.4971 25.7482 24.5964 25.6157 24.7289 25.4502H22.4772C22.2454 25.4502 22.1792 25.2846 22.2454 25.0859C22.411 24.7216 22.6759 24.1255 22.8415 23.8275C22.8746 23.7612 22.9739 23.6288 23.1395 23.6288H27.3779C27.3447 23.9599 27.3447 24.258 27.3116 24.5891C27.1792 25.417 26.8812 26.2118 26.3514 26.8741C25.5236 27.967 24.4309 28.6624 23.0401 28.8611C21.8812 29.0267 20.8216 28.7949 19.8945 28.0994C19.0335 27.4371 18.5369 26.5761 18.4044 25.5164C18.2388 24.258 18.6362 23.0989 19.3978 22.1055C20.2256 21.0126 21.3183 20.3172 22.6759 20.0854C23.7686 19.8867 24.8282 20.0191 25.7553 20.6484C26.3845 21.0457 26.8149 21.6087 27.113 22.3041C27.1461 22.4366 27.113 22.4697 26.9805 22.5028Z" fill="#00ACD7"/>
<path d="M30.8233 28.96C29.7637 28.9268 28.8035 28.6288 27.9757 27.9334C27.2803 27.3373 26.8499 26.5756 26.7174 25.6815C26.5187 24.3568 26.883 23.1978 27.6777 22.1712C28.5386 21.0453 29.5651 20.4823 30.9558 20.2174C32.1478 20.0187 33.2736 20.118 34.267 20.8134C35.1942 21.4426 35.7571 22.3037 35.9226 23.4296C36.1213 25.0192 35.6577 26.2776 34.5981 27.3704C33.8366 28.1652 32.8763 28.6288 31.8167 28.8606C31.4525 28.9268 31.1213 28.9268 30.8233 28.96ZM33.6048 24.2575C33.6048 24.0919 33.6048 23.9926 33.5717 23.8601C33.373 22.701 32.3134 22.0387 31.1876 22.3037C30.0949 22.5355 29.3995 23.2309 29.1346 24.3237C28.9359 25.2179 29.3664 26.1451 30.1942 26.5425C30.8233 26.8074 31.4856 26.7743 32.0816 26.4763C33.0419 26.0126 33.5385 25.251 33.6048 24.2575Z" fill="#00ACD7"/>
</svg>
