<svg width="223" height="48" viewBox="0 0 223 48" fill="none" xmlns="http://www.w3.org/2000/svg">
<rect width="223" height="48" rx="6" fill="#FEF3F2"/>
<path d="M52.336 30.16C51.5573 30.16 50.8267 30.016 50.144 29.728C49.472 29.4293 48.88 29.0187 48.368 28.496C47.8667 27.9733 47.472 27.3653 47.184 26.672C46.896 25.9787 46.752 25.232 46.752 24.432C46.752 23.632 46.896 22.8907 47.184 22.208C47.472 21.5147 47.872 20.9067 48.384 20.384C48.896 19.8613 49.4933 19.456 50.176 19.168C50.8693 18.88 51.6213 18.736 52.432 18.736C53.3173 18.736 54.1333 18.9067 54.88 19.248C55.6267 19.5893 56.2507 20.08 56.752 20.72L55.712 21.76C55.36 21.248 54.896 20.8587 54.32 20.592C53.744 20.3147 53.1147 20.176 52.432 20.176C51.6213 20.176 50.9013 20.3573 50.272 20.72C49.6533 21.0827 49.168 21.584 48.816 22.224C48.4747 22.864 48.304 23.6 48.304 24.432C48.304 25.2747 48.48 26.016 48.832 26.656C49.184 27.296 49.6587 27.7973 50.256 28.16C50.8533 28.5227 51.536 28.704 52.304 28.704C53.0827 28.704 53.7547 28.5547 54.32 28.256C54.896 27.9573 55.3387 27.52 55.648 26.944C55.9573 26.3573 56.112 25.6427 56.112 24.8L57.024 25.456H52.224V24.08H57.664V24.304C57.664 25.5947 57.4347 26.6773 56.976 27.552C56.528 28.416 55.8987 29.0667 55.088 29.504C54.288 29.9413 53.3707 30.16 52.336 30.16ZM63.063 30.16C62.3163 30.16 61.6443 29.984 61.047 29.632C60.4497 29.28 59.975 28.8053 59.623 28.208C59.271 27.6 59.095 26.9227 59.095 26.176C59.095 25.44 59.271 24.7787 59.623 24.192C59.975 23.5947 60.4497 23.12 61.047 22.768C61.6443 22.416 62.3163 22.24 63.063 22.24C63.799 22.24 64.4657 22.416 65.063 22.768C65.671 23.1093 66.151 23.5787 66.503 24.176C66.855 24.7733 67.031 25.44 67.031 26.176C67.031 26.9227 66.855 27.6 66.503 28.208C66.151 28.8053 65.671 29.28 65.063 29.632C64.4657 29.984 63.799 30.16 63.063 30.16ZM63.063 28.768C63.543 28.768 63.9697 28.656 64.343 28.432C64.7163 28.208 65.0097 27.904 65.223 27.52C65.4363 27.1253 65.543 26.6773 65.543 26.176C65.543 25.6853 65.431 25.248 65.207 24.864C64.9937 24.48 64.7003 24.1813 64.327 23.968C63.9643 23.744 63.543 23.632 63.063 23.632C62.583 23.632 62.1563 23.744 61.783 23.968C61.4097 24.1813 61.1163 24.48 60.903 24.864C60.6897 25.248 60.583 25.6853 60.583 26.176C60.583 26.6773 60.6897 27.1253 60.903 27.52C61.1163 27.904 61.4097 28.208 61.783 28.432C62.1563 28.656 62.583 28.768 63.063 28.768ZM72.2855 30.16C71.5388 30.16 70.8668 29.984 70.2695 29.632C69.6722 29.28 69.1975 28.8053 68.8455 28.208C68.4935 27.6 68.3175 26.9227 68.3175 26.176C68.3175 25.44 68.4935 24.7787 68.8455 24.192C69.1975 23.5947 69.6722 23.12 70.2695 22.768C70.8668 22.416 71.5388 22.24 72.2855 22.24C73.0215 22.24 73.6882 22.416 74.2855 22.768C74.8935 23.1093 75.3735 23.5787 75.7255 24.176C76.0775 24.7733 76.2535 25.44 76.2535 26.176C76.2535 26.9227 76.0775 27.6 75.7255 28.208C75.3735 28.8053 74.8935 29.28 74.2855 29.632C73.6882 29.984 73.0215 30.16 72.2855 30.16ZM72.2855 28.768C72.7655 28.768 73.1922 28.656 73.5655 28.432C73.9388 28.208 74.2322 27.904 74.4455 27.52C74.6588 27.1253 74.7655 26.6773 74.7655 26.176C74.7655 25.6853 74.6535 25.248 74.4295 24.864C74.2162 24.48 73.9228 24.1813 73.5495 23.968C73.1868 23.744 72.7655 23.632 72.2855 23.632C71.8055 23.632 71.3788 23.744 71.0055 23.968C70.6322 24.1813 70.3388 24.48 70.1255 24.864C69.9122 25.248 69.8055 25.6853 69.8055 26.176C69.8055 26.6773 69.9122 27.1253 70.1255 27.52C70.3388 27.904 70.6322 28.208 71.0055 28.432C71.3788 28.656 71.8055 28.768 72.2855 28.768ZM81.188 33.344C80.4093 33.344 79.716 33.2 79.108 32.912C78.5107 32.624 78.0307 32.2187 77.668 31.696L78.596 30.752C78.9053 31.1467 79.2733 31.4453 79.7 31.648C80.1267 31.8613 80.6333 31.968 81.22 31.968C81.9987 31.968 82.612 31.76 83.06 31.344C83.5187 30.9387 83.748 30.3893 83.748 29.696V27.808L84.004 26.096L83.748 24.4V22.4H85.188V29.696C85.188 30.4213 85.0173 31.056 84.676 31.6C84.3453 32.144 83.876 32.5707 83.268 32.88C82.6707 33.1893 81.9773 33.344 81.188 33.344ZM81.188 29.872C80.4947 29.872 79.8707 29.7067 79.316 29.376C78.772 29.0453 78.34 28.592 78.02 28.016C77.7 27.4293 77.54 26.7733 77.54 26.048C77.54 25.3227 77.7 24.6773 78.02 24.112C78.34 23.536 78.772 23.0827 79.316 22.752C79.8707 22.4107 80.4947 22.24 81.188 22.24C81.7853 22.24 82.3133 22.3573 82.772 22.592C83.2307 22.8267 83.5933 23.1573 83.86 23.584C84.1373 24 84.2867 24.4907 84.308 25.056V27.072C84.276 27.6267 84.1213 28.1173 83.844 28.544C83.5773 28.96 83.2147 29.2853 82.756 29.52C82.2973 29.7547 81.7747 29.872 81.188 29.872ZM81.476 28.512C81.9453 28.512 82.356 28.4107 82.708 28.208C83.0707 28.0053 83.348 27.7227 83.54 27.36C83.732 26.9867 83.828 26.5547 83.828 26.064C83.828 25.5733 83.7267 25.1467 83.524 24.784C83.332 24.4107 83.06 24.1227 82.708 23.92C82.356 23.7067 81.94 23.6 81.46 23.6C80.98 23.6 80.5587 23.7067 80.196 23.92C79.8333 24.1227 79.5453 24.4107 79.332 24.784C79.1293 25.1467 79.028 25.568 79.028 26.048C79.028 26.528 79.1293 26.9547 79.332 27.328C79.5453 27.7013 79.8333 27.9947 80.196 28.208C80.5693 28.4107 80.996 28.512 81.476 28.512ZM87.4616 30V18.576H88.9016V30H87.4616ZM94.6885 30.16C93.9312 30.16 93.2485 29.9893 92.6405 29.648C92.0325 29.296 91.5525 28.8213 91.2005 28.224C90.8485 27.6267 90.6725 26.9493 90.6725 26.192C90.6725 25.4453 90.8432 24.7733 91.1845 24.176C91.5365 23.5787 92.0058 23.1093 92.5925 22.768C93.1898 22.416 93.8565 22.24 94.5925 22.24C95.2965 22.24 95.9152 22.4 96.4485 22.72C96.9925 23.04 97.4138 23.4827 97.7125 24.048C98.0218 24.6133 98.1765 25.2533 98.1765 25.968C98.1765 26.0747 98.1712 26.192 98.1605 26.32C98.1498 26.4373 98.1285 26.576 98.0965 26.736H91.6805V25.536H97.3285L96.8005 26C96.8005 25.488 96.7098 25.056 96.5285 24.704C96.3472 24.3413 96.0912 24.064 95.7605 23.872C95.4298 23.6693 95.0298 23.568 94.5605 23.568C94.0698 23.568 93.6378 23.6747 93.2645 23.888C92.8912 24.1013 92.6032 24.4 92.4005 24.784C92.1978 25.168 92.0965 25.6213 92.0965 26.144C92.0965 26.6773 92.2032 27.1467 92.4165 27.552C92.6298 27.9467 92.9338 28.256 93.3285 28.48C93.7232 28.6933 94.1765 28.8 94.6885 28.8C95.1152 28.8 95.5045 28.7253 95.8565 28.576C96.2192 28.4267 96.5285 28.2027 96.7845 27.904L97.7125 28.848C97.3498 29.2747 96.9018 29.6 96.3685 29.824C95.8458 30.048 95.2858 30.16 94.6885 30.16ZM108.691 30.16C107.891 30.16 107.149 30.016 106.467 29.728C105.784 29.4293 105.187 29.0187 104.675 28.496C104.173 27.9733 103.784 27.3653 103.507 26.672C103.229 25.9787 103.091 25.2373 103.091 24.448C103.091 23.648 103.229 22.9013 103.507 22.208C103.784 21.5147 104.173 20.912 104.675 20.4C105.187 19.8773 105.779 19.472 106.451 19.184C107.133 18.8853 107.875 18.736 108.675 18.736C109.549 18.736 110.317 18.8853 110.979 19.184C111.64 19.4827 112.227 19.888 112.739 20.4L111.699 21.44C111.347 21.0453 110.915 20.736 110.403 20.512C109.901 20.288 109.325 20.176 108.675 20.176C108.088 20.176 107.549 20.2827 107.059 20.496C106.568 20.6987 106.141 20.992 105.779 21.376C105.416 21.76 105.133 22.2133 104.931 22.736C104.739 23.2587 104.643 23.8293 104.643 24.448C104.643 25.0667 104.739 25.6373 104.931 26.16C105.133 26.6827 105.416 27.136 105.779 27.52C106.141 27.904 106.568 28.2027 107.059 28.416C107.549 28.6187 108.088 28.72 108.675 28.72C109.368 28.72 109.971 28.608 110.483 28.384C110.995 28.1493 111.427 27.8347 111.779 27.44L112.819 28.464C112.307 28.9973 111.704 29.4133 111.011 29.712C110.328 30.0107 109.555 30.16 108.691 30.16ZM114.57 30V18.576H116.01V30H114.57ZM121.749 30.16C121.003 30.16 120.331 29.984 119.733 29.632C119.136 29.28 118.661 28.8053 118.309 28.208C117.957 27.6 117.781 26.9227 117.781 26.176C117.781 25.44 117.957 24.7787 118.309 24.192C118.661 23.5947 119.136 23.12 119.733 22.768C120.331 22.416 121.003 22.24 121.749 22.24C122.485 22.24 123.152 22.416 123.749 22.768C124.357 23.1093 124.837 23.5787 125.189 24.176C125.541 24.7733 125.717 25.44 125.717 26.176C125.717 26.9227 125.541 27.6 125.189 28.208C124.837 28.8053 124.357 29.28 123.749 29.632C123.152 29.984 122.485 30.16 121.749 30.16ZM121.749 28.768C122.229 28.768 122.656 28.656 123.029 28.432C123.403 28.208 123.696 27.904 123.909 27.52C124.123 27.1253 124.229 26.6773 124.229 26.176C124.229 25.6853 124.117 25.248 123.893 24.864C123.68 24.48 123.387 24.1813 123.013 23.968C122.651 23.744 122.229 23.632 121.749 23.632C121.269 23.632 120.843 23.744 120.469 23.968C120.096 24.1813 119.803 24.48 119.589 24.864C119.376 25.248 119.269 25.6853 119.269 26.176C119.269 26.6773 119.376 27.1253 119.589 27.52C119.803 27.904 120.096 28.208 120.469 28.432C120.843 28.656 121.269 28.768 121.749 28.768ZM130.572 30.16C129.942 30.16 129.377 30.0213 128.876 29.744C128.385 29.456 128.001 29.0613 127.724 28.56C127.446 28.0587 127.308 27.4773 127.308 26.816V22.4H128.748V26.752C128.748 27.168 128.817 27.5307 128.956 27.84C129.105 28.1387 129.318 28.368 129.596 28.528C129.873 28.688 130.198 28.768 130.572 28.768C131.137 28.768 131.58 28.592 131.9 28.24C132.22 27.8773 132.38 27.3813 132.38 26.752V22.4H133.82V26.816C133.82 27.4773 133.681 28.0587 133.404 28.56C133.126 29.0613 132.742 29.456 132.252 29.744C131.772 30.0213 131.212 30.16 130.572 30.16ZM139.126 30.16C138.422 30.16 137.792 29.9893 137.238 29.648C136.683 29.296 136.24 28.8213 135.91 28.224C135.59 27.6267 135.43 26.9547 135.43 26.208C135.43 25.4613 135.59 24.7893 135.91 24.192C136.24 23.5947 136.683 23.12 137.238 22.768C137.792 22.416 138.422 22.24 139.126 22.24C139.691 22.24 140.203 22.3627 140.662 22.608C141.12 22.8427 141.488 23.1733 141.766 23.6C142.054 24.016 142.214 24.5013 142.246 25.056V27.344C142.214 27.888 142.059 28.3733 141.782 28.8C141.504 29.2267 141.136 29.5627 140.678 29.808C140.219 30.0427 139.702 30.16 139.126 30.16ZM139.366 28.8C139.846 28.8 140.262 28.688 140.614 28.464C140.976 28.24 141.259 27.936 141.462 27.552C141.664 27.1573 141.766 26.7093 141.766 26.208C141.766 25.6853 141.659 25.232 141.446 24.848C141.243 24.464 140.96 24.16 140.598 23.936C140.246 23.712 139.83 23.6 139.35 23.6C138.87 23.6 138.448 23.712 138.086 23.936C137.723 24.16 137.435 24.4693 137.222 24.864C137.019 25.248 136.918 25.6907 136.918 26.192C136.918 26.704 137.019 27.1573 137.222 27.552C137.435 27.936 137.723 28.24 138.086 28.464C138.459 28.688 138.886 28.8 139.366 28.8ZM143.126 30H141.67V27.952L141.942 26.096L141.67 24.256V18.576H143.126V30ZM150.134 25.68V24.368H153.158C153.574 24.368 153.942 24.2827 154.262 24.112C154.593 23.9413 154.849 23.7013 155.03 23.392C155.222 23.0827 155.318 22.7147 155.318 22.288C155.318 21.8613 155.222 21.4933 155.03 21.184C154.849 20.8747 154.593 20.6347 154.262 20.464C153.942 20.2933 153.574 20.208 153.158 20.208H150.134V18.896H153.254C153.937 18.896 154.545 19.0347 155.078 19.312C155.622 19.5893 156.049 19.984 156.358 20.496C156.678 20.9973 156.838 21.5947 156.838 22.288C156.838 22.9707 156.678 23.568 156.358 24.08C156.049 24.5813 155.622 24.976 155.078 25.264C154.545 25.5413 153.937 25.68 153.254 25.68H150.134ZM149.126 30V18.896H150.63V30H149.126ZM158.733 30V18.576H160.173V30H158.733ZM165.672 30.16C164.979 30.16 164.35 29.9893 163.784 29.648C163.219 29.296 162.771 28.8213 162.44 28.224C162.12 27.6267 161.96 26.9547 161.96 26.208C161.96 25.4613 162.12 24.7893 162.44 24.192C162.771 23.5947 163.214 23.12 163.768 22.768C164.334 22.416 164.968 22.24 165.672 22.24C166.248 22.24 166.76 22.3627 167.208 22.608C167.667 22.8427 168.035 23.1733 168.312 23.6C168.59 24.016 168.744 24.5013 168.776 25.056V27.344C168.744 27.888 168.59 28.3733 168.312 28.8C168.046 29.2267 167.683 29.5627 167.224 29.808C166.776 30.0427 166.259 30.16 165.672 30.16ZM165.912 28.8C166.627 28.8 167.203 28.56 167.64 28.08C168.078 27.5893 168.296 26.9653 168.296 26.208C168.296 25.6853 168.195 25.232 167.992 24.848C167.8 24.4533 167.523 24.1493 167.16 23.936C166.798 23.712 166.376 23.6 165.896 23.6C165.416 23.6 164.99 23.712 164.616 23.936C164.254 24.16 163.966 24.4693 163.752 24.864C163.55 25.248 163.448 25.6907 163.448 26.192C163.448 26.704 163.55 27.1573 163.752 27.552C163.966 27.936 164.259 28.24 164.632 28.464C165.006 28.688 165.432 28.8 165.912 28.8ZM168.2 30V27.952L168.472 26.096L168.2 24.256V22.4H169.656V30H168.2ZM173.05 30V19.216H174.49V30H173.05ZM171.178 23.712V22.4H176.362V23.712H171.178ZM178.739 30V21.264C178.739 20.6987 178.862 20.208 179.107 19.792C179.352 19.3653 179.688 19.0293 180.115 18.784C180.552 18.5387 181.059 18.416 181.635 18.416C182.072 18.416 182.451 18.4907 182.771 18.64C183.091 18.7893 183.384 19.008 183.651 19.296L182.707 20.224C182.568 20.0747 182.414 19.9627 182.243 19.888C182.072 19.8027 181.864 19.76 181.619 19.76C181.16 19.76 180.803 19.8933 180.547 20.16C180.302 20.4267 180.179 20.7947 180.179 21.264V30H178.739ZM176.867 23.712V22.4H182.595V23.712H176.867ZM187.236 30.16C186.489 30.16 185.817 29.984 185.22 29.632C184.623 29.28 184.148 28.8053 183.796 28.208C183.444 27.6 183.268 26.9227 183.268 26.176C183.268 25.44 183.444 24.7787 183.796 24.192C184.148 23.5947 184.623 23.12 185.22 22.768C185.817 22.416 186.489 22.24 187.236 22.24C187.972 22.24 188.639 22.416 189.236 22.768C189.844 23.1093 190.324 23.5787 190.676 24.176C191.028 24.7733 191.204 25.44 191.204 26.176C191.204 26.9227 191.028 27.6 190.676 28.208C190.324 28.8053 189.844 29.28 189.236 29.632C188.639 29.984 187.972 30.16 187.236 30.16ZM187.236 28.768C187.716 28.768 188.143 28.656 188.516 28.432C188.889 28.208 189.183 27.904 189.396 27.52C189.609 27.1253 189.716 26.6773 189.716 26.176C189.716 25.6853 189.604 25.248 189.38 24.864C189.167 24.48 188.873 24.1813 188.5 23.968C188.137 23.744 187.716 23.632 187.236 23.632C186.756 23.632 186.329 23.744 185.956 23.968C185.583 24.1813 185.289 24.48 185.076 24.864C184.863 25.248 184.756 25.6853 184.756 26.176C184.756 26.6773 184.863 27.1253 185.076 27.52C185.289 27.904 185.583 28.208 185.956 28.432C186.329 28.656 186.756 28.768 187.236 28.768ZM192.987 30V22.4H194.427V30H192.987ZM194.427 25.664L193.883 25.424C193.883 24.4533 194.107 23.68 194.555 23.104C195.003 22.528 195.648 22.24 196.491 22.24C196.875 22.24 197.221 22.3093 197.531 22.448C197.84 22.576 198.128 22.7947 198.395 23.104L197.451 24.08C197.291 23.9093 197.115 23.7867 196.923 23.712C196.731 23.6373 196.507 23.6 196.251 23.6C195.717 23.6 195.28 23.7707 194.939 24.112C194.597 24.4533 194.427 24.9707 194.427 25.664ZM199.6 30V22.4H201.04V30H199.6ZM204.736 30V25.408C204.736 24.8427 204.56 24.4 204.208 24.08C203.866 23.7493 203.434 23.584 202.912 23.584C202.56 23.584 202.245 23.6587 201.968 23.808C201.69 23.9573 201.466 24.1653 201.296 24.432C201.125 24.6987 201.04 25.0187 201.04 25.392L200.448 25.104C200.448 24.528 200.57 24.0267 200.816 23.6C201.072 23.1733 201.418 22.8427 201.856 22.608C202.293 22.3627 202.784 22.24 203.328 22.24C203.861 22.24 204.341 22.3573 204.768 22.592C205.205 22.8267 205.546 23.1573 205.792 23.584C206.048 24.0107 206.176 24.5173 206.176 25.104V30H204.736ZM209.872 30V25.408C209.872 24.8427 209.696 24.4 209.344 24.08C209.002 23.7493 208.576 23.584 208.064 23.584C207.712 23.584 207.392 23.6587 207.104 23.808C206.826 23.9573 206.602 24.1653 206.432 24.432C206.261 24.6987 206.176 25.0187 206.176 25.392L205.36 25.104C205.392 24.5173 205.546 24.016 205.824 23.6C206.112 23.1733 206.48 22.8427 206.928 22.608C207.376 22.3627 207.866 22.24 208.4 22.24C208.954 22.24 209.45 22.3573 209.888 22.592C210.325 22.8267 210.672 23.1573 210.928 23.584C211.194 24.0107 211.328 24.5227 211.328 25.12V30H209.872Z" fill="black"/>
<path d="M26.9203 19.5595H27.6859L29.867 17.3784L29.9743 16.453C25.916 12.8711 19.7209 13.2571 16.139 17.3153C15.1431 18.4426 14.4207 19.7835 14.0273 21.2347C14.2703 21.1348 14.5395 21.119 14.7929 21.1885L19.154 20.4691C19.154 20.4691 19.3759 20.1021 19.4906 20.1253C21.4308 17.9947 24.6961 17.7465 26.9361 19.5595H26.9203Z" fill="#EA4335"/>
<path d="M32.9699 21.2349C32.4683 19.3892 31.4398 17.7298 30.0085 16.4604L26.9483 19.5207C28.2407 20.5765 28.9769 22.1676 28.9453 23.8366V24.3803C30.4502 24.3803 31.669 25.6002 31.669 27.104C31.669 28.6089 30.4491 29.8277 28.9453 29.8277H23.4968L22.9531 30.3788V33.6462L23.4968 34.1899H28.9453C32.0687 34.2141 34.8397 32.1897 35.7672 29.2073C36.6927 26.2238 35.5569 22.9848 32.9699 21.2349Z" fill="#4285F4"/>
<path d="M18.0437 34.1594H23.4921V29.7983H18.0437C17.6556 29.7983 17.2718 29.7152 16.9184 29.5532L16.1528 29.7898L13.957 31.9709L13.7656 32.7365C14.9971 33.6661 16.4999 34.1657 18.0437 34.1594Z" fill="#34A853"/>
<path d="M18.0433 20.0108C15.0167 20.0287 12.3361 21.9668 11.3707 24.8346C10.4053 27.7024 11.3676 30.8678 13.7663 32.7124L16.9265 29.5522C15.5552 28.9328 14.9463 27.3196 15.5657 25.9483C16.1851 24.577 17.7983 23.9681 19.1696 24.5875C19.7732 24.8609 20.257 25.3446 20.5304 25.9483L23.6906 22.7881C22.3455 21.0309 20.2559 20.0034 18.0433 20.0108Z" fill="#FBBC05"/>
</svg>
