<svg width="101" height="48" viewBox="0 0 101 48" fill="none" xmlns="http://www.w3.org/2000/svg">
<rect width="101" height="48" rx="6" fill="#FEF4EF"/>
<path d="M47.312 30V18.896H48.816V30H47.312ZM54.48 30V18.896H55.984V30H54.48ZM48.336 24.944V23.568H54.848V24.944H48.336ZM61.7129 30V19.216H63.2169V30H61.7129ZM57.9369 20.272V18.896H66.9769V20.272H57.9369ZM68.9289 30V18.896H69.9849L74.6889 26.624H73.9689L78.6729 18.896H79.7289V30H78.2249V21.536L78.5769 21.632L74.8649 27.728H73.8089L70.0969 21.632L70.4329 21.536V30H68.9289ZM82.5107 30V18.896H84.0147V30H82.5107ZM83.5347 30V28.624H89.4867V30H83.5347Z" fill="black"/>
<path d="M14.7607 33.5178L13 12L34.027 12.0432L32.1653 33.5178L23.5929 36L14.7607 33.5178Z" fill="#E34F26"/>
<path d="M23.5938 33.9219V14.0493L32.2528 14.0781L30.7087 31.858L23.5938 33.9219Z" fill="#EF652A"/>
<path d="M29.8721 19.0139L30.1173 16.3872H16.7969L17.5328 24.4402H26.7259L26.3654 27.8749L23.4212 28.6685L20.4339 27.8027L20.2752 25.7534H17.6339L17.9947 29.9386L23.4211 31.4539L28.8906 29.9386L29.6266 21.7703H19.972L19.6978 19.0139H29.8721Z" fill="white"/>
</svg>
