<svg width="91" height="48" viewBox="0 0 91 48" fill="none" xmlns="http://www.w3.org/2000/svg">
<rect width="91" height="48" rx="6" fill="#F3EBE2"/>
<path d="M49.36 30.16C48.72 30.16 48.1547 30.0373 47.664 29.792C47.184 29.536 46.7893 29.1947 46.48 28.768L47.536 27.792C47.7387 28.0907 47.9893 28.32 48.288 28.48C48.5973 28.64 48.9387 28.72 49.312 28.72C49.6853 28.72 50.016 28.64 50.304 28.48C50.592 28.32 50.816 28.0853 50.976 27.776C51.1467 27.456 51.232 27.0667 51.232 26.608V18.896H52.736V26.528C52.736 27.264 52.5867 27.904 52.288 28.448C52 28.992 51.6 29.4133 51.088 29.712C50.5867 30.0107 50.0107 30.16 49.36 30.16ZM58.3699 30.16C57.6765 30.16 57.0472 29.9893 56.4819 29.648C55.9165 29.296 55.4685 28.8213 55.1379 28.224C54.8179 27.6267 54.6579 26.9547 54.6579 26.208C54.6579 25.4613 54.8179 24.7893 55.1379 24.192C55.4685 23.5947 55.9112 23.12 56.4659 22.768C57.0312 22.416 57.6659 22.24 58.3699 22.24C58.9459 22.24 59.4579 22.3627 59.9059 22.608C60.3645 22.8427 60.7325 23.1733 61.0099 23.6C61.2872 24.016 61.4419 24.5013 61.4739 25.056V27.344C61.4419 27.888 61.2872 28.3733 61.0099 28.8C60.7432 29.2267 60.3805 29.5627 59.9219 29.808C59.4739 30.0427 58.9565 30.16 58.3699 30.16ZM58.6099 28.8C59.3245 28.8 59.9005 28.56 60.3379 28.08C60.7752 27.5893 60.9939 26.9653 60.9939 26.208C60.9939 25.6853 60.8925 25.232 60.6899 24.848C60.4979 24.4533 60.2205 24.1493 59.8579 23.936C59.4952 23.712 59.0739 23.6 58.5939 23.6C58.1139 23.6 57.6872 23.712 57.3139 23.936C56.9512 24.16 56.6632 24.4693 56.4499 24.864C56.2472 25.248 56.1459 25.6907 56.1459 26.192C56.1459 26.704 56.2472 27.1573 56.4499 27.552C56.6632 27.936 56.9565 28.24 57.3299 28.464C57.7032 28.688 58.1299 28.8 58.6099 28.8ZM60.8979 30V27.952L61.1699 26.096L60.8979 24.256V22.4H62.3539V30H60.8979ZM67.2184 30L63.7304 22.4H65.3304L68.1304 28.816H67.2024L70.0184 22.4H71.5544L68.0664 30H67.2184ZM75.893 30.16C75.1997 30.16 74.5703 29.9893 74.005 29.648C73.4397 29.296 72.9917 28.8213 72.661 28.224C72.341 27.6267 72.181 26.9547 72.181 26.208C72.181 25.4613 72.341 24.7893 72.661 24.192C72.9917 23.5947 73.4343 23.12 73.989 22.768C74.5543 22.416 75.189 22.24 75.893 22.24C76.469 22.24 76.981 22.3627 77.429 22.608C77.8877 22.8427 78.2557 23.1733 78.533 23.6C78.8103 24.016 78.965 24.5013 78.997 25.056V27.344C78.965 27.888 78.8103 28.3733 78.533 28.8C78.2663 29.2267 77.9037 29.5627 77.445 29.808C76.997 30.0427 76.4797 30.16 75.893 30.16ZM76.133 28.8C76.8477 28.8 77.4237 28.56 77.861 28.08C78.2983 27.5893 78.517 26.9653 78.517 26.208C78.517 25.6853 78.4157 25.232 78.213 24.848C78.021 24.4533 77.7437 24.1493 77.381 23.936C77.0183 23.712 76.597 23.6 76.117 23.6C75.637 23.6 75.2103 23.712 74.837 23.936C74.4743 24.16 74.1863 24.4693 73.973 24.864C73.7703 25.248 73.669 25.6907 73.669 26.192C73.669 26.704 73.7703 27.1573 73.973 27.552C74.1863 27.936 74.4797 28.24 74.853 28.464C75.2263 28.688 75.653 28.8 76.133 28.8ZM78.421 30V27.952L78.693 26.096L78.421 24.256V22.4H79.877V30H78.421Z" fill="black"/>
<path d="M30.3909 31.5035H30.293V31.4487H30.5567V31.5035H30.4593V31.7769H30.3909V31.5035ZM30.9168 31.5178H30.9153L30.8182 31.777H30.7738L30.6774 31.5178H30.6762V31.777H30.6117V31.4488H30.7066L30.796 31.6812L30.8852 31.4488H30.9798V31.777H30.9168L30.9168 31.5178Z" fill="#E76F00"/>
<path d="M21.6208 24.7919C21.6208 24.7919 20.9393 25.1882 22.1058 25.3223C23.519 25.4835 24.2412 25.4604 25.7985 25.1656C25.7985 25.1656 26.208 25.4224 26.7798 25.6447C23.2887 27.141 18.8787 25.5581 21.6208 24.7919ZM21.1942 22.8394C21.1942 22.8394 20.4298 23.4052 21.5972 23.5259C23.1068 23.6816 24.2989 23.6944 26.3618 23.2972C26.3618 23.2972 26.6472 23.5864 27.0959 23.7446C22.8749 24.9789 18.1735 23.842 21.1942 22.8394Z" fill="#5382A1"/>
<path d="M24.7929 19.527C25.6531 20.5174 24.5669 21.4087 24.5669 21.4087C24.5669 21.4087 26.7511 20.2811 25.748 18.8691C24.8111 17.5523 24.0927 16.8981 27.9821 14.6423C27.9821 14.6423 21.877 16.1671 24.7929 19.527Z" fill="#E76F00"/>
<path d="M29.4097 26.2366C29.4097 26.2366 29.914 26.6522 28.8543 26.9736C26.8391 27.5841 20.4671 27.7684 18.697 26.998C18.0607 26.7211 19.254 26.3369 19.6293 26.2563C20.0208 26.1714 20.2445 26.1873 20.2445 26.1873C19.5368 25.6887 15.6706 27.1661 18.2806 27.5892C25.3986 28.7436 31.256 27.0694 29.4097 26.2366ZM21.9504 20.8168C21.9504 20.8168 18.7092 21.5867 20.8026 21.8662C21.6865 21.9846 23.4485 21.9578 25.0898 21.8203C26.4312 21.7071 27.7781 21.4666 27.7781 21.4666C27.7781 21.4666 27.3051 21.6692 26.9629 21.9028C23.6715 22.7685 17.3132 22.3657 19.1437 21.4803C20.6917 20.7319 21.9504 20.8168 21.9504 20.8168ZM27.7647 24.0669C31.1106 22.3282 29.5636 20.6573 28.4838 20.8825C28.2191 20.9376 28.1011 20.9853 28.1011 20.9853C28.1011 20.9853 28.1994 20.8314 28.387 20.7648C30.5231 20.0138 32.166 22.9798 27.6974 24.1546C27.6974 24.1546 27.7493 24.1083 27.7647 24.0669Z" fill="#5382A1"/>
<path d="M25.7473 11C25.7473 11 27.6003 12.8536 23.9899 15.704C21.0946 17.9905 23.3297 19.2942 23.9887 20.7837C22.2987 19.2589 21.0585 17.9166 21.8905 16.6673C23.1117 14.8335 26.495 13.9444 25.7473 11Z" fill="#E76F00"/>
<path d="M22.2791 28.7782C25.4907 28.9838 30.4225 28.6641 30.5393 27.1445C30.5393 27.1445 30.3148 27.7206 27.885 28.1781C25.1439 28.694 21.763 28.6338 19.7578 28.3032C19.7579 28.3031 20.1684 28.6429 22.2791 28.7782Z" fill="#5382A1"/>
<path d="M21.752 34.5842C21.449 34.847 21.1291 34.9945 20.8419 34.9945C20.432 34.9945 20.2106 34.7487 20.2106 34.3545C20.2106 33.9281 20.4479 33.6163 21.3997 33.6163H21.752L21.752 34.5842ZM22.588 35.5274V32.6077C22.588 31.8618 22.1626 31.3697 21.1369 31.3697C20.5382 31.3697 20.0137 31.5175 19.5874 31.7061L19.7104 32.2229C20.0461 32.0997 20.4805 31.985 20.907 31.985C21.4978 31.985 21.752 32.2229 21.752 32.7147V33.0838H21.4571C20.0216 33.0838 19.374 33.6411 19.374 34.4774C19.374 35.1993 19.8008 35.6096 20.6043 35.6096C21.1207 35.6096 21.5063 35.3963 21.8667 35.0843L21.9321 35.5275L22.588 35.5274ZM25.3779 35.5274H24.3353L23.0805 31.4436H23.9911L24.7697 33.9527L24.9427 34.7073C25.3367 33.6162 25.6153 32.5093 25.7546 31.4436H26.6404C26.403 32.7883 25.976 34.2644 25.3779 35.5274ZM29.3778 34.5842C29.0743 34.847 28.7537 34.9945 28.4665 34.9945C28.0574 34.9945 27.8354 34.7487 27.8354 34.3545C27.8354 33.9281 28.0732 33.6163 29.0249 33.6163H29.3778V34.5842ZM30.2137 35.5274V32.6077C30.2137 31.8618 29.7873 31.3697 28.7627 31.3697C28.1636 31.3697 27.6389 31.5175 27.2128 31.7061L27.3357 32.2229C27.6714 32.0997 28.1067 31.985 28.5328 31.985C29.1232 31.985 29.3778 32.2229 29.3778 32.7147V33.0838H29.0824C27.6465 33.0838 26.9992 33.6411 26.9992 34.4774C26.9992 35.1993 27.4256 35.6096 28.2289 35.6096C28.7457 35.6096 29.1311 35.3963 29.4921 35.0843L29.5578 35.5275L30.2137 35.5274ZM18.4574 36.2209C18.2191 36.5689 17.8342 36.8441 17.4128 36.9999L17 36.5142C17.3208 36.3496 17.5958 36.0838 17.7236 35.8362C17.8342 35.616 17.88 35.3322 17.88 34.6536V29.9912H18.7681V34.5897C18.7681 35.497 18.6956 35.8635 18.4574 36.2209Z" fill="#E76F00"/>
</svg>
