<svg width="134" height="48" viewBox="0 0 134 48" fill="none" xmlns="http://www.w3.org/2000/svg">
<rect width="134" height="48" rx="6" fill="#FFFBE4"/>
<path d="M49.36 30.16C48.72 30.16 48.1547 30.0373 47.664 29.792C47.184 29.536 46.7893 29.1947 46.48 28.768L47.536 27.792C47.7387 28.0907 47.9893 28.32 48.288 28.48C48.5973 28.64 48.9387 28.72 49.312 28.72C49.6853 28.72 50.016 28.64 50.304 28.48C50.592 28.32 50.816 28.0853 50.976 27.776C51.1467 27.456 51.232 27.0667 51.232 26.608V18.896H52.736V26.528C52.736 27.264 52.5867 27.904 52.288 28.448C52 28.992 51.6 29.4133 51.088 29.712C50.5867 30.0107 50.0107 30.16 49.36 30.16ZM58.3699 30.16C57.6765 30.16 57.0472 29.9893 56.4819 29.648C55.9165 29.296 55.4685 28.8213 55.1379 28.224C54.8179 27.6267 54.6579 26.9547 54.6579 26.208C54.6579 25.4613 54.8179 24.7893 55.1379 24.192C55.4685 23.5947 55.9112 23.12 56.4659 22.768C57.0312 22.416 57.6659 22.24 58.3699 22.24C58.9459 22.24 59.4579 22.3627 59.9059 22.608C60.3645 22.8427 60.7325 23.1733 61.0099 23.6C61.2872 24.016 61.4419 24.5013 61.4739 25.056V27.344C61.4419 27.888 61.2872 28.3733 61.0099 28.8C60.7432 29.2267 60.3805 29.5627 59.9219 29.808C59.4739 30.0427 58.9565 30.16 58.3699 30.16ZM58.6099 28.8C59.3245 28.8 59.9005 28.56 60.3379 28.08C60.7752 27.5893 60.9939 26.9653 60.9939 26.208C60.9939 25.6853 60.8925 25.232 60.6899 24.848C60.4979 24.4533 60.2205 24.1493 59.8579 23.936C59.4952 23.712 59.0739 23.6 58.5939 23.6C58.1139 23.6 57.6872 23.712 57.3139 23.936C56.9512 24.16 56.6632 24.4693 56.4499 24.864C56.2472 25.248 56.1459 25.6907 56.1459 26.192C56.1459 26.704 56.2472 27.1573 56.4499 27.552C56.6632 27.936 56.9565 28.24 57.3299 28.464C57.7032 28.688 58.1299 28.8 58.6099 28.8ZM60.8979 30V27.952L61.1699 26.096L60.8979 24.256V22.4H62.3539V30H60.8979ZM67.2184 30L63.7304 22.4H65.3304L68.1304 28.816H67.2024L70.0184 22.4H71.5544L68.0664 30H67.2184ZM75.893 30.16C75.1997 30.16 74.5703 29.9893 74.005 29.648C73.4397 29.296 72.9917 28.8213 72.661 28.224C72.341 27.6267 72.181 26.9547 72.181 26.208C72.181 25.4613 72.341 24.7893 72.661 24.192C72.9917 23.5947 73.4343 23.12 73.989 22.768C74.5543 22.416 75.189 22.24 75.893 22.24C76.469 22.24 76.981 22.3627 77.429 22.608C77.8877 22.8427 78.2557 23.1733 78.533 23.6C78.8103 24.016 78.965 24.5013 78.997 25.056V27.344C78.965 27.888 78.8103 28.3733 78.533 28.8C78.2663 29.2267 77.9037 29.5627 77.445 29.808C76.997 30.0427 76.4797 30.16 75.893 30.16ZM76.133 28.8C76.8477 28.8 77.4237 28.56 77.861 28.08C78.2983 27.5893 78.517 26.9653 78.517 26.208C78.517 25.6853 78.4157 25.232 78.213 24.848C78.021 24.4533 77.7437 24.1493 77.381 23.936C77.0183 23.712 76.597 23.6 76.117 23.6C75.637 23.6 75.2103 23.712 74.837 23.936C74.4743 24.16 74.1863 24.4693 73.973 24.864C73.7703 25.248 73.669 25.6907 73.669 26.192C73.669 26.704 73.7703 27.1573 73.973 27.552C74.1863 27.936 74.4797 28.24 74.853 28.464C75.2263 28.688 75.653 28.8 76.133 28.8ZM78.421 30V27.952L78.693 26.096L78.421 24.256V22.4H79.877V30H78.421ZM85.4775 30.16C84.6028 30.16 83.8562 30 83.2375 29.68C82.6188 29.36 82.0695 28.896 81.5895 28.288L82.6135 27.264C82.9655 27.7547 83.3708 28.128 83.8295 28.384C84.2882 28.6293 84.8535 28.752 85.5255 28.752C86.1868 28.752 86.7148 28.608 87.1095 28.32C87.5148 28.032 87.7175 27.6373 87.7175 27.136C87.7175 26.72 87.6215 26.384 87.4295 26.128C87.2375 25.872 86.9762 25.664 86.6455 25.504C86.3255 25.3333 85.9735 25.184 85.5895 25.056C85.2055 24.9173 84.8215 24.7733 84.4375 24.624C84.0535 24.464 83.7015 24.272 83.3815 24.048C83.0615 23.8133 82.8002 23.5093 82.5975 23.136C82.4055 22.7627 82.3095 22.2933 82.3095 21.728C82.3095 21.0987 82.4588 20.5653 82.7575 20.128C83.0668 19.68 83.4828 19.3387 84.0055 19.104C84.5388 18.8587 85.1362 18.736 85.7975 18.736C86.5228 18.736 87.1735 18.88 87.7495 19.168C88.3255 19.4453 88.7948 19.8133 89.1575 20.272L88.1335 21.296C87.8028 20.912 87.4455 20.624 87.0615 20.432C86.6882 20.24 86.2562 20.144 85.7655 20.144C85.1682 20.144 84.6935 20.2773 84.3415 20.544C83.9895 20.8 83.8135 21.1627 83.8135 21.632C83.8135 22.0053 83.9095 22.3093 84.1015 22.544C84.3042 22.768 84.5655 22.96 84.8855 23.12C85.2055 23.28 85.5575 23.4293 85.9415 23.568C86.3362 23.696 86.7255 23.84 87.1095 24C87.4935 24.16 87.8455 24.3627 88.1655 24.608C88.4855 24.8533 88.7415 25.1733 88.9335 25.568C89.1362 25.952 89.2375 26.4373 89.2375 27.024C89.2375 28.0053 88.8962 28.7733 88.2135 29.328C87.5415 29.8827 86.6295 30.16 85.4775 30.16ZM94.5311 30.16C93.7845 30.16 93.1071 29.984 92.4991 29.632C91.9018 29.28 91.4271 28.8053 91.0751 28.208C90.7338 27.6 90.5631 26.928 90.5631 26.192C90.5631 25.4453 90.7338 24.7733 91.0751 24.176C91.4271 23.5787 91.9018 23.1093 92.4991 22.768C93.1071 22.416 93.7845 22.24 94.5311 22.24C95.1178 22.24 95.6618 22.352 96.1631 22.576C96.6645 22.7893 97.0965 23.104 97.4591 23.52L96.4991 24.48C96.2645 24.2027 95.9765 23.9947 95.6351 23.856C95.3045 23.7067 94.9365 23.632 94.5311 23.632C94.0511 23.632 93.6245 23.744 93.2511 23.968C92.8778 24.1813 92.5845 24.48 92.3711 24.864C92.1578 25.248 92.0511 25.6907 92.0511 26.192C92.0511 26.6933 92.1578 27.136 92.3711 27.52C92.5845 27.904 92.8778 28.208 93.2511 28.432C93.6245 28.656 94.0511 28.768 94.5311 28.768C94.9365 28.768 95.3045 28.6987 95.6351 28.56C95.9765 28.4107 96.2698 28.1973 96.5151 27.92L97.4591 28.88C97.1071 29.2853 96.6751 29.6 96.1631 29.824C95.6618 30.048 95.1178 30.16 94.5311 30.16ZM99.0472 30V22.4H100.487V30H99.0472ZM100.487 25.664L99.9432 25.424C99.9432 24.4533 100.167 23.68 100.615 23.104C101.063 22.528 101.709 22.24 102.551 22.24C102.935 22.24 103.282 22.3093 103.591 22.448C103.901 22.576 104.189 22.7947 104.455 23.104L103.511 24.08C103.351 23.9093 103.175 23.7867 102.983 23.712C102.791 23.6373 102.567 23.6 102.311 23.6C101.778 23.6 101.341 23.7707 100.999 24.112C100.658 24.4533 100.487 24.9707 100.487 25.664ZM105.645 30V22.4H107.085V30H105.645ZM106.365 20.88C106.098 20.88 105.88 20.7947 105.709 20.624C105.538 20.4427 105.453 20.2187 105.453 19.952C105.453 19.696 105.538 19.4827 105.709 19.312C105.88 19.1307 106.098 19.04 106.365 19.04C106.632 19.04 106.85 19.1307 107.021 19.312C107.192 19.4827 107.277 19.696 107.277 19.952C107.277 20.2187 107.192 20.4427 107.021 20.624C106.85 20.7947 106.632 20.88 106.365 20.88ZM113.367 30.16C112.791 30.16 112.269 30.0427 111.799 29.808C111.341 29.5627 110.973 29.2267 110.695 28.8C110.418 28.3733 110.263 27.888 110.231 27.344V25.056C110.263 24.5013 110.418 24.016 110.695 23.6C110.983 23.1733 111.357 22.8427 111.815 22.608C112.285 22.3627 112.802 22.24 113.367 22.24C114.061 22.24 114.685 22.416 115.239 22.768C115.805 23.12 116.247 23.5947 116.567 24.192C116.887 24.7893 117.047 25.4613 117.047 26.208C117.047 26.9547 116.887 27.6267 116.567 28.224C116.247 28.8213 115.805 29.296 115.239 29.648C114.685 29.9893 114.061 30.16 113.367 30.16ZM109.367 33.184V22.4H110.807V24.4L110.535 26.24L110.807 28.096V33.184H109.367ZM113.127 28.8C113.607 28.8 114.029 28.688 114.391 28.464C114.754 28.24 115.042 27.936 115.255 27.552C115.469 27.1573 115.575 26.704 115.575 26.192C115.575 25.6907 115.469 25.2427 115.255 24.848C115.042 24.4533 114.754 24.1493 114.391 23.936C114.029 23.712 113.613 23.6 113.143 23.6C112.663 23.6 112.242 23.712 111.879 23.936C111.517 24.1493 111.234 24.4533 111.031 24.848C110.829 25.2427 110.727 25.696 110.727 26.208C110.727 26.7093 110.823 27.1573 111.015 27.552C111.218 27.936 111.501 28.24 111.863 28.464C112.237 28.688 112.658 28.8 113.127 28.8ZM119.773 30V19.216H121.213V30H119.773ZM117.901 23.712V22.4H123.085V23.712H117.901Z" fill="black"/>
<path d="M14.7607 33.5178L13 12L34.027 12.0432L32.1653 33.5178L23.5929 36L14.7607 33.5178Z" fill="#E9CA32"/>
<path d="M23.5938 33.9219V14.0493L32.2528 14.0781L30.7087 31.858L23.5938 33.9219Z" fill="#FFDE25"/>
<path d="M22.666 16.4087H20.3767V29.6354L18.5962 29.2962V27.5157L16.4766 27.1766V31.1615L22.666 32.7725V16.4087ZM24.3832 16.4087H30.7207L30.2968 18.9438H26.8025V23.1039H30.2968L29.8728 31.5007L24.3832 32.7725V30.1441L28.0923 28.8723L28.3065 25.3961L24.3832 25.9641V16.4087Z" fill="white"/>
</svg>
