<svg width="110" height="48" viewBox="0 0 110 48" fill="none" xmlns="http://www.w3.org/2000/svg">
<rect width="110" height="48" rx="6" fill="#FFF4F4"/>
<path d="M49.36 30.16C48.72 30.16 48.1547 30.0373 47.664 29.792C47.184 29.536 46.7893 29.1947 46.48 28.768L47.536 27.792C47.7387 28.0907 47.9893 28.32 48.288 28.48C48.5973 28.64 48.9387 28.72 49.312 28.72C49.6853 28.72 50.016 28.64 50.304 28.48C50.592 28.32 50.816 28.0853 50.976 27.776C51.1467 27.456 51.232 27.0667 51.232 26.608V18.896H52.736V26.528C52.736 27.264 52.5867 27.904 52.288 28.448C52 28.992 51.6 29.4133 51.088 29.712C50.5867 30.0107 50.0107 30.16 49.36 30.16ZM58.6579 30.16C57.9005 30.16 57.2179 29.9893 56.6099 29.648C56.0019 29.296 55.5219 28.8213 55.1699 28.224C54.8179 27.6267 54.6419 26.9493 54.6419 26.192C54.6419 25.4453 54.8125 24.7733 55.1539 24.176C55.5059 23.5787 55.9752 23.1093 56.5619 22.768C57.1592 22.416 57.8259 22.24 58.5619 22.24C59.2659 22.24 59.8845 22.4 60.4179 22.72C60.9619 23.04 61.3832 23.4827 61.6819 24.048C61.9912 24.6133 62.1459 25.2533 62.1459 25.968C62.1459 26.0747 62.1405 26.192 62.1299 26.32C62.1192 26.4373 62.0979 26.576 62.0659 26.736H55.6499V25.536H61.2979L60.7699 26C60.7699 25.488 60.6792 25.056 60.4979 24.704C60.3165 24.3413 60.0605 24.064 59.7299 23.872C59.3992 23.6693 58.9992 23.568 58.5299 23.568C58.0392 23.568 57.6072 23.6747 57.2339 23.888C56.8605 24.1013 56.5725 24.4 56.3699 24.784C56.1672 25.168 56.0659 25.6213 56.0659 26.144C56.0659 26.6773 56.1725 27.1467 56.3859 27.552C56.5992 27.9467 56.9032 28.256 57.2979 28.48C57.6925 28.6933 58.1459 28.8 58.6579 28.8C59.0845 28.8 59.4739 28.7253 59.8259 28.576C60.1885 28.4267 60.4979 28.2027 60.7539 27.904L61.6819 28.848C61.3192 29.2747 60.8712 29.6 60.3379 29.824C59.8152 30.048 59.2552 30.16 58.6579 30.16ZM69.252 30V25.568C69.252 24.992 69.0707 24.5173 68.708 24.144C68.3453 23.7707 67.876 23.584 67.3 23.584C66.916 23.584 66.5747 23.6693 66.276 23.84C65.9773 24.0107 65.7427 24.2453 65.572 24.544C65.4013 24.8427 65.316 25.184 65.316 25.568L64.724 25.232C64.724 24.656 64.852 24.144 65.108 23.696C65.364 23.248 65.7213 22.896 66.18 22.64C66.6387 22.3733 67.156 22.24 67.732 22.24C68.308 22.24 68.8147 22.384 69.252 22.672C69.7 22.96 70.052 23.3387 70.308 23.808C70.564 24.2667 70.692 24.7573 70.692 25.28V30H69.252ZM63.876 30V22.4H65.316V30H63.876ZM77.6656 30L74.1136 26.112L77.6336 22.4H79.3776L75.4576 26.496L75.5216 25.664L79.5216 30H77.6656ZM72.8016 30V18.576H74.2416V30H72.8016ZM80.6651 30V22.4H82.1051V30H80.6651ZM81.3851 20.88C81.1185 20.88 80.8998 20.7947 80.7291 20.624C80.5585 20.4427 80.4731 20.2187 80.4731 19.952C80.4731 19.696 80.5585 19.4827 80.7291 19.312C80.8998 19.1307 81.1185 19.04 81.3851 19.04C81.6518 19.04 81.8705 19.1307 82.0411 19.312C82.2118 19.4827 82.2971 19.696 82.2971 19.952C82.2971 20.2187 82.2118 20.4427 82.0411 20.624C81.8705 20.7947 81.6518 20.88 81.3851 20.88ZM89.7632 30V25.568C89.7632 24.992 89.5819 24.5173 89.2192 24.144C88.8566 23.7707 88.3872 23.584 87.8112 23.584C87.4272 23.584 87.0859 23.6693 86.7872 23.84C86.4886 24.0107 86.2539 24.2453 86.0832 24.544C85.9126 24.8427 85.8272 25.184 85.8272 25.568L85.2352 25.232C85.2352 24.656 85.3632 24.144 85.6192 23.696C85.8752 23.248 86.2326 22.896 86.6912 22.64C87.1499 22.3733 87.6672 22.24 88.2432 22.24C88.8192 22.24 89.3259 22.384 89.7632 22.672C90.2112 22.96 90.5632 23.3387 90.8192 23.808C91.0752 24.2667 91.2032 24.7573 91.2032 25.28V30H89.7632ZM84.3872 30V22.4H85.8272V30H84.3872ZM95.7289 30.16C95.3022 30.16 94.8969 30.1067 94.5129 30C94.1395 29.8827 93.7929 29.7227 93.4729 29.52C93.1529 29.3067 92.8755 29.056 92.6409 28.768L93.5689 27.84C93.8462 28.1813 94.1662 28.4373 94.5289 28.608C94.8915 28.768 95.2969 28.848 95.7449 28.848C96.1929 28.848 96.5395 28.7733 96.7849 28.624C97.0302 28.464 97.1529 28.2453 97.1529 27.968C97.1529 27.6907 97.0515 27.4773 96.8489 27.328C96.6569 27.168 96.4062 27.04 96.0969 26.944C95.7875 26.8373 95.4569 26.736 95.1049 26.64C94.7635 26.5333 94.4382 26.4 94.1289 26.24C93.8195 26.08 93.5635 25.8613 93.3609 25.584C93.1689 25.3067 93.0729 24.9387 93.0729 24.48C93.0729 24.0213 93.1849 23.6267 93.4089 23.296C93.6329 22.9547 93.9422 22.6933 94.3369 22.512C94.7422 22.3307 95.2275 22.24 95.7929 22.24C96.3902 22.24 96.9182 22.3467 97.3769 22.56C97.8462 22.7627 98.2302 23.072 98.5289 23.488L97.6009 24.416C97.3875 24.1387 97.1209 23.9253 96.8009 23.776C96.4915 23.6267 96.1395 23.552 95.7449 23.552C95.3289 23.552 95.0089 23.6267 94.7849 23.776C94.5715 23.9147 94.4649 24.112 94.4649 24.368C94.4649 24.624 94.5609 24.8213 94.7529 24.96C94.9449 25.0987 95.1955 25.216 95.5049 25.312C95.8249 25.408 96.1555 25.5093 96.4969 25.616C96.8382 25.712 97.1635 25.8453 97.4729 26.016C97.7822 26.1867 98.0329 26.416 98.2249 26.704C98.4275 26.992 98.5289 27.3707 98.5289 27.84C98.5289 28.5547 98.2729 29.12 97.7609 29.536C97.2595 29.952 96.5822 30.16 95.7289 30.16Z" fill="black"/>
<path fill-rule="evenodd" clip-rule="evenodd" d="M32.0964 23.5651C32.0964 28.3201 28.3278 32.1748 23.679 32.1748C19.0303 32.1748 15.2617 28.3201 15.2617 23.5651C15.2617 18.81 19.0303 14.9553 23.679 14.9553C28.3278 14.9553 32.0964 18.81 32.0964 23.5651Z" fill="#D33833"/>
<path d="M15.6052 25.6973C15.6052 25.6973 14.9959 16.7188 23.269 16.4622L22.6918 15.5002L18.2026 17.0074L16.9199 18.4824L15.7976 20.6309L15.1562 23.132L15.3486 24.7994" fill="#EF3D3A"/>
<path d="M17.9137 17.6917C16.4368 19.2028 15.523 21.2891 15.523 23.5972C15.523 25.9048 16.4368 27.9915 17.9137 29.5023C19.3912 31.0131 21.4275 31.9453 23.6787 31.9453C25.93 31.9453 27.9664 31.0131 29.4438 29.5023C30.9206 27.9915 31.8346 25.9048 31.8346 23.5972C31.8346 21.2891 30.9206 19.2028 29.4438 17.6917C27.9664 16.1812 25.93 15.2489 23.6787 15.2488C21.4275 15.2489 19.3912 16.1812 17.9137 17.6917ZM17.5399 29.8677C15.9703 28.2626 15 26.0442 15 23.5972C15 21.1499 15.9703 18.9317 17.5399 17.3264C19.109 15.7209 21.2812 14.7257 23.6787 14.726C26.0763 14.7257 28.2486 15.7209 29.8175 17.3264C31.3872 18.9317 32.3577 21.15 32.3575 23.5972C32.3577 26.0442 31.3872 28.2626 29.8175 29.8677C28.2486 31.4732 26.0763 32.4683 23.6787 32.4683C21.2812 32.4683 19.109 31.4732 17.5399 29.8677Z" fill="#231F20"/>
<path fill-rule="evenodd" clip-rule="evenodd" d="M27.2225 23.6127L25.9398 23.8051L24.2082 23.9975L23.0858 24.0295L21.9956 23.9975L21.1618 23.7409L20.4243 22.9393L19.8471 21.3039L19.7189 20.9512L18.9493 20.6947L18.5003 19.9572L18.1797 18.899L18.5325 17.969L19.3661 17.6804L20.0395 18.0012L20.3602 18.7066L20.745 18.6424L20.8732 18.4822L20.745 17.7446L20.7129 16.8147L20.9053 15.532L20.8978 14.7994L21.4825 13.8646L22.5086 13.1271L24.3044 12.3575L26.2924 12.6461L28.024 13.8967L28.8257 15.1793L29.3387 16.1092L29.467 18.418L29.0822 20.4061L28.3768 22.1697L27.7034 23.0997" fill="#F0D6B7"/>
<path fill-rule="evenodd" clip-rule="evenodd" d="M26.1325 29.1602L21.547 29.3526V30.1222L21.9318 32.8158L21.7394 33.0403L18.5328 31.95L18.3083 31.5652L17.9876 27.9418L17.2502 25.7612L17.0898 25.2482L19.6551 23.4846L20.4568 23.1639L21.1622 24.0297L21.7714 24.5748L22.477 24.7993L22.7976 24.8954L23.1824 26.5629L23.471 26.9156L24.2085 26.6591L23.6954 27.6532L26.4852 28.9678L26.1325 29.1602Z" fill="#335061"/>
<path fill-rule="evenodd" clip-rule="evenodd" d="M18.5307 17.969L19.3643 17.6804L20.0377 18.0011L20.3584 18.7065L20.7432 18.6424L20.8394 18.2576L20.647 17.5201L20.8394 15.7564L20.6791 14.7944L21.2562 14.1211L22.5068 13.127L22.1541 12.646L20.3905 13.5118L19.6529 14.089L19.2361 14.9868L18.5947 15.8526L18.4023 16.8788L18.5307 17.969Z" fill="#6D6B6D"/>
<path fill-rule="evenodd" clip-rule="evenodd" d="M19.8468 14.9549C19.8468 14.9549 20.3278 13.7685 22.2518 13.1913C24.1758 12.6141 22.348 12.7743 22.348 12.7743L20.2638 13.5761L19.462 14.3777L19.1094 15.019L19.8468 14.9549Z" fill="#DCD9D8"/>
<path fill-rule="evenodd" clip-rule="evenodd" d="M18.8833 17.7446C18.8833 17.7446 18.2099 15.4999 20.7753 15.1792L20.6791 14.7944L18.9155 15.2114L18.4023 16.8788L18.5307 17.969L18.8833 17.7446Z" fill="#DCD9D8"/>
<path fill-rule="evenodd" clip-rule="evenodd" d="M19.9102 20.7267L20.33 20.3199C20.33 20.3199 20.5195 20.342 20.5515 20.5664C20.5835 20.7909 20.6797 22.8111 22.0586 23.9014C22.1843 24.0009 21.0325 23.7409 21.0325 23.7409L20.0064 22.1377" fill="#F7E4CD"/>
<path fill-rule="evenodd" clip-rule="evenodd" d="M25.8102 20.1174C25.8102 20.1174 25.8849 19.1454 26.1467 19.2202C26.4084 19.2949 26.4084 19.5567 26.4084 19.5567C26.4084 19.5567 25.7728 19.9679 25.8102 20.1174Z" fill="#F7E4CD"/>
<path d="M28.4744 16.5583C28.4744 16.5583 27.9459 16.6699 27.8972 17.1355C27.8485 17.6012 28.4744 17.2317 28.5706 17.1996" fill="#F7E4CD"/>
<path d="M24.5922 16.5903C24.5922 16.5903 23.8867 16.6865 23.8867 17.1353C23.8867 17.5843 24.6885 17.5522 24.9129 17.3598" fill="#F7E4CD"/>
<path fill-rule="evenodd" clip-rule="evenodd" d="M20.2327 18.6747C20.2327 18.6747 19.0141 17.9371 18.8859 18.6426C18.7576 19.3481 18.469 19.8612 19.0783 20.5986L18.6614 20.4704L18.2767 19.4764L18.1484 18.5144L18.8859 17.7447L19.7196 17.8089L20.2006 18.1937L20.2327 18.6747Z" fill="#F7E4CD"/>
<path fill-rule="evenodd" clip-rule="evenodd" d="M20.8099 16.6543C20.8099 16.6543 21.3551 13.8325 24.1128 13.2874C26.3832 12.8386 27.5759 13.3835 28.0248 13.8966C28.0248 13.8966 26.0047 11.4917 24.0807 12.2292C22.1567 12.9667 20.7459 14.3135 20.7779 15.1792C20.8325 16.6537 20.8099 16.6543 20.8099 16.6543Z" fill="#F7E4CD"/>
<path fill-rule="evenodd" clip-rule="evenodd" d="M28.2471 14.2172C28.2471 14.2172 27.3173 14.1852 27.2852 15.0189C27.2852 15.0189 27.2851 15.1472 27.3492 15.2754C27.3492 15.2754 28.0869 14.4416 28.5357 14.8906" fill="#F7E4CD"/>
<path fill-rule="evenodd" clip-rule="evenodd" d="M24.1771 15.3622C24.1771 15.3622 24.017 14.0825 22.9259 14.8265C22.2205 15.3075 22.2847 15.9809 22.4129 16.1091C22.5411 16.2375 22.5063 16.4958 22.6039 16.3185C22.7015 16.1412 22.6694 15.564 23.0221 15.4037C23.3749 15.2433 23.9531 15.0642 24.1771 15.3622Z" fill="#F7E4CD"/>
<path fill-rule="evenodd" clip-rule="evenodd" d="M21.1622 24.0295L18.148 25.3763C18.148 25.3763 19.3986 30.3466 18.7572 31.8857L18.3083 31.7255L18.2762 29.8335L17.4426 26.2422L17.0898 25.2481L20.2323 23.1318L21.1622 24.0295Z" fill="#49728B"/>
<path fill-rule="evenodd" clip-rule="evenodd" d="M21.4699 26.7786L21.8975 27.3004V29.2244H21.3844C21.3844 29.2244 21.3203 27.8776 21.3203 27.7172C21.3203 27.5569 21.3844 26.9797 21.3844 26.9797" fill="#49728B"/>
<path fill-rule="evenodd" clip-rule="evenodd" d="M21.482 29.5129L20.0391 29.5769L20.456 29.8655L21.482 30.0259" fill="#49728B"/>
<path fill-rule="evenodd" clip-rule="evenodd" d="M26.4219 29.1922L27.6083 29.1601L27.8969 32.1102L26.6783 32.2705L26.4219 29.1922Z" fill="#335061"/>
<path fill-rule="evenodd" clip-rule="evenodd" d="M26.7422 29.1921L28.5379 29.0959C28.5379 29.0959 29.2754 27.2361 29.2754 27.1399C29.2754 27.0437 29.9167 24.4464 29.9167 24.4464L28.4738 22.9393L28.1852 22.6828L27.4156 23.4524V26.4345L26.7422 29.1921Z" fill="#335061"/>
<path fill-rule="evenodd" clip-rule="evenodd" d="M27.5441 28.9678L26.4219 29.1922L26.5821 30.0901C26.999 30.2825 27.7045 29.7694 27.7045 29.7694" fill="#49728B"/>
<path fill-rule="evenodd" clip-rule="evenodd" d="M27.5742 23.3563L29.8188 25.0237L29.883 24.2541L28.1834 22.6829L27.5742 23.3563Z" fill="#49728B"/>
<path fill-rule="evenodd" clip-rule="evenodd" d="M22.5956 35.5097L21.9317 32.8157L21.6015 30.828L21.5469 29.3526L24.5516 29.1926L26.421 29.1923L26.251 32.5596L26.5396 35.1569L26.5076 35.6379L24.0706 35.8303L22.5956 35.5097Z" fill="white"/>
<path fill-rule="evenodd" clip-rule="evenodd" d="M26.0054 29.1601C26.0054 29.1601 25.8451 32.495 26.3261 34.8679C26.3261 34.8679 25.3641 35.4772 23.9531 35.6375L26.6467 35.5413L26.9673 35.3489L26.5826 30.0901L26.4864 28.9676" fill="#DCD9D8"/>
<path fill-rule="evenodd" clip-rule="evenodd" d="M27.9487 31.854L29.1993 31.5013L31.5721 31.373L31.9249 30.2828L31.2835 28.3909L30.5461 28.2947L29.5199 28.6153L28.5354 29.096L28.0128 29.0001L27.6055 29.1601" fill="white"/>
<path fill-rule="evenodd" clip-rule="evenodd" d="M27.9258 31.2124C27.9258 31.2124 28.7594 30.8276 28.8878 30.8597L28.5351 29.096L28.9519 28.9357C28.9519 28.9357 29.2405 30.6031 29.2405 30.7955C29.2405 30.7955 31.0362 30.8917 31.1965 30.8917C31.1965 30.8917 31.5813 30.1542 31.4851 29.3846L31.8379 30.4107L31.8699 30.9879L31.3569 31.7575L30.7797 31.8857L29.8177 31.8537L29.4971 31.4369L28.3747 31.5971L28.022 31.7255" fill="#DCD9D8"/>
<path d="M26.6656 28.936L25.9602 27.1403L25.2227 26.0821C25.2227 26.0821 25.3829 25.6331 25.6075 25.6331C25.832 25.6331 26.345 25.6331 26.345 25.6331L27.0504 25.8897L26.9864 27.0761L26.6656 28.936Z" fill="white"/>
<path fill-rule="evenodd" clip-rule="evenodd" d="M26.8033 28.3265C26.8033 28.3265 25.9054 26.595 25.9054 26.3385C25.9054 26.3385 26.0657 25.9537 26.2902 26.0499C26.5147 26.1461 26.9957 26.4025 26.9957 26.4025V25.7933L25.9054 25.5688L25.168 25.665L26.4185 28.6151L26.675 28.6472" fill="#DCD9D8"/>
<path d="M22.8823 24.094L21.9939 23.9974L21.1602 23.7409V24.0295L21.5675 24.4787L22.8502 25.0559" fill="white"/>
<path fill-rule="evenodd" clip-rule="evenodd" d="M21.4517 24.1901C21.4517 24.1901 22.4458 24.6071 22.7664 24.5109L22.7983 24.8953L21.9006 24.7033L21.3555 24.3185L21.4517 24.1901Z" fill="#DCD9D8"/>
<path fill-rule="evenodd" clip-rule="evenodd" d="M27.9473 25.7424C27.4032 25.7265 26.9116 25.6618 26.4812 25.5404C26.5105 25.364 26.4557 25.1908 26.4997 25.0638C26.6197 24.9774 26.8207 24.9787 27.0021 24.9584C26.8453 24.8814 26.625 24.8509 26.444 24.8954C26.4398 24.7729 26.3848 24.697 26.3516 24.6012C26.6575 24.492 27.3796 23.7762 27.7859 24.0133C27.9794 24.126 28.0617 24.77 28.0767 25.0831C28.0892 25.3428 28.0531 25.6049 27.9473 25.7424Z" fill="#D33833"/>
<path d="M27.9473 25.7424C27.4032 25.7265 26.9116 25.6618 26.4812 25.5404C26.5105 25.364 26.4557 25.1908 26.4997 25.0638C26.6197 24.9774 26.8207 24.9787 27.0021 24.9584C26.8453 24.8814 26.625 24.8509 26.444 24.8954C26.4398 24.7729 26.3848 24.697 26.3516 24.6012C26.6575 24.492 27.3796 23.7762 27.7859 24.0133C27.9794 24.126 28.0617 24.77 28.0767 25.0831C28.0892 25.3428 28.0531 25.6049 27.9473 25.7424Z" stroke="#D33833" stroke-width="2.5"/>
<path fill-rule="evenodd" clip-rule="evenodd" d="M25.3459 24.8529C25.3445 24.8941 25.3428 24.9356 25.3411 24.9771C25.1712 25.0887 24.897 25.0874 24.7105 25.1811C24.9854 25.1932 25.2017 25.2594 25.3889 25.3527C25.3848 25.4564 25.3809 25.56 25.3768 25.6637C25.0654 25.8769 24.781 26.1943 24.4143 26.3942C24.241 26.4888 23.6326 26.732 23.4482 26.689C23.3438 26.6648 23.3344 26.5353 23.2927 26.4133C23.2038 26.1519 22.9992 25.7358 22.9814 25.3424C22.9587 24.8454 22.9085 24.0125 23.444 24.1149C23.8761 24.1973 24.3786 24.3964 24.7131 24.5791C24.9176 24.6909 25.0358 24.8291 25.3459 24.8529Z" fill="#D33833"/>
<path d="M25.3459 24.8529C25.3445 24.8941 25.3428 24.9356 25.3411 24.9771C25.1712 25.0887 24.897 25.0874 24.7105 25.1811C24.9854 25.1932 25.2017 25.2594 25.3889 25.3527C25.3848 25.4564 25.3809 25.56 25.3768 25.6637C25.0654 25.8769 24.781 26.1943 24.4143 26.3942C24.241 26.4888 23.6326 26.732 23.4482 26.689C23.3438 26.6648 23.3344 26.5353 23.2927 26.4133C23.2038 26.1519 22.9992 25.7358 22.9814 25.3424C22.9587 24.8454 22.9085 24.0125 23.444 24.1149C23.8761 24.1973 24.3786 24.3964 24.7131 24.5791C24.9176 24.6909 25.0358 24.8291 25.3459 24.8529Z" stroke="#D33833" stroke-width="2.5"/>
<path fill-rule="evenodd" clip-rule="evenodd" d="M25.6523 25.446C25.6048 25.1753 25.5499 25.098 25.5711 24.8619C26.2931 24.3805 26.4286 25.6887 25.6523 25.446Z" fill="#D33833"/>
<path d="M25.6523 25.446C25.6048 25.1753 25.5499 25.098 25.5711 24.8619C26.2931 24.3805 26.4286 25.6887 25.6523 25.446Z" stroke="#D33833" stroke-width="2.5"/>
<path fill-rule="evenodd" clip-rule="evenodd" d="M26.699 25.6653C26.699 25.6653 26.4744 25.3446 26.6348 25.2484C26.7952 25.1522 26.9555 25.2485 27.0517 25.0881C27.1479 24.9277 27.0517 24.8315 27.0838 24.6391C27.1158 24.4467 27.2762 24.4146 27.4365 24.3826C27.5968 24.3505 28.0458 24.2864 28.1099 24.4467L27.9175 23.8695L27.5327 23.7413L26.3142 24.4467L26.25 24.7995V25.5049" fill="#EF3D3A"/>
<path fill-rule="evenodd" clip-rule="evenodd" d="M23.3333 26.7234C23.2948 26.223 23.254 25.7232 23.2087 25.2233C23.1408 24.4768 23.388 24.607 24.0351 24.607C24.1339 24.607 24.6436 24.7249 24.6801 24.7994C24.855 25.1566 24.3876 25.0772 24.8815 25.3466C25.2984 25.5739 26.0349 25.2085 25.8665 24.7032C25.7722 24.5909 25.3753 24.6682 25.233 24.5944C24.9825 24.4645 24.732 24.3347 24.4815 24.2048C24.1628 24.0394 23.4261 23.7984 23.0863 24.0294C22.2253 24.615 23.1406 26.0781 23.4478 26.6889" fill="#EF3D3A"/>
<path fill-rule="evenodd" clip-rule="evenodd" d="M24.1749 15.3624C23.3009 15.1588 22.8666 15.7281 22.6017 16.3186C22.3652 16.2613 22.4593 15.9396 22.519 15.7757C22.6755 15.3455 23.3059 14.7728 23.821 14.8504C24.0427 14.8838 24.3427 15.0865 24.1749 15.3624Z" fill="#231F20"/>
<path fill-rule="evenodd" clip-rule="evenodd" d="M28.4357 16.3575C28.4495 16.3581 28.4634 16.3586 28.4772 16.3592C28.6747 16.7694 28.8456 17.2041 29.0948 17.5662C28.9279 17.955 27.8309 18.299 27.8479 17.601C28.0851 17.4973 28.4946 17.5798 28.7049 17.4473C28.5833 17.1136 28.4078 16.8296 28.4357 16.3575Z" fill="#231F20"/>
<path fill-rule="evenodd" clip-rule="evenodd" d="M24.6251 16.3682C24.8125 16.7117 24.8735 17.0727 25.1399 17.3323C25.2599 17.4492 25.4931 17.5916 25.3775 17.9167C25.3505 17.9934 25.153 18.1643 25.039 18.1979C24.6225 18.3208 23.6522 18.2233 23.9808 17.7041C24.3252 17.7202 24.7881 17.9278 25.0455 17.6777C24.8478 17.3617 24.4954 16.7365 24.6251 16.3682Z" fill="#231F20"/>
<path fill-rule="evenodd" clip-rule="evenodd" d="M28.2782 19.8597C27.6512 20.2625 26.952 20.7005 25.9246 20.5989C25.7051 20.408 25.6214 19.9833 25.8346 19.7028C25.9457 19.8937 25.8759 20.2447 26.1853 20.2975C26.7682 20.3973 27.4467 19.9409 27.8661 19.7814C28.1261 19.343 27.8436 19.1818 27.6094 18.8997C27.1299 18.3216 26.4866 17.6051 26.51 16.7397C26.7038 16.5992 26.7205 16.9542 26.7483 17.0189C26.9987 17.6049 27.6289 18.3544 28.0889 18.856C28.2018 18.9795 28.3877 19.098 28.4084 19.1797C28.4681 19.4172 28.2533 19.7018 28.2782 19.8597Z" fill="#231F20"/>
<path fill-rule="evenodd" clip-rule="evenodd" d="M20.0118 19.4358C19.8153 19.3236 19.7685 18.8296 19.5378 18.8155C19.2081 18.7955 19.2682 19.4565 19.2695 19.843C19.0425 19.637 19.0026 19.0025 19.1694 18.6767C18.9793 18.5834 18.8945 18.7796 18.7891 18.8488C18.9245 17.8647 20.2287 18.3923 20.0118 19.4358Z" fill="#231F20"/>
<path fill-rule="evenodd" clip-rule="evenodd" d="M28.6771 20.2694C28.3852 20.825 27.9723 21.4368 27.1159 21.4546C27.0985 21.2752 27.0851 21.0022 27.1169 20.8941C27.7716 20.8312 28.1758 20.498 28.6771 20.2694Z" fill="#231F20"/>
<path fill-rule="evenodd" clip-rule="evenodd" d="M24.5742 20.6296C25.1205 20.9169 26.1244 20.9477 26.8669 20.926C26.9067 21.0887 26.9057 21.2896 26.9073 21.488C25.9529 21.5356 24.8245 21.2994 24.5742 20.6296Z" fill="#231F20"/>
<path fill-rule="evenodd" clip-rule="evenodd" d="M24.4702 21.1654C24.848 22.1138 26.1463 22.0047 27.2411 21.9785C27.1929 22.1016 27.0884 22.2471 26.9586 22.2997C26.6077 22.4425 25.6401 22.5508 25.153 22.2921C24.8441 22.1279 24.6457 21.7569 24.4764 21.5393C24.3947 21.4343 23.9877 21.166 24.4702 21.1654Z" fill="#231F20"/>
<path fill-rule="evenodd" clip-rule="evenodd" d="M28.2332 26.3968C27.7899 27.156 27.3658 27.9358 26.8398 28.6055C27.0603 27.9572 27.1547 26.8721 27.188 26.0449C27.6493 25.8291 28.0442 26.0935 28.2332 26.3968Z" fill="#81B0C4"/>
<path fill-rule="evenodd" clip-rule="evenodd" d="M30.6182 29.1256C30.1219 29.2249 29.7732 29.7073 29.2891 29.6763C29.5551 29.3012 30.0214 29.1431 30.6182 29.1256Z" fill="#231F20"/>
<path fill-rule="evenodd" clip-rule="evenodd" d="M30.8368 29.9023C30.4323 29.945 29.9572 30.0105 29.5469 29.9768C29.7411 29.6801 30.4894 29.7824 30.8368 29.9023Z" fill="#231F20"/>
<path fill-rule="evenodd" clip-rule="evenodd" d="M30.9753 30.572C30.5206 30.5818 29.9556 30.5728 29.5234 30.5365C29.779 30.262 30.6804 30.4346 30.9753 30.572Z" fill="#231F20"/>
<path fill-rule="evenodd" clip-rule="evenodd" d="M27.3789 32.4044C27.4441 32.9754 27.6705 33.5539 27.6421 34.1792C27.3907 34.264 27.2463 34.3381 26.9095 34.3376C26.8858 33.8062 26.8147 32.9938 26.8359 32.4873C27.0016 32.4982 27.2459 32.3689 27.3789 32.4044Z" fill="#DCD9D8"/>
<path fill-rule="evenodd" clip-rule="evenodd" d="M26.6452 23.9897C26.4169 24.1387 26.2225 24.3247 26.0032 24.4838C25.517 24.5079 25.2517 24.4502 24.8945 24.171C24.9004 24.1486 24.9363 24.1586 24.9376 24.1311C25.4581 24.363 26.1196 24.0366 26.6452 23.9897Z" fill="#F0D6B7"/>
<path fill-rule="evenodd" clip-rule="evenodd" d="M23.9141 27.5372C24.0571 26.9176 24.6173 26.5967 25.1261 26.2555C25.6513 26.922 25.9706 27.7791 26.3223 28.6062C25.4914 28.3557 24.6423 27.9493 23.9141 27.5372Z" fill="#81B0C4"/>
<path fill-rule="evenodd" clip-rule="evenodd" d="M26.8325 32.4872C26.8112 32.9938 26.8823 33.8062 26.9061 34.3376C27.2429 34.338 27.3873 34.2639 27.6386 34.1791C27.667 33.5538 27.4407 32.9753 27.3754 32.4044C27.2424 32.3689 26.9981 32.4982 26.8325 32.4872ZM21.5883 29.6062C21.8104 31.6478 22.1321 33.364 22.722 35.1719C24.0314 35.5695 25.6099 35.6041 26.7673 35.2454C26.5548 34.225 26.6476 32.9827 26.5234 31.8938C26.4298 31.0754 26.4775 30.2519 26.3492 29.4169C24.9468 29.1252 22.9646 29.3487 21.5883 29.6062ZM26.6808 29.4297C26.669 30.3066 26.72 31.1715 26.787 32.0494C27.1237 31.9989 27.3522 31.9651 27.665 31.8966C27.5634 31.0514 27.5759 30.1003 27.369 29.3527C27.1298 29.355 26.9193 29.3499 26.6808 29.4297ZM28.3888 29.2884C28.229 29.2518 28.043 29.287 27.8903 29.29C27.9621 30.0047 28.1362 30.7934 28.1974 31.5437C28.4377 31.5512 28.566 31.4379 28.7636 31.3998C28.7742 30.7412 28.706 29.8339 28.3888 29.2884ZM30.975 31.6513C31.4757 31.5297 31.7906 30.9165 31.6505 30.2867C31.5565 29.8634 31.3891 29.0664 31.21 28.7956C31.0776 28.5953 30.7187 28.3331 30.4321 28.5166C29.966 28.8151 29.1447 28.9018 28.8047 29.2631C28.9752 29.8307 29.0281 30.6103 29.0984 31.3294C29.6808 31.3657 30.3974 31.1692 30.8818 31.3778C30.5436 31.4873 30.1049 31.4882 29.8127 31.6478C30.0515 31.7631 30.6105 31.7398 30.975 31.6513ZM26.3187 28.6063C25.967 27.7792 25.6476 26.922 25.1225 26.2556C24.6137 26.5968 24.0534 26.9177 23.9104 27.5373C24.6387 27.9493 25.4877 28.3558 26.3187 28.6063ZM27.1856 26.045C27.1523 26.8722 27.058 27.9572 26.8375 28.6055C27.3634 27.9359 27.7875 27.1561 28.2308 26.3969C28.0419 26.0936 27.6469 25.8291 27.1856 26.045ZM26.2029 25.6958C26.0036 25.6743 25.8345 25.9248 25.5755 25.8165C25.5161 25.8821 25.4621 25.9532 25.4016 26.0173C25.9738 26.7068 26.2338 27.6852 26.6758 28.4955C26.9129 27.7171 26.8856 26.8643 26.9378 26.0147C26.612 26.0354 26.4312 25.72 26.2029 25.6958ZM25.5709 24.8617C25.5497 25.0979 25.6046 25.1752 25.6521 25.4459C26.4285 25.6886 26.2929 24.3804 25.5709 24.8617ZM24.7101 24.5791C24.3756 24.3963 23.873 24.1973 23.441 24.1149C22.9054 24.0124 22.9556 24.8454 22.9783 25.3424C22.9962 25.7358 23.2008 26.1519 23.2896 26.4132C23.3313 26.5353 23.3407 26.6648 23.4451 26.689C23.6295 26.732 24.2379 26.4887 24.4113 26.3942C24.7779 26.1943 25.0623 25.8768 25.3737 25.6637C25.3778 25.56 25.3817 25.4563 25.3859 25.3526C25.1987 25.2593 24.9823 25.1931 24.7075 25.1811C24.8939 25.0873 25.1682 25.0887 25.338 24.9771C25.3397 24.9355 25.3414 24.8941 25.3429 24.8529C25.0327 24.829 24.9145 24.6909 24.7101 24.5791ZM21.515 23.9987C21.2373 24.2806 22.2936 24.6648 22.63 24.6855C22.6281 24.5072 22.7316 24.339 22.7108 24.2111C22.3113 24.1409 21.7864 24.1872 21.515 23.9987ZM24.935 24.1311C24.9336 24.1586 24.8977 24.1486 24.8919 24.171C25.2491 24.4502 25.5144 24.5079 26.0006 24.4839C26.2198 24.3248 26.4142 24.1387 26.6425 23.9897C26.117 24.0366 25.4554 24.3631 24.935 24.1311ZM28.0741 25.083C28.0591 24.7699 27.9769 24.1259 27.7833 24.0132C27.3771 23.776 26.6549 24.492 26.349 24.6011C26.3823 24.697 26.4372 24.7729 26.4414 24.8953C26.6224 24.8508 26.8427 24.8813 26.9995 24.9583C26.8182 24.9786 26.6171 24.9773 26.4971 25.0637C26.4532 25.1907 26.5079 25.3639 26.4787 25.5403C26.9091 25.6617 27.4006 25.7264 27.9447 25.7423C28.0506 25.6048 28.0866 25.3427 28.0741 25.083ZM21.0476 24.2714C20.9604 24.2092 20.3706 23.4419 20.2898 23.4737C19.2226 23.8946 18.2247 24.6223 17.333 25.3106C18.1832 27.1349 18.5264 29.37 18.5871 31.5242C19.561 31.9798 20.4165 32.6364 21.7381 32.705C21.5851 31.623 21.4455 30.6576 21.3587 29.6389C21.0266 29.4989 20.5502 29.6452 20.2395 29.5955C20.2368 29.221 20.7141 29.4315 20.7538 29.1796C20.7838 28.9891 20.4912 28.9747 20.5865 28.6748C20.8294 28.7631 20.957 28.9581 21.2161 29.0314C21.4529 28.5135 21.2128 27.5971 21.2469 27.1642C21.2534 27.0829 21.2875 26.7139 21.4696 26.7786C21.6307 26.8359 21.4604 27.76 21.478 28.1697C21.4941 28.5472 21.4324 28.9124 21.5853 29.1494C22.8624 28.9756 24.1601 28.8632 25.5419 28.8253C25.2379 28.6949 24.8768 28.5714 24.4808 28.3483C24.2662 28.2273 23.5896 27.9755 23.5277 27.7716C23.4289 27.4468 23.787 27.2737 23.8482 26.9952C23.2036 27.3468 23.0778 26.6582 22.9253 26.1704C22.7872 25.7286 22.7085 25.3985 22.6746 25.1437C22.1193 24.879 21.5256 24.6109 21.0476 24.2714ZM27.5101 23.5665C28.3993 23.1354 28.5595 25.1779 28.211 25.8359C28.2649 26.0322 28.4502 26.1073 28.5258 26.2837C28.0296 27.1726 27.4785 28.0023 26.9722 28.8807C27.3488 28.6463 27.8867 28.8388 28.3299 28.6633C28.4919 28.5992 28.6092 28.2284 28.7318 27.9317C29.0692 27.1155 29.4234 26.0864 29.581 25.3075C29.6166 25.13 29.7135 24.7433 29.6918 24.5854C29.653 24.3025 29.2693 24.0928 29.0741 23.9179C28.7145 23.5949 28.4881 23.3106 28.113 23.0086C27.9609 23.2331 27.6345 23.3839 27.5101 23.5665ZM19.0141 15.6813C18.5904 16.1475 18.6791 17.021 18.7304 17.6424C19.4962 17.1607 20.5127 17.6805 20.5031 18.4999C20.8687 18.4902 20.6397 18.0433 20.5735 17.7554C20.3574 16.8149 20.9377 15.7932 20.5998 14.9332C19.9439 14.9829 19.4051 15.2508 19.0141 15.6813ZM22.0456 12.9757C21.0865 13.2475 19.8572 13.9445 19.463 14.8061C19.7682 14.7618 19.9801 14.6079 20.2812 14.5888C20.395 14.5814 20.544 14.6365 20.6748 14.604C20.9354 14.5394 21.1553 13.9551 21.3519 13.7376C21.5436 13.5253 21.7739 13.4346 21.9316 13.2411C22.0329 13.1922 22.1826 13.1956 22.1884 13.0435C22.1445 12.9965 22.0982 12.9607 22.0456 12.9757ZM27.0386 13.2314C26.0431 12.6696 24.358 12.2471 23.299 12.7751C22.4444 13.2011 21.2894 13.9061 20.8956 14.7994C21.2635 15.6614 20.7866 16.4513 20.7562 17.3265C20.74 17.7922 20.9754 18.1988 20.9935 18.7057C20.8676 18.9134 20.483 18.939 20.2167 18.9248C20.1271 18.4763 19.9702 17.9722 19.5084 17.9216C18.8549 17.8501 18.3771 18.391 18.3474 18.9561C18.3123 19.6208 18.8579 20.7223 19.6313 20.6458C19.93 20.6163 20.0034 20.3168 20.3289 20.3199C20.5053 20.6719 20.0568 20.7824 20.0106 21.0342C19.9986 21.0992 20.0478 21.3534 20.0765 21.4726C20.2169 22.0529 20.5301 22.8041 20.8383 23.2459C21.2294 23.8064 21.998 23.8908 22.8248 23.9457C22.9725 23.6276 23.5165 23.6538 23.871 23.737C23.4461 23.5687 23.0512 23.1609 22.7239 22.7998C22.3479 22.3856 21.9671 21.9413 21.9479 21.3999C22.6583 22.3855 23.2453 23.2463 24.5372 23.6798C25.5148 24.0077 26.6564 23.5296 27.4076 23.0021C27.7192 22.7829 27.9053 22.435 28.1268 22.1166C28.9558 20.9242 29.3426 19.2223 29.2576 17.5727C29.2225 16.8924 29.2241 16.2144 28.9958 15.7567C28.7572 15.2781 27.9503 14.8499 27.478 15.2828C27.3904 14.8174 27.8708 14.5296 28.435 14.697C28.0327 14.1778 27.6104 13.554 27.0386 13.2314ZM28.8934 28.5815C29.6714 28.1947 31.125 27.5405 31.6127 28.5829C31.7927 28.9671 32.0038 29.6167 32.097 30.0133C32.2287 30.5729 31.9543 31.749 31.3791 31.9368C30.8711 32.1026 30.2783 32.0925 29.6664 31.9696C29.5943 31.9096 29.5141 31.8052 29.458 31.6963C29.0211 31.6793 28.612 31.7197 28.2668 31.8993C28.2995 32.2225 28.081 32.2743 27.876 32.3409C27.7242 32.9432 28.1799 33.7297 28.0709 34.2789C27.993 34.6702 27.5116 34.7307 27.1578 34.8039C27.1463 35.0213 27.1733 35.2028 27.1975 35.3867C27.1166 35.6848 26.7537 35.8545 26.4099 35.8961C25.2787 36.0321 23.5611 36.0932 22.4731 35.702C22.1695 34.9572 21.9303 34.0514 21.6774 33.201C20.6162 33.3143 19.7579 32.7431 18.9488 32.3689C18.6687 32.239 18.2811 32.1675 18.1765 31.9445C18.075 31.7286 18.1165 31.3148 18.0913 30.924C18.0273 29.9257 17.9724 28.9629 17.7088 27.9408C17.5904 27.4821 17.3841 27.0774 17.2402 26.6354C17.1072 26.2258 16.8748 25.7196 16.8142 25.3112C16.7243 24.7058 17.2943 24.6721 17.6588 24.4098C18.2223 24.0041 18.6646 23.7798 19.2749 23.4137C19.4556 23.3053 20.0007 23.0308 20.0627 22.9044C20.1859 22.6538 19.8511 22.3005 19.7616 22.104C19.62 21.7934 19.5462 21.5295 19.5259 21.223C19.014 21.1421 18.6259 20.8375 18.3915 20.4939C18.0037 19.9254 17.7348 18.8736 18.0703 18.0735C18.0966 18.0105 18.2278 17.8866 18.2472 17.7898C18.2854 17.5992 18.1753 17.3459 18.1685 17.1432C18.1332 16.1033 18.3444 15.2073 19.0445 14.8937C19.3287 13.7615 20.3459 13.3851 21.3042 12.8224C21.6625 12.6121 22.0574 12.4777 22.4652 12.3277C23.9282 11.7892 26.1729 11.8906 27.3871 12.8089C27.9019 13.1984 28.7249 14.0206 29.0193 14.6158C29.7967 16.1874 29.7415 18.8139 29.1977 20.7257C29.1246 20.9823 29.0186 21.3596 28.8705 21.668C28.7673 21.8832 28.4465 22.314 28.4855 22.5041C28.5256 22.7006 29.217 23.2256 29.3652 23.3686C29.6322 23.6261 30.1393 23.9679 30.1804 24.2928C30.2245 24.6387 30.028 25.1118 29.9284 25.4455C29.5956 26.5592 29.2708 27.5886 28.8934 28.5815Z" fill="#231F20"/>
<path fill-rule="evenodd" clip-rule="evenodd" d="M23.7054 20.8722C23.7476 20.8161 23.9796 20.7307 24.3043 20.8871C24.3043 20.8871 23.9195 20.9512 23.9515 21.5928L23.7912 21.5606C23.7912 21.5606 23.6255 20.9789 23.7054 20.8722Z" fill="#F7E4CD"/>
<path fill-rule="evenodd" clip-rule="evenodd" d="M26.5168 26.3864C26.5168 26.4838 26.4378 26.5627 26.3404 26.5627C26.243 26.5627 26.1641 26.4838 26.1641 26.3864C26.1641 26.2891 26.243 26.21 26.3404 26.21C26.4378 26.21 26.5168 26.2891 26.5168 26.3864Z" fill="#1D1919"/>
<path fill-rule="evenodd" clip-rule="evenodd" d="M26.6926 27.2043C26.6926 27.3017 26.6136 27.3806 26.5162 27.3806C26.4188 27.3806 26.3398 27.3017 26.3398 27.2043C26.3398 27.1069 26.4188 27.0279 26.5162 27.0279C26.6136 27.0279 26.6926 27.1069 26.6926 27.2043Z" fill="#1D1919"/>
</svg>
