<svg width="110" height="48" viewBox="0 0 110 48" fill="none" xmlns="http://www.w3.org/2000/svg">
<rect width="110" height="48" rx="6" fill="#F0F1F1"/>
<path d="M47.312 30V18.896H48.368L53.072 26.624H52.352L57.056 18.896H58.112V30H56.608V21.536L56.96 21.632L53.248 27.728H52.192L48.48 21.632L48.816 21.536V30H47.312ZM63.1339 30.064L59.8379 22.4H61.4379L63.8859 28.4H63.3739L65.9499 22.4H67.5499L63.9979 30.064H63.1339ZM60.9579 33.184L63.1979 28.592L63.9979 30.064L62.5579 33.184H60.9579ZM72.3606 30.16C71.486 30.16 70.7393 30 70.1206 29.68C69.502 29.36 68.9526 28.896 68.4726 28.288L69.4966 27.264C69.8486 27.7547 70.254 28.128 70.7126 28.384C71.1713 28.6293 71.7366 28.752 72.4086 28.752C73.07 28.752 73.598 28.608 73.9926 28.32C74.398 28.032 74.6006 27.6373 74.6006 27.136C74.6006 26.72 74.5046 26.384 74.3126 26.128C74.1206 25.872 73.8593 25.664 73.5286 25.504C73.2086 25.3333 72.8566 25.184 72.4726 25.056C72.0886 24.9173 71.7046 24.7733 71.3206 24.624C70.9366 24.464 70.5846 24.272 70.2646 24.048C69.9446 23.8133 69.6833 23.5093 69.4806 23.136C69.2886 22.7627 69.1926 22.2933 69.1926 21.728C69.1926 21.0987 69.342 20.5653 69.6406 20.128C69.95 19.68 70.366 19.3387 70.8886 19.104C71.422 18.8587 72.0193 18.736 72.6806 18.736C73.406 18.736 74.0566 18.88 74.6326 19.168C75.2086 19.4453 75.678 19.8133 76.0406 20.272L75.0166 21.296C74.686 20.912 74.3286 20.624 73.9446 20.432C73.5713 20.24 73.1393 20.144 72.6486 20.144C72.0513 20.144 71.5766 20.2773 71.2246 20.544C70.8726 20.8 70.6966 21.1627 70.6966 21.632C70.6966 22.0053 70.7926 22.3093 70.9846 22.544C71.1873 22.768 71.4486 22.96 71.7686 23.12C72.0886 23.28 72.4406 23.4293 72.8246 23.568C73.2193 23.696 73.6086 23.84 73.9926 24C74.3766 24.16 74.7286 24.3627 75.0486 24.608C75.3686 24.8533 75.6246 25.1733 75.8166 25.568C76.0193 25.952 76.1206 26.4373 76.1206 27.024C76.1206 28.0053 75.7793 28.7733 75.0966 29.328C74.4246 29.8827 73.5126 30.16 72.3606 30.16ZM83.4265 30.16C82.6372 30.16 81.9012 30.016 81.2185 29.728C80.5358 29.4293 79.9385 29.0187 79.4265 28.496C78.9145 27.9627 78.5145 27.3493 78.2265 26.656C77.9385 25.9627 77.7945 25.2213 77.7945 24.432C77.7945 23.632 77.9385 22.8907 78.2265 22.208C78.5145 21.5147 78.9092 20.9067 79.4105 20.384C79.9225 19.8613 80.5145 19.456 81.1865 19.168C81.8692 18.88 82.6052 18.736 83.3945 18.736C84.1838 18.736 84.9145 18.88 85.5865 19.168C86.2692 19.456 86.8665 19.8613 87.3785 20.384C87.8905 20.9067 88.2852 21.5147 88.5625 22.208C88.8505 22.9013 88.9945 23.648 88.9945 24.448C88.9945 25.2373 88.8505 25.9787 88.5625 26.672C88.2852 27.3653 87.8905 27.9733 87.3785 28.496C86.8772 29.0187 86.2852 29.4293 85.6025 29.728C84.9305 30.016 84.2052 30.16 83.4265 30.16ZM88.7385 30.784L83.5385 25.584L84.5145 24.608L89.6985 29.808L88.7385 30.784ZM83.3945 28.72C84.1838 28.72 84.8825 28.5387 85.4905 28.176C86.0985 27.8027 86.5732 27.296 86.9145 26.656C87.2665 26.0053 87.4425 25.264 87.4425 24.432C87.4425 23.8133 87.3412 23.248 87.1385 22.736C86.9465 22.2133 86.6692 21.76 86.3065 21.376C85.9438 20.992 85.5172 20.6987 85.0265 20.496C84.5358 20.2827 83.9918 20.176 83.3945 20.176C82.6052 20.176 81.9065 20.3573 81.2985 20.72C80.6905 21.0827 80.2105 21.584 79.8585 22.224C79.5172 22.864 79.3465 23.6 79.3465 24.432C79.3465 25.0507 79.4478 25.6267 79.6505 26.16C79.8532 26.6827 80.1305 27.136 80.4825 27.52C80.8452 27.8933 81.2718 28.1867 81.7625 28.4C82.2638 28.6133 82.8078 28.72 83.3945 28.72ZM91.5926 30V18.896H93.0966V30H91.5926ZM92.6166 30V28.624H98.5686V30H92.6166Z" fill="black"/>
<path fill-rule="evenodd" clip-rule="evenodd" d="M12 29.6343H12.8177V26.4133L14.0787 29.2222C14.2284 29.5591 14.4283 29.6778 14.8277 29.6778C15.2273 29.6778 15.4271 29.5591 15.5768 29.2222L16.8377 26.4133V29.6343H17.6492V26.4194C17.6492 26.1074 17.5242 25.9573 17.2684 25.8762C16.6504 25.6827 16.2321 25.8513 16.0449 26.2696L14.809 29.0349L13.6106 26.2696C13.4295 25.8513 13.0051 25.6827 12.3871 25.8762C12.1249 25.9573 12.0001 26.1073 12.0001 26.4194V29.6343H12ZM18.3295 27.0123H19.141V28.7852C19.1348 28.8849 19.1722 29.1098 19.6217 29.1161C19.8464 29.1221 21.3757 29.1161 21.3881 29.1161V27.006H22.2059C22.212 27.006 22.2059 29.8836 22.2059 29.8962C22.212 30.6077 21.3257 30.7574 20.92 30.77H18.3483V30.2207C18.3483 30.2207 20.9138 30.227 20.92 30.2207C21.4444 30.1708 21.382 29.9088 21.382 29.8213V29.6089H19.6529C18.8476 29.5966 18.3357 29.2469 18.3295 28.8411C18.3295 28.8038 18.3483 27.0312 18.3295 27.0123ZM35.8637 24.9711C35.3645 24.9587 34.9836 25.0023 34.6527 25.1459C34.5592 25.1834 34.4156 25.1834 34.3969 25.302C34.4469 25.3517 34.4592 25.4329 34.4967 25.5018C34.5778 25.6267 34.7091 25.795 34.8276 25.8825C34.9525 25.9825 35.0836 26.0822 35.2208 26.1697C35.4706 26.3194 35.7452 26.4005 35.976 26.5506C36.1197 26.6378 36.257 26.7504 36.3944 26.8502C36.4566 26.9001 36.5067 26.9751 36.5878 27.0062V26.9939C36.5442 26.9376 36.5316 26.8565 36.4941 26.7938L36.3069 26.6066C36.126 26.3695 35.8949 26.1571 35.6513 25.9825C35.4578 25.8451 35.0209 25.6516 34.9398 25.4269C34.9335 25.4206 34.9272 25.4206 34.9272 25.4143C35.0646 25.3954 35.227 25.3458 35.3518 25.3143C35.5642 25.2583 35.7575 25.2707 35.9759 25.2146C36.0759 25.1832 36.1757 25.1583 36.2757 25.1271V25.0709C36.1634 24.9585 36.0885 24.8025 35.9637 24.7026C35.6454 24.428 35.2957 24.1595 34.9399 23.9349C34.7401 23.8038 34.4967 23.7226 34.2846 23.6166C34.2158 23.5854 34.0908 23.5666 34.0412 23.5042C33.9285 23.3668 33.8726 23.1858 33.7851 23.0235C33.602 22.6675 33.4313 22.3052 33.2734 21.9373C33.1673 21.6939 33.0922 21.4504 32.9614 21.2256C32.3121 20.1644 31.6192 19.5216 30.5394 18.891C30.3085 18.7599 30.0339 18.7038 29.7404 18.6351C29.5844 18.6226 29.4284 18.6164 29.2723 18.6038C29.1785 18.5663 29.0788 18.4478 28.985 18.3916C28.6293 18.1669 27.7116 17.6737 27.4493 18.3229C27.2807 18.7286 27.699 19.1282 27.8487 19.3342C27.9551 19.4778 28.0859 19.6402 28.161 19.8024C28.2107 19.9084 28.217 20.0146 28.2608 20.1269C28.3668 20.4079 28.4542 20.7137 28.5853 20.9696C28.6539 21.1007 28.7287 21.2381 28.8162 21.3567C28.8661 21.4254 28.9599 21.4566 28.9722 21.5689C28.8847 21.6937 28.8787 21.8811 28.8288 22.0371C28.6102 22.7425 28.6914 23.6101 29.016 24.1344C29.116 24.2903 29.3468 24.6337 29.6715 24.5027C29.9525 24.3841 29.8899 24.0345 29.9711 23.7162C29.99 23.6475 29.9774 23.5975 30.0147 23.5476V23.56C30.0959 23.7348 30.1833 23.9034 30.2708 24.0718C30.458 24.3778 30.7951 24.7024 31.0823 24.9145C31.2257 25.0268 31.3444 25.2204 31.5379 25.2827V25.2701H31.5193C31.4818 25.2141 31.4255 25.1891 31.3819 25.1453C31.2695 25.033 31.1447 24.8956 31.051 24.7708C30.7953 24.4212 30.5643 24.0342 30.352 23.6346C30.252 23.4411 30.1646 23.2289 30.0837 23.0354C30.0522 22.9606 30.0522 22.8482 29.9837 22.8044C29.8899 22.948 29.7591 23.0666 29.6839 23.2352C29.5715 23.5037 29.5529 23.8344 29.5156 24.1716C29.4904 24.184 29.4967 24.1777 29.4841 24.1903C29.2846 24.1404 29.2157 23.9343 29.1409 23.7596C28.96 23.3163 28.9224 22.6048 29.0847 22.0929C29.1283 21.9618 29.3221 21.5498 29.2409 21.425C29.2032 21.3063 29.0847 21.2315 29.0161 21.1379C28.9287 21.0255 28.8475 20.8757 28.7853 20.7446C28.6356 20.395 28.5667 20.008 28.4043 19.6585C28.3232 19.49 28.1985 19.3214 28.0923 19.1778C27.9737 19.0093 27.8426 18.8908 27.7491 18.691C27.7179 18.6223 27.6743 18.5099 27.7179 18.4349C27.7365 18.385 27.7554 18.3663 27.8051 18.3475C27.8862 18.2851 28.1174 18.3725 28.2045 18.4036C28.4293 18.5035 28.6228 18.5909 28.8163 18.722C28.9101 18.7844 29.0038 18.9029 29.1161 18.9343H29.2411C29.4408 18.9779 29.6654 18.9467 29.8526 19.003C30.1835 19.1027 30.483 19.2588 30.7516 19.4337C31.5755 19.9518 32.2435 20.6884 32.7054 21.5685C32.7802 21.7121 32.8114 21.8431 32.874 21.993C33.0052 22.299 33.1735 22.6109 33.3046 22.9043C33.4295 23.204 33.5606 23.5037 33.7415 23.747C33.8415 23.8781 34.2159 23.9467 34.3845 24.0153C34.5031 24.0652 34.6965 24.1213 34.8091 24.1902C35.0275 24.315 35.2334 24.4711 35.4395 24.6146C35.5391 24.684 35.8511 24.84 35.8637 24.9711Z" fill="#00678C"/>
<path fill-rule="evenodd" clip-rule="evenodd" d="M29.4979 19.5466C29.4117 19.5467 29.3258 19.5572 29.2422 19.578V19.5904H29.2608C29.3107 19.6903 29.3982 19.759 29.4606 19.8463C29.5042 19.9462 29.5543 20.0461 29.598 20.146L29.6166 20.1272C29.704 20.0711 29.7415 19.9712 29.7415 19.8152C29.7103 19.7778 29.704 19.7341 29.673 19.6903C29.6292 19.6278 29.5543 19.5966 29.4979 19.5466Z" fill="#00678C"/>
<path fill-rule="evenodd" clip-rule="evenodd" d="M22.8359 29.634H25.1767C25.4513 29.634 25.7196 29.5777 25.9319 29.4777C26.2814 29.3157 26.4562 29.097 26.4562 28.81V28.2107C26.4562 27.9799 26.2564 27.7552 25.8759 27.6115C25.6698 27.5304 25.4201 27.4929 25.1767 27.4929H24.1905C23.8596 27.4929 23.7036 27.3929 23.6661 27.1746C23.6598 27.1497 23.6598 27.1247 23.6598 27.0998V26.7314C23.6598 26.7065 23.6598 26.6878 23.6661 26.6628C23.7036 26.4943 23.7909 26.4443 24.0781 26.4194C24.103 26.4194 24.1342 26.4131 24.1593 26.4131H26.4876V25.8702H24.1968C23.8659 25.8702 23.6973 25.8951 23.5413 25.9387C23.0545 26.0947 22.8422 26.332 22.8422 26.7503V27.2247C22.8422 27.5931 23.2604 27.9051 23.9534 27.9799C24.0345 27.9799 24.1093 27.9862 24.1905 27.9862H25.0333C25.0645 27.9862 25.0955 27.9862 25.1204 27.9925C25.3827 28.0174 25.4888 28.061 25.5699 28.1545C25.6136 28.2045 25.6325 28.2482 25.6325 28.3045V28.7789C25.6325 28.8351 25.595 28.9101 25.5138 28.9724C25.445 29.0349 25.3264 29.0724 25.1704 29.0847C25.1392 29.0847 25.1144 29.091 25.0829 29.091H22.8359V29.634ZM31.5374 28.6849C31.5374 29.2467 31.9494 29.5587 32.7922 29.6213C32.8671 29.6276 32.9482 29.6338 33.023 29.6338H35.1454V29.0906H33.0105C32.5297 29.0906 32.3488 28.972 32.3488 28.6849V25.8699H31.5373V28.6849H31.5374ZM26.9744 28.7161V26.7812C26.9744 26.288 27.3176 25.9885 28.0043 25.8948C28.0731 25.8822 28.1542 25.8822 28.2228 25.8822H29.7707C29.8455 25.8822 29.9144 25.8822 29.9955 25.8948C30.6759 25.9885 31.0254 26.288 31.0254 26.7812V28.7161C31.0254 29.1158 30.8757 29.3279 30.5385 29.4653L31.3438 30.1894H30.3951L29.7458 29.6088L29.0902 29.6463H28.2227C28.073 29.6463 27.9168 29.6277 27.742 29.5777C27.2242 29.4402 26.9744 29.1656 26.9744 28.7161ZM27.8546 28.6664C27.8546 28.6976 27.8609 28.7224 27.8672 28.7539C27.9171 28.9784 28.1292 29.1033 28.4475 29.1033H29.1905L28.5102 28.4915H29.4589L30.0518 29.0222C30.1581 28.9659 30.2329 28.8785 30.2578 28.7662C30.2641 28.735 30.2641 28.7102 30.2641 28.685V26.825C30.2641 26.8061 30.2641 26.7813 30.2578 26.7562C30.2079 26.5441 29.9958 26.4256 29.6835 26.4256H28.4476C28.0856 26.4256 27.8547 26.5816 27.8547 26.825L27.8546 28.6664ZM35.5201 29.634H35.6387V29.1845H35.801V29.0907H35.3578V29.1845H35.5201V29.634ZM36.4314 29.634H36.5374V29.0907H36.3751L36.2317 29.4654L36.0883 29.0907H35.9198V29.634H36.0321V29.222L36.1881 29.634H36.2692L36.4252 29.222H36.4315V29.634H36.4314Z" fill="#CE8B2C"/>
<path fill-rule="evenodd" clip-rule="evenodd" d="M12.4949 24.584L12.0391 22.4741H12.27L12.5322 23.8598C12.5634 24.0034 12.5885 24.1469 12.6072 24.2904L12.6884 23.8972L13.0192 22.4739H13.2876L13.5373 23.5414C13.5997 23.8036 13.6433 24.0532 13.6745 24.2904C13.6933 24.1532 13.7245 23.9971 13.762 23.8286L14.0303 22.4741H14.2676L13.787 24.584H13.5685L13.2003 22.9797L13.144 22.73C13.1316 22.8236 13.1128 22.9048 13.0941 22.9797L12.7257 24.584H12.4949ZM14.4113 23.5603C14.4113 23.1982 14.4924 22.9236 14.6484 22.73C14.8045 22.5365 15.0042 22.4429 15.2415 22.4429C15.3912 22.4429 15.5348 22.4804 15.6596 22.5677C15.7844 22.655 15.8843 22.7799 15.9593 22.9422C16.028 23.1106 16.0655 23.3041 16.0655 23.5351C16.0655 23.8472 15.9968 24.097 15.8531 24.2966C15.6971 24.5151 15.4912 24.6212 15.2415 24.6212C14.9854 24.6212 14.7795 24.5088 14.6235 24.2903C14.4798 24.0846 14.4113 23.8412 14.4113 23.5603ZM14.6484 23.5603C14.6484 23.8225 14.7045 24.0222 14.817 24.1658C14.9356 24.3093 15.0729 24.3843 15.2352 24.3843C15.4038 24.3843 15.5473 24.3093 15.6596 24.1658C15.772 24.0222 15.8282 23.81 15.8282 23.5291C15.8282 23.3419 15.8033 23.1858 15.7408 23.0424C15.6971 22.93 15.6284 22.8426 15.541 22.7802C15.4547 22.715 15.3495 22.6799 15.2413 22.6803C15.0664 22.6803 14.9229 22.7488 14.8169 22.8925C14.7045 23.0359 14.6484 23.2606 14.6484 23.5603ZM16.3524 24.584V22.4741H17.1202C17.2762 22.4741 17.3949 22.4928 17.4699 22.5365C17.551 22.574 17.6134 22.6364 17.657 22.73C17.707 22.8236 17.732 22.9297 17.732 23.0482C17.732 23.2107 17.6945 23.3355 17.6072 23.4353C17.526 23.5352 17.4075 23.5976 17.2452 23.6288C17.3139 23.6663 17.3575 23.7038 17.395 23.7412C17.4637 23.8223 17.5199 23.9098 17.576 24.0095L17.8756 24.5838H17.5885L17.3575 24.1468C17.2639 23.9782 17.2015 23.8597 17.1516 23.8034C17.1079 23.741 17.0641 23.6973 17.0205 23.6785C16.9768 23.6598 16.9206 23.6473 16.8457 23.6473H16.5836V24.5837H16.3524V24.584ZM16.5834 23.4042H17.0703C17.1763 23.4042 17.2575 23.3917 17.3137 23.3667C17.3698 23.3418 17.4135 23.298 17.451 23.248C17.4822 23.1918 17.4946 23.1231 17.4946 23.0482C17.4946 22.9422 17.4634 22.861 17.401 22.7986C17.3386 22.7363 17.2512 22.7051 17.1264 22.7051H16.5833L16.5834 23.4042ZM18.0878 24.584V22.4741H18.3188V23.5228L19.174 22.4741H19.486L18.7557 23.3293L19.5172 24.584H19.2114L18.5997 23.5228L18.3188 23.8537V24.584H18.0878ZM19.6234 23.9036L19.8419 23.8849C19.8544 23.9972 19.8794 24.0908 19.9231 24.1532C19.9606 24.2219 20.023 24.2718 20.0978 24.3092C20.1728 24.3528 20.2601 24.3716 20.3538 24.3716C20.4911 24.3716 20.591 24.3341 20.666 24.2718C20.7408 24.2031 20.7783 24.1157 20.7783 24.0097C20.7783 23.9473 20.7659 23.8973 20.7408 23.8474C20.7159 23.8037 20.6721 23.7662 20.6159 23.735C20.5598 23.7038 20.4411 23.6602 20.2601 23.6102C20.0978 23.5603 19.9792 23.5103 19.9105 23.4604C19.841 23.4159 19.7849 23.3533 19.7482 23.2794C19.7107 23.2044 19.6919 23.1171 19.6919 23.0235C19.6919 22.8486 19.7482 22.7113 19.8542 22.6052C19.9666 22.4928 20.1164 22.4429 20.3036 22.4429C20.4284 22.4429 20.5407 22.4678 20.6406 22.5177C20.7342 22.5677 20.8092 22.6425 20.8653 22.7362C20.9199 22.8401 20.9478 22.9559 20.9465 23.0733L20.7279 23.092C20.7216 22.9548 20.678 22.8549 20.6093 22.7862C20.5343 22.7175 20.4407 22.6863 20.3098 22.6863C20.1785 22.6863 20.0788 22.7175 20.0162 22.7737C19.9824 22.8004 19.9552 22.8346 19.9368 22.8736C19.9184 22.9126 19.9093 22.9553 19.9102 22.9984C19.9102 23.0859 19.9352 23.1483 19.9852 23.1982C20.035 23.2419 20.1475 23.2918 20.3222 23.3418C20.497 23.3854 20.6156 23.4292 20.6843 23.4604C20.7905 23.5165 20.8715 23.5852 20.9214 23.6726C20.9777 23.7601 21.0026 23.8661 21.0026 23.9848C21.0033 24.1008 20.9731 24.215 20.9151 24.3155C20.8589 24.4154 20.784 24.4904 20.6841 24.5402C20.5906 24.5963 20.4719 24.6213 20.3345 24.6213C20.1223 24.6213 19.9476 24.5589 19.8228 24.4278C19.698 24.2967 19.6296 24.122 19.6234 23.9036ZM22.3574 24.584L21.9017 22.4741H22.1327L22.3949 23.8598C22.4261 24.0034 22.451 24.1469 22.4699 24.2904L22.551 23.8972L22.8818 22.4739H23.1502L23.3998 23.5414C23.4585 23.7885 23.5043 24.0386 23.5372 24.2904C23.556 24.1532 23.5872 23.9971 23.6184 23.8286L23.893 22.4741H24.1301L23.6496 24.584H23.431L23.0627 22.9797L23.0066 22.73C22.9941 22.8236 22.9754 22.9048 22.9566 22.9797L22.5884 24.584H22.3574ZM24.3799 24.584V22.4741H24.6108V24.584H24.3799ZM25.4535 24.584V22.7238H24.8855V22.4741H26.2525V22.7238H25.6784V24.584H25.4535ZM26.4774 24.584V22.4741H26.7083V23.3418H27.607V22.4741H27.8381V24.584H27.607V23.5915H26.7083V24.584H26.4774Z" fill="#00678C"/>
</svg>
