<svg width="112" height="48" viewBox="0 0 112 48" fill="none" xmlns="http://www.w3.org/2000/svg">
<rect width="112" height="48" rx="6" fill="#F0F4EA"/>
<path d="M47.312 30V18.896H48.368L48.816 20.64V30H47.312ZM54.992 30L48.176 20.896L48.368 18.896L55.2 27.984L54.992 30ZM54.992 30L54.544 28.352V18.896H56.048V30H54.992ZM62.0474 30.16C61.3007 30.16 60.6287 29.984 60.0314 29.632C59.434 29.28 58.9594 28.8053 58.6074 28.208C58.2554 27.6 58.0794 26.9227 58.0794 26.176C58.0794 25.44 58.2554 24.7787 58.6074 24.192C58.9594 23.5947 59.434 23.12 60.0314 22.768C60.6287 22.416 61.3007 22.24 62.0474 22.24C62.7834 22.24 63.45 22.416 64.0474 22.768C64.6554 23.1093 65.1354 23.5787 65.4874 24.176C65.8394 24.7733 66.0154 25.44 66.0154 26.176C66.0154 26.9227 65.8394 27.6 65.4874 28.208C65.1354 28.8053 64.6554 29.28 64.0474 29.632C63.45 29.984 62.7834 30.16 62.0474 30.16ZM62.0474 28.768C62.5274 28.768 62.954 28.656 63.3274 28.432C63.7007 28.208 63.994 27.904 64.2074 27.52C64.4207 27.1253 64.5274 26.6773 64.5274 26.176C64.5274 25.6853 64.4154 25.248 64.1914 24.864C63.978 24.48 63.6847 24.1813 63.3114 23.968C62.9487 23.744 62.5274 23.632 62.0474 23.632C61.5674 23.632 61.1407 23.744 60.7674 23.968C60.394 24.1813 60.1007 24.48 59.8874 24.864C59.674 25.248 59.5674 25.6853 59.5674 26.176C59.5674 26.6773 59.674 27.1253 59.8874 27.52C60.1007 27.904 60.394 28.208 60.7674 28.432C61.1407 28.656 61.5674 28.768 62.0474 28.768ZM71.0139 30.16C70.3099 30.16 69.6805 29.9893 69.1259 29.648C68.5712 29.296 68.1285 28.8213 67.7979 28.224C67.4779 27.6267 67.3179 26.9547 67.3179 26.208C67.3179 25.4613 67.4779 24.7893 67.7979 24.192C68.1285 23.5947 68.5712 23.12 69.1259 22.768C69.6805 22.416 70.3099 22.24 71.0139 22.24C71.5792 22.24 72.0912 22.3627 72.5499 22.608C73.0085 22.8427 73.3765 23.1733 73.6539 23.6C73.9419 24.016 74.1019 24.5013 74.1339 25.056V27.344C74.1019 27.888 73.9472 28.3733 73.6699 28.8C73.3925 29.2267 73.0245 29.5627 72.5659 29.808C72.1072 30.0427 71.5899 30.16 71.0139 30.16ZM71.2539 28.8C71.7339 28.8 72.1499 28.688 72.5019 28.464C72.8645 28.24 73.1472 27.936 73.3499 27.552C73.5525 27.1573 73.6539 26.7093 73.6539 26.208C73.6539 25.6853 73.5472 25.232 73.3339 24.848C73.1312 24.464 72.8485 24.16 72.4859 23.936C72.1339 23.712 71.7179 23.6 71.2379 23.6C70.7579 23.6 70.3365 23.712 69.9739 23.936C69.6112 24.16 69.3232 24.4693 69.1099 24.864C68.9072 25.248 68.8059 25.6907 68.8059 26.192C68.8059 26.704 68.9072 27.1573 69.1099 27.552C69.3232 27.936 69.6112 28.24 69.9739 28.464C70.3472 28.688 70.7739 28.8 71.2539 28.8ZM75.0139 30H73.5579V27.952L73.8299 26.096L73.5579 24.256V18.576H75.0139V30ZM80.7904 30.16C80.033 30.16 79.3504 29.9893 78.7424 29.648C78.1344 29.296 77.6544 28.8213 77.3024 28.224C76.9504 27.6267 76.7744 26.9493 76.7744 26.192C76.7744 25.4453 76.945 24.7733 77.2864 24.176C77.6384 23.5787 78.1077 23.1093 78.6944 22.768C79.2917 22.416 79.9584 22.24 80.6944 22.24C81.3984 22.24 82.017 22.4 82.5504 22.72C83.0944 23.04 83.5157 23.4827 83.8144 24.048C84.1237 24.6133 84.2784 25.2533 84.2784 25.968C84.2784 26.0747 84.273 26.192 84.2624 26.32C84.2517 26.4373 84.2304 26.576 84.1984 26.736H77.7824V25.536H83.4304L82.9024 26C82.9024 25.488 82.8117 25.056 82.6304 24.704C82.449 24.3413 82.193 24.064 81.8624 23.872C81.5317 23.6693 81.1317 23.568 80.6624 23.568C80.1717 23.568 79.7397 23.6747 79.3664 23.888C78.993 24.1013 78.705 24.4 78.5024 24.784C78.2997 25.168 78.1984 25.6213 78.1984 26.144C78.1984 26.6773 78.305 27.1467 78.5184 27.552C78.7317 27.9467 79.0357 28.256 79.4304 28.48C79.825 28.6933 80.2784 28.8 80.7904 28.8C81.217 28.8 81.6064 28.7253 81.9584 28.576C82.321 28.4267 82.6304 28.2027 82.8864 27.904L83.8144 28.848C83.4517 29.2747 83.0037 29.6 82.4704 29.824C81.9477 30.048 81.3877 30.16 80.7904 30.16ZM87.2725 30.16C86.9738 30.16 86.7232 30.0587 86.5205 29.856C86.3285 29.6427 86.2325 29.392 86.2325 29.104C86.2325 28.8053 86.3285 28.56 86.5205 28.368C86.7232 28.1653 86.9738 28.064 87.2725 28.064C87.5712 28.064 87.8165 28.1653 88.0085 28.368C88.2112 28.56 88.3125 28.8053 88.3125 29.104C88.3125 29.392 88.2112 29.6427 88.0085 29.856C87.8165 30.0587 87.5712 30.16 87.2725 30.16ZM90.4272 33.344C89.9366 33.344 89.5259 33.264 89.1952 33.104C88.8539 32.944 88.5499 32.7147 88.2832 32.416L89.2112 31.472C89.3606 31.6533 89.5259 31.7867 89.7072 31.872C89.8779 31.9573 90.0859 32 90.3312 32C90.6512 32 90.9286 31.8987 91.1632 31.696C91.3979 31.504 91.5152 31.2107 91.5152 30.816V22.4H92.9552V30.8C92.9552 31.3547 92.8379 31.8187 92.6032 32.192C92.3686 32.5653 92.0592 32.848 91.6752 33.04C91.2912 33.2427 90.8752 33.344 90.4272 33.344ZM92.2512 20.88C91.9952 20.88 91.7819 20.7947 91.6112 20.624C91.4406 20.4427 91.3552 20.2187 91.3552 19.952C91.3552 19.696 91.4406 19.4827 91.6112 19.312C91.7819 19.1307 91.9952 19.04 92.2512 19.04C92.5179 19.04 92.7366 19.1307 92.9072 19.312C93.0779 19.4827 93.1632 19.696 93.1632 19.952C93.1632 20.2187 93.0779 20.4427 92.9072 20.624C92.7366 20.7947 92.5179 20.88 92.2512 20.88ZM97.6507 30.16C97.2241 30.16 96.8187 30.1067 96.4347 30C96.0614 29.8827 95.7147 29.7227 95.3947 29.52C95.0747 29.3067 94.7974 29.056 94.5627 28.768L95.4907 27.84C95.7681 28.1813 96.0881 28.4373 96.4507 28.608C96.8134 28.768 97.2187 28.848 97.6667 28.848C98.1147 28.848 98.4614 28.7733 98.7067 28.624C98.9521 28.464 99.0747 28.2453 99.0747 27.968C99.0747 27.6907 98.9734 27.4773 98.7707 27.328C98.5787 27.168 98.3281 27.04 98.0187 26.944C97.7094 26.8373 97.3787 26.736 97.0267 26.64C96.6854 26.5333 96.3601 26.4 96.0507 26.24C95.7414 26.08 95.4854 25.8613 95.2827 25.584C95.0907 25.3067 94.9947 24.9387 94.9947 24.48C94.9947 24.0213 95.1067 23.6267 95.3307 23.296C95.5547 22.9547 95.8641 22.6933 96.2587 22.512C96.6641 22.3307 97.1494 22.24 97.7147 22.24C98.3121 22.24 98.8401 22.3467 99.2987 22.56C99.7681 22.7627 100.152 23.072 100.451 23.488L99.5227 24.416C99.3094 24.1387 99.0427 23.9253 98.7227 23.776C98.4134 23.6267 98.0614 23.552 97.6667 23.552C97.2507 23.552 96.9307 23.6267 96.7067 23.776C96.4934 23.9147 96.3867 24.112 96.3867 24.368C96.3867 24.624 96.4827 24.8213 96.6747 24.96C96.8667 25.0987 97.1174 25.216 97.4267 25.312C97.7467 25.408 98.0774 25.5093 98.4187 25.616C98.7601 25.712 99.0854 25.8453 99.3947 26.016C99.7041 26.1867 99.9547 26.416 100.147 26.704C100.349 26.992 100.451 27.3707 100.451 27.84C100.451 28.5547 100.195 29.12 99.6827 29.536C99.1814 29.952 98.5041 30.16 97.6507 30.16Z" fill="black"/>
<path d="M24.2112 31.1185C24.1275 31.1185 24.0494 31.0962 23.9768 31.0571L23.2345 30.6163C23.1229 30.5549 23.1787 30.5325 23.2122 30.5214C23.3629 30.4712 23.3908 30.46 23.5471 30.3707C23.5638 30.3595 23.5862 30.3651 23.6029 30.3763L24.1722 30.7167C24.1945 30.7279 24.2224 30.7279 24.2391 30.7167L26.4659 29.4275C26.4882 29.4164 26.4994 29.394 26.4994 29.3661V26.7934C26.4994 26.7654 26.4882 26.7431 26.4659 26.7319L24.2391 25.4483C24.2168 25.4371 24.1889 25.4371 24.1722 25.4483L21.9453 26.7319C21.923 26.7431 21.9118 26.771 21.9118 26.7933V29.3661C21.9118 29.3885 21.923 29.4163 21.9453 29.4275L22.5537 29.7791C22.883 29.9465 23.0894 29.7512 23.0894 29.5559V27.0165C23.0894 26.9831 23.1173 26.9496 23.1564 26.9496H23.441C23.4745 26.9496 23.508 26.9775 23.508 27.0165V29.5559C23.508 29.9967 23.268 30.2535 22.8494 30.2535C22.7211 30.2535 22.6207 30.2535 22.336 30.1139L21.75 29.7791C21.6049 29.6954 21.5156 29.5391 21.5156 29.3717V26.7989C21.5156 26.6315 21.6049 26.4752 21.75 26.3915L23.9768 25.1023C24.1163 25.0242 24.3061 25.0242 24.4456 25.1023L26.6724 26.3915C26.8175 26.4752 26.9068 26.6315 26.9068 26.7989V29.3717C26.9068 29.5391 26.8175 29.6954 26.6724 29.7791L24.4456 31.0683C24.373 31.1018 24.2893 31.1185 24.2112 31.1185ZM24.8976 29.3494C23.921 29.3494 23.7201 28.9029 23.7201 28.5234C23.7201 28.4899 23.748 28.4564 23.7871 28.4564H24.0773C24.1107 28.4564 24.1386 28.4788 24.1386 28.5123C24.1833 28.808 24.3117 28.9531 24.9032 28.9531C25.372 28.9531 25.573 28.8471 25.573 28.5959C25.573 28.4508 25.5171 28.3448 24.786 28.2723C24.1777 28.2108 23.7982 28.0769 23.7982 27.5914C23.7982 27.1393 24.1778 26.8714 24.8139 26.8714C25.5283 26.8714 25.8799 27.117 25.9246 27.6527C25.9246 27.6695 25.919 27.6862 25.9078 27.703C25.8966 27.7142 25.8799 27.7253 25.8632 27.7253H25.5729C25.545 27.7253 25.5171 27.703 25.5116 27.6751C25.4446 27.3682 25.2716 27.2677 24.8139 27.2677C24.3005 27.2677 24.2391 27.4463 24.2391 27.5802C24.2391 27.7421 24.3117 27.7923 25.0037 27.8816C25.6901 27.9709 26.0139 28.0993 26.0139 28.5792C26.0083 29.0703 25.6065 29.3494 24.8976 29.3494Z" fill="#539E43"/>
<path d="M17.3019 21.0564C17.3019 20.9559 17.2461 20.861 17.1568 20.8108L14.7905 19.449C14.7514 19.4267 14.7067 19.4155 14.6621 19.4099H14.6398C14.5951 19.4099 14.5505 19.4267 14.5114 19.449L12.1451 20.8108C12.0558 20.861 12 20.9559 12 21.0564L12.0056 24.7174C12.0056 24.7676 12.0335 24.8179 12.0781 24.8402C12.1228 24.8681 12.1786 24.8681 12.2177 24.8402L13.6241 24.0366C13.7134 23.9863 13.7692 23.8915 13.7692 23.791V22.0777C13.7692 21.9772 13.8249 21.8823 13.9143 21.8321L14.5114 21.4861C14.5561 21.4582 14.6063 21.447 14.6565 21.447C14.7067 21.447 14.757 21.4582 14.7961 21.4861L15.3932 21.8321C15.4825 21.8823 15.5383 21.9772 15.5383 22.0777V23.791C15.5383 23.8915 15.5941 23.9863 15.6834 24.0366L17.0898 24.8402C17.1345 24.8681 17.1902 24.8681 17.2349 24.8402C17.2796 24.8179 17.3075 24.7676 17.3075 24.7174L17.3019 21.0564ZM28.6758 16.0168C28.6312 15.9944 28.5753 15.9944 28.5362 16.0168C28.4916 16.0447 28.4637 16.0893 28.4637 16.1395V19.7672C28.4637 19.8006 28.447 19.8341 28.4135 19.8564C28.38 19.8732 28.3465 19.8732 28.313 19.8564L27.7215 19.516C27.6781 19.4913 27.629 19.4783 27.5791 19.4783C27.5292 19.4783 27.4802 19.4913 27.4368 19.516L25.0705 20.8833C24.9812 20.9336 24.9254 21.0284 24.9254 21.1289V23.8579C24.9254 23.9584 24.9812 24.0533 25.0705 24.1035L27.4368 25.4709C27.4802 25.4956 27.5292 25.5085 27.5791 25.5085C27.629 25.5085 27.6781 25.4956 27.7215 25.4709L30.0878 24.1035C30.1771 24.0533 30.2329 23.9584 30.2329 23.8579V17.0548C30.2329 16.9488 30.1771 16.8539 30.0878 16.8037L28.6758 16.0168ZM28.4581 22.9594C28.4581 22.9874 28.447 23.0097 28.4246 23.0208L27.6154 23.4896C27.6041 23.4951 27.5917 23.498 27.5791 23.498C27.5666 23.498 27.5542 23.4951 27.5429 23.4896L26.7336 23.0208C26.7113 23.0097 26.7001 22.9818 26.7001 22.9594V22.0218C26.7001 21.9939 26.7113 21.9716 26.7336 21.9605L27.5429 21.4916C27.5542 21.4861 27.5666 21.4832 27.5791 21.4832C27.5917 21.4832 27.6041 21.4861 27.6154 21.4916L28.4246 21.9605C28.447 21.9716 28.4581 21.9995 28.4581 22.0218V22.9594ZM36.5504 21.9995C36.6398 21.9493 36.69 21.8544 36.69 21.7539V21.0898C36.69 20.9894 36.6342 20.8945 36.5504 20.8443L34.2009 19.4826C34.1575 19.4579 34.1085 19.4449 34.0586 19.4449C34.0087 19.4449 33.9597 19.4579 33.9163 19.4826L31.55 20.8498C31.4606 20.9001 31.4049 20.9949 31.4049 21.0954V23.8245C31.4049 23.9249 31.4606 24.0198 31.55 24.07L33.8995 25.4094C33.9889 25.4597 34.0949 25.4597 34.1786 25.4094L35.6017 24.617C35.6464 24.5947 35.6743 24.5445 35.6743 24.4942C35.6743 24.444 35.6464 24.3938 35.6017 24.3714L33.2242 23.0041C33.1796 22.9762 33.1517 22.9316 33.1517 22.8814V22.0275C33.1517 21.9773 33.1796 21.927 33.2242 21.9047L33.9665 21.4805C33.9882 21.4668 34.0134 21.4596 34.0391 21.4596C34.0647 21.4596 34.0899 21.4668 34.1116 21.4805L34.8538 21.9047C34.8985 21.9326 34.9264 21.9772 34.9264 22.0275V22.6972C34.9264 22.7474 34.9543 22.7976 34.999 22.8199C35.0436 22.8478 35.0994 22.8478 35.1441 22.8199L36.5504 21.9995Z" fill="#333333"/>
<path d="M34.023 21.8716C34.0312 21.8662 34.0409 21.8633 34.0508 21.8633C34.0608 21.8633 34.0704 21.8662 34.0787 21.8716L34.5308 22.1339C34.5476 22.145 34.5587 22.1618 34.5587 22.1842V22.7088C34.5587 22.7311 34.5476 22.7478 34.5308 22.759L34.0787 23.0213C34.0704 23.0267 34.0608 23.0296 34.0508 23.0296C34.0409 23.0296 34.0312 23.0267 34.023 23.0213L33.5709 22.759C33.5541 22.7478 33.543 22.7311 33.543 22.7088V22.1842C33.543 22.1618 33.5541 22.145 33.5709 22.1339L34.023 21.8716Z" fill="#539E43"/>
<path d="M21.2581 19.4935C21.2147 19.4688 21.1657 19.4558 21.1158 19.4558C21.0659 19.4558 21.0168 19.4688 20.9735 19.4935L18.6239 20.8495C18.5346 20.8998 18.4844 20.9947 18.4844 21.0951V23.813C18.4844 23.9135 18.5402 24.0084 18.6239 24.0586L20.9735 25.4148C21.0168 25.4394 21.0659 25.4524 21.1158 25.4524C21.1657 25.4524 21.2147 25.4394 21.2581 25.4148L23.6077 24.0586C23.697 24.0084 23.7472 23.9135 23.7472 23.813V21.0951C23.7472 20.9947 23.6914 20.8998 23.6077 20.8496L21.2581 19.4935Z" fill="url(#paint0_linear_3538_106)"/>
<mask id="mask0_3538_106" style="mask-type:luminance" maskUnits="userSpaceOnUse" x="18" y="19" width="6" height="7">
<path d="M21.2581 19.4935C21.2147 19.4688 21.1657 19.4558 21.1158 19.4558C21.0659 19.4558 21.0168 19.4688 20.9735 19.4935L18.6239 20.8495C18.5346 20.8998 18.4844 20.9947 18.4844 21.0951V23.813C18.4844 23.9135 18.5402 24.0084 18.6239 24.0586L20.9735 25.4148C21.0168 25.4394 21.0659 25.4524 21.1158 25.4524C21.1657 25.4524 21.2147 25.4394 21.2581 25.4148L23.6077 24.0586C23.697 24.0084 23.7472 23.9135 23.7472 23.813V21.0951C23.7472 20.9947 23.6914 20.8998 23.6077 20.8496L21.2581 19.4935Z" fill="white"/>
</mask>
<g mask="url(#mask0_3538_106)">
<path d="M23.6177 20.8499L21.257 19.4937C21.2338 19.482 21.2095 19.4727 21.1844 19.4658L18.5391 23.9976C18.561 24.0243 18.5874 24.047 18.6172 24.0645L20.9779 25.4207C21.0449 25.4598 21.123 25.4709 21.1956 25.4486L23.6791 20.9057C23.6624 20.8834 23.64 20.8666 23.6177 20.8499Z" fill="url(#paint1_linear_3538_106)"/>
</g>
<mask id="mask1_3538_106" style="mask-type:luminance" maskUnits="userSpaceOnUse" x="18" y="19" width="6" height="7">
<path d="M21.2581 19.4935C21.2147 19.4688 21.1657 19.4558 21.1158 19.4558C21.0659 19.4558 21.0168 19.4688 20.9735 19.4935L18.6239 20.8495C18.5346 20.8998 18.4844 20.9947 18.4844 21.0951V23.813C18.4844 23.9135 18.5402 24.0084 18.6239 24.0586L20.9735 25.4148C21.0168 25.4394 21.0659 25.4524 21.1158 25.4524C21.1657 25.4524 21.2147 25.4394 21.2581 25.4148L23.6077 24.0586C23.697 24.0084 23.7472 23.9135 23.7472 23.813V21.0951C23.7472 20.9947 23.6914 20.8998 23.6077 20.8496L21.2581 19.4935Z" fill="white"/>
</mask>
<g mask="url(#mask1_3538_106)">
<path fill-rule="evenodd" clip-rule="evenodd" d="M23.6239 24.0591C23.6909 24.02 23.7411 23.953 23.7634 23.8805L21.1738 19.4604C21.1068 19.4492 21.0342 19.4548 20.9729 19.4939L18.6289 20.8445L21.157 25.4543C21.1938 25.4483 21.2295 25.437 21.2631 25.4208L23.6238 24.0591L23.6239 24.0591Z" fill="url(#paint2_linear_3538_106)"/>
<path fill-rule="evenodd" clip-rule="evenodd" d="M23.6214 24.0582L21.2662 25.4144C21.2329 25.4313 21.1971 25.4426 21.1602 25.4478L21.2048 25.5316L23.8167 24.0192V23.9857L23.7497 23.874C23.7385 23.9522 23.6883 24.0191 23.6214 24.0582Z" fill="url(#paint3_linear_3538_106)"/>
<path fill-rule="evenodd" clip-rule="evenodd" d="M23.6214 24.0582L21.2662 25.4144C21.2329 25.4313 21.1971 25.4426 21.1602 25.4478L21.2048 25.5316L23.8167 24.0192V23.9857L23.7497 23.874C23.7385 23.9522 23.6883 24.0191 23.6214 24.0582Z" fill="url(#paint4_linear_3538_106)"/>
</g>
<defs>
<linearGradient id="paint0_linear_3538_106" x1="377.348" y1="124.318" x2="119.815" y2="528.98" gradientUnits="userSpaceOnUse">
<stop stop-color="#41873F"/>
<stop offset="0.3288" stop-color="#418B3D"/>
<stop offset="0.6352" stop-color="#419637"/>
<stop offset="0.9319" stop-color="#3FA92D"/>
<stop offset="1" stop-color="#3FAE2A"/>
</linearGradient>
<linearGradient id="paint1_linear_3538_106" x1="240.985" y1="350.157" x2="885.965" y2="-0.262293" gradientUnits="userSpaceOnUse">
<stop offset="0.1376" stop-color="#41873F"/>
<stop offset="0.4032" stop-color="#54A044"/>
<stop offset="0.7136" stop-color="#66B848"/>
<stop offset="0.9081" stop-color="#6CC04A"/>
</linearGradient>
<linearGradient id="paint2_linear_3538_106" x1="-3.90654" y1="319.386" x2="539.778" y2="319.386" gradientUnits="userSpaceOnUse">
<stop offset="0.09192" stop-color="#6CC04A"/>
<stop offset="0.2864" stop-color="#66B848"/>
<stop offset="0.5968" stop-color="#54A044"/>
<stop offset="0.8624" stop-color="#41873F"/>
</linearGradient>
<linearGradient id="paint3_linear_3538_106" x1="-254.749" y1="107.207" x2="288.93" y2="107.207" gradientUnits="userSpaceOnUse">
<stop offset="0.09192" stop-color="#6CC04A"/>
<stop offset="0.2864" stop-color="#66B848"/>
<stop offset="0.5968" stop-color="#54A044"/>
<stop offset="0.8624" stop-color="#41873F"/>
</linearGradient>
<linearGradient id="paint4_linear_3538_106" x1="368.137" y1="-325.98" x2="230.402" y2="395.746" gradientUnits="userSpaceOnUse">
<stop stop-color="#41873F"/>
<stop offset="0.3288" stop-color="#418B3D"/>
<stop offset="0.6352" stop-color="#419637"/>
<stop offset="0.9319" stop-color="#3FA92D"/>
<stop offset="1" stop-color="#3FAE2A"/>
</linearGradient>
</defs>
</svg>
