<svg width="108" height="48" viewBox="0 0 108 48" fill="none" xmlns="http://www.w3.org/2000/svg">
<rect width="108" height="48" rx="6" fill="#EAEEF1"/>
<path d="M48.32 25.68V24.368H51.344C51.76 24.368 52.128 24.2827 52.448 24.112C52.7787 23.9413 53.0347 23.7013 53.216 23.392C53.408 23.0827 53.504 22.7147 53.504 22.288C53.504 21.8613 53.408 21.4933 53.216 21.184C53.0347 20.8747 52.7787 20.6347 52.448 20.464C52.128 20.2933 51.76 20.208 51.344 20.208H48.32V18.896H51.44C52.1227 18.896 52.7307 19.0347 53.264 19.312C53.808 19.5893 54.2347 19.984 54.544 20.496C54.864 20.9973 55.024 21.5947 55.024 22.288C55.024 22.9707 54.864 23.568 54.544 24.08C54.2347 24.5813 53.808 24.976 53.264 25.264C52.7307 25.5413 52.1227 25.68 51.44 25.68H48.32ZM47.312 30V18.896H48.816V30H47.312ZM59.4151 30.064L56.1191 22.4H57.7191L60.1671 28.4H59.6551L62.2311 22.4H63.8311L60.2791 30.064H59.4151ZM57.2391 33.184L59.4791 28.592L60.2791 30.064L58.8391 33.184H57.2391ZM66.3409 30V19.216H67.7809V30H66.3409ZM64.4689 23.712V22.4H69.6529V23.712H64.4689ZM76.5995 30V25.568C76.5995 24.992 76.4182 24.5173 76.0555 24.144C75.6928 23.7707 75.2235 23.584 74.6475 23.584C74.2635 23.584 73.9222 23.6693 73.6235 23.84C73.3248 24.0107 73.0902 24.2453 72.9195 24.544C72.7488 24.8427 72.6635 25.184 72.6635 25.568L72.0715 25.232C72.0715 24.656 72.1995 24.144 72.4555 23.696C72.7115 23.248 73.0688 22.896 73.5275 22.64C73.9862 22.3733 74.5035 22.24 75.0795 22.24C75.6555 22.24 76.1622 22.368 76.5995 22.624C77.0475 22.88 77.3995 23.2373 77.6555 23.696C77.9115 24.1547 78.0395 24.6827 78.0395 25.28V30H76.5995ZM71.2235 30V18.576H72.6635V30H71.2235ZM83.6211 30.16C82.8745 30.16 82.2025 29.984 81.6051 29.632C81.0078 29.28 80.5331 28.8053 80.1811 28.208C79.8291 27.6 79.6531 26.9227 79.6531 26.176C79.6531 25.44 79.8291 24.7787 80.1811 24.192C80.5331 23.5947 81.0078 23.12 81.6051 22.768C82.2025 22.416 82.8745 22.24 83.6211 22.24C84.3571 22.24 85.0238 22.416 85.6211 22.768C86.2291 23.1093 86.7091 23.5787 87.0611 24.176C87.4131 24.7733 87.5891 25.44 87.5891 26.176C87.5891 26.9227 87.4131 27.6 87.0611 28.208C86.7091 28.8053 86.2291 29.28 85.6211 29.632C85.0238 29.984 84.3571 30.16 83.6211 30.16ZM83.6211 28.768C84.1011 28.768 84.5278 28.656 84.9011 28.432C85.2745 28.208 85.5678 27.904 85.7811 27.52C85.9945 27.1253 86.1011 26.6773 86.1011 26.176C86.1011 25.6853 85.9891 25.248 85.7651 24.864C85.5518 24.48 85.2585 24.1813 84.8851 23.968C84.5225 23.744 84.1011 23.632 83.6211 23.632C83.1411 23.632 82.7145 23.744 82.3411 23.968C81.9678 24.1813 81.6745 24.48 81.4611 24.864C81.2478 25.248 81.1411 25.6853 81.1411 26.176C81.1411 26.6773 81.2478 27.1253 81.4611 27.52C81.6745 27.904 81.9678 28.208 82.3411 28.432C82.7145 28.656 83.1411 28.768 83.6211 28.768ZM94.7476 30V25.568C94.7476 24.992 94.5663 24.5173 94.2036 24.144C93.841 23.7707 93.3716 23.584 92.7956 23.584C92.4116 23.584 92.0703 23.6693 91.7716 23.84C91.473 24.0107 91.2383 24.2453 91.0676 24.544C90.897 24.8427 90.8116 25.184 90.8116 25.568L90.2196 25.232C90.2196 24.656 90.3476 24.144 90.6036 23.696C90.8596 23.248 91.217 22.896 91.6756 22.64C92.1343 22.3733 92.6516 22.24 93.2276 22.24C93.8036 22.24 94.3103 22.384 94.7476 22.672C95.1956 22.96 95.5476 23.3387 95.8036 23.808C96.0596 24.2667 96.1876 24.7573 96.1876 25.28V30H94.7476ZM89.3716 30V22.4H90.8116V30H89.3716Z" fill="black"/>
<path d="M23.9758 12C17.8512 12 18.2336 14.656 18.2336 14.656L18.2404 17.4076H24.085V18.2338H15.9191C15.9191 18.2338 12 17.7893 12 23.9689C12 30.1488 15.4207 29.9296 15.4207 29.9296H17.4621V27.0619C17.4621 27.0619 17.3521 23.6412 20.8282 23.6412H26.6249C26.6249 23.6412 29.8817 23.6938 29.8817 20.4936V15.2023C29.8817 15.2023 30.3763 12 23.9758 12ZM20.7531 13.8504C20.8912 13.8503 21.028 13.8774 21.1556 13.9302C21.2832 13.983 21.3992 14.0605 21.4968 14.1581C21.5945 14.2558 21.6719 14.3717 21.7247 14.4994C21.7775 14.627 21.8047 14.7638 21.8045 14.9019C21.8047 15.04 21.7775 15.1768 21.7247 15.3044C21.6719 15.432 21.5945 15.548 21.4968 15.6456C21.3992 15.7433 21.2832 15.8207 21.1556 15.8735C21.028 15.9263 20.8912 15.9534 20.7531 15.9533C20.615 15.9534 20.4782 15.9263 20.3506 15.8735C20.223 15.8207 20.107 15.7433 20.0094 15.6456C19.9117 15.548 19.8343 15.432 19.7815 15.3044C19.7287 15.1768 19.7016 15.04 19.7017 14.9019C19.7016 14.7638 19.7287 14.627 19.7815 14.4994C19.8343 14.3717 19.9117 14.2558 20.0094 14.1581C20.107 14.0605 20.223 13.983 20.3506 13.9302C20.4782 13.8774 20.615 13.8503 20.7531 13.8504Z" fill="url(#paint0_linear_3538_86)"/>
<path d="M24.1493 36.0001C30.2738 36.0001 29.8914 33.3442 29.8914 33.3442L29.8846 30.5926H24.04V29.7665H32.2059C32.2059 29.7665 36.1249 30.2109 36.1249 24.0311C36.1249 17.8514 32.7043 18.0705 32.7043 18.0705H30.6628V20.9381C30.6628 20.9381 30.7729 24.3588 27.2967 24.3588H21.5C21.5 24.3588 18.2432 24.3062 18.2432 27.5065V32.7979C18.2432 32.7979 17.7487 36.0001 24.1492 36.0001H24.1493ZM27.3719 34.1499C27.2338 34.15 27.097 34.1229 26.9694 34.0701C26.8418 34.0173 26.7259 33.9399 26.6282 33.8422C26.5305 33.7445 26.4531 33.6286 26.4003 33.501C26.3475 33.3733 26.3204 33.2366 26.3205 33.0985C26.3204 32.9603 26.3475 32.8235 26.4003 32.6959C26.4531 32.5683 26.5305 32.4523 26.6282 32.3546C26.7258 32.257 26.8418 32.1795 26.9694 32.1267C27.097 32.0739 27.2338 32.0468 27.3719 32.0469C27.51 32.0468 27.6468 32.0739 27.7744 32.1267C27.9021 32.1795 28.018 32.2569 28.1157 32.3546C28.2133 32.4523 28.2908 32.5682 28.3436 32.6958C28.3964 32.8235 28.4235 32.9602 28.4234 33.0984C28.4235 33.2365 28.3964 33.3732 28.3436 33.5009C28.2908 33.6285 28.2133 33.7444 28.1157 33.8421C28.018 33.9398 27.9021 34.0172 27.7744 34.07C27.6468 34.1228 27.51 34.15 27.3719 34.1499Z" fill="url(#paint1_linear_3538_86)"/>
<defs>
<linearGradient id="paint0_linear_3538_86" x1="243.844" y1="227.866" x2="1439.43" y2="1411.52" gradientUnits="userSpaceOnUse">
<stop stop-color="#387EB8"/>
<stop offset="1" stop-color="#366994"/>
</linearGradient>
<linearGradient id="paint1_linear_3538_86" x1="360.445" y1="387.063" x2="1644.37" y2="1600.79" gradientUnits="userSpaceOnUse">
<stop stop-color="#FFE052"/>
<stop offset="1" stop-color="#FFC331"/>
</linearGradient>
</defs>
</svg>
